M48
; DRILL file {KiCad 9.0.0} date 2025-05-09T14:24:35+0900
; FORMAT={3:3/ absolute / metric / suppress leading zeros}
; #@! TF.CreationDate,2025-05-09T14:24:35+09:00
; #@! TF.GenerationSoftware,Kicad,Pcbnew,9.0.0
; #@! TF.FileFunction,MixedPlating,1,2
FMAT,2
METRIC,TZ
; #@! TA.AperFunction,Plated,PTH,ViaDrill
T1C0.300
; #@! TA.AperFunction,Plated,PTH,ComponentDrill
T2C0.800
; #@! TA.AperFunction,Plated,PTH,ComponentDrill
T3C0.889
; #@! TA.AperFunction,Plated,PTH,ComponentDrill
T4C1.000
; #@! TA.AperFunction,NonPlated,NPTH,ComponentDrill
T5C3.500
%
G90
G05
T1
X102500Y-77500
X102500Y-82500
X102500Y-87500
X112500Y-62500
X112500Y-72500
X112500Y-77500
X112500Y-82500
X112500Y-87500
X112500Y-92500
X112500Y-97500
X117500Y-62500
X117500Y-72500
X117500Y-77500
X117500Y-82500
X117500Y-97500
X122500Y-62500
X122500Y-92500
X122500Y-97500
X127500Y-62500
X127500Y-72500
X127500Y-77500
X127500Y-82500
X127500Y-87500
X127500Y-92500
X127500Y-97500
X132500Y-62500
X132500Y-72500
X132500Y-77500
X132500Y-82500
X132500Y-87500
X132500Y-92500
X132500Y-97500
X137500Y-62500
X137500Y-72500
X137500Y-77500
X137500Y-82500
X137500Y-87500
X137500Y-92500
X137500Y-97500
X142500Y-62500
X142500Y-92500
X142500Y-97500
X147500Y-62500
X147500Y-72500
X147500Y-82500
X147500Y-87500
X147500Y-92500
X147500Y-97500
X152500Y-82500
X152500Y-87500
X157500Y-72500
X157500Y-77500
X157500Y-82500
X157500Y-87500
T2
X108966Y-87630
X109110Y-80010
X109110Y-92202
X119126Y-87630
X119270Y-80010
X119270Y-92202
X146304Y-74950
X146304Y-77450
X153162Y-74905
X153162Y-77405
T3
X124760Y-72500
X124760Y-75040
X124760Y-77580
X124760Y-80120
X124760Y-82660
X124760Y-85200
X124760Y-87740
X140000Y-72500
X140000Y-75040
X140000Y-77580
X140000Y-80120
X140000Y-82660
X140000Y-85200
X140000Y-87740
T4
X105000Y-74840
X105000Y-77380
X105000Y-79920
X105000Y-82460
X105000Y-85000
X105000Y-87540
X105000Y-90080
T5
X104000Y-64008
X104000Y-96000
X156000Y-64000
X156000Y-96000
M30
