G04 #@! TF.GenerationSoftware,KiCad,Pcbnew,9.0.0*
G04 #@! TF.CreationDate,2025-05-09T14:24:40+09:00*
G04 #@! TF.ProjectId,magnet_module,6d61676e-6574-45f6-9d6f-64756c652e6b,rev?*
G04 #@! TF.SameCoordinates,Original*
G04 #@! TF.FileFunction,Copper,L2,Bot*
G04 #@! TF.FilePolarity,Positive*
%FSLAX46Y46*%
G04 Gerber Fmt 4.6, Leading zero omitted, Abs format (unit mm)*
G04 Created by KiCad (PCBNEW 9.0.0) date 2025-05-09 14:24:40*
%MOMM*%
%LPD*%
G01*
G04 APERTURE LIST*
G04 #@! TA.AperFunction,ComponentPad*
%ADD10C,1.600000*%
G04 #@! TD*
G04 #@! TA.AperFunction,ComponentPad*
%ADD11O,1.600000X1.600000*%
G04 #@! TD*
G04 #@! TA.AperFunction,ComponentPad*
%ADD12R,1.700000X1.700000*%
G04 #@! TD*
G04 #@! TA.AperFunction,ComponentPad*
%ADD13O,1.700000X1.700000*%
G04 #@! TD*
G04 #@! TA.AperFunction,ComponentPad*
%ADD14R,1.600000X1.600000*%
G04 #@! TD*
G04 #@! TA.AperFunction,ComponentPad*
%ADD15C,1.524000*%
G04 #@! TD*
G04 #@! TA.AperFunction,ViaPad*
%ADD16C,0.600000*%
G04 #@! TD*
G04 #@! TA.AperFunction,Conductor*
%ADD17C,0.200000*%
G04 #@! TD*
G04 APERTURE END LIST*
D10*
G04 #@! TO.P,R1,1*
G04 #@! TO.N,Net-(J1-Pin_3)*
X109110225Y-80010000D03*
D11*
G04 #@! TO.P,R1,2*
G04 #@! TO.N,Net-(U1-PB08_A6_TX)*
X119270225Y-80010000D03*
G04 #@! TD*
D10*
G04 #@! TO.P,R3,1*
G04 #@! TO.N,Net-(J1-Pin_7)*
X109110225Y-92202000D03*
D11*
G04 #@! TO.P,R3,2*
G04 #@! TO.N,Net-(U1-PA8_A4_D4_SDA)*
X119270225Y-92202000D03*
G04 #@! TD*
D12*
G04 #@! TO.P,J1,1,Pin_1*
G04 #@! TO.N,GND*
X105000000Y-74840000D03*
D13*
G04 #@! TO.P,J1,2,Pin_2*
G04 #@! TO.N,+3V3*
X105000000Y-77380000D03*
G04 #@! TO.P,J1,3,Pin_3*
G04 #@! TO.N,Net-(J1-Pin_3)*
X105000000Y-79920000D03*
G04 #@! TO.P,J1,4,Pin_4*
G04 #@! TO.N,Net-(J1-Pin_4)*
X105000000Y-82460000D03*
G04 #@! TO.P,J1,5,Pin_5*
G04 #@! TO.N,Net-(J1-Pin_5)*
X105000000Y-85000000D03*
G04 #@! TO.P,J1,6,Pin_6*
G04 #@! TO.N,Net-(J1-Pin_6)*
X105000000Y-87540000D03*
G04 #@! TO.P,J1,7,Pin_7*
G04 #@! TO.N,Net-(J1-Pin_7)*
X105000000Y-90080000D03*
G04 #@! TD*
D10*
G04 #@! TO.P,C1,1*
G04 #@! TO.N,GND*
X146304000Y-74950000D03*
G04 #@! TO.P,C1,2*
G04 #@! TO.N,+3V3*
X146304000Y-77450000D03*
G04 #@! TD*
D14*
G04 #@! TO.P,C2,1*
G04 #@! TO.N,+3V3*
X153162000Y-77405113D03*
D10*
G04 #@! TO.P,C2,2*
G04 #@! TO.N,GND*
X153162000Y-74905113D03*
G04 #@! TD*
G04 #@! TO.P,R2,1*
G04 #@! TO.N,Net-(J1-Pin_6)*
X108966000Y-87630000D03*
D11*
G04 #@! TO.P,R2,2*
G04 #@! TO.N,Net-(U1-PA11_A3_D3)*
X119126000Y-87630000D03*
G04 #@! TD*
D15*
G04 #@! TO.P,U1,1,PA02_A0_D0*
G04 #@! TO.N,unconnected-(U1-PA02_A0_D0-Pad1)*
X124760000Y-72500000D03*
G04 #@! TO.P,U1,2,PA4_A1_D1*
G04 #@! TO.N,Net-(J1-Pin_5)*
X124760000Y-75040000D03*
G04 #@! TO.P,U1,3,PA10_A2_D2*
G04 #@! TO.N,unconnected-(U1-PA10_A2_D2-Pad3)*
X124760000Y-77580000D03*
G04 #@! TO.P,U1,4,PA11_A3_D3*
G04 #@! TO.N,Net-(U1-PA11_A3_D3)*
X124760000Y-80120000D03*
G04 #@! TO.P,U1,5,PA8_A4_D4_SDA*
G04 #@! TO.N,Net-(U1-PA8_A4_D4_SDA)*
X124760000Y-82660000D03*
G04 #@! TO.P,U1,6,PA9_A5_D5_SCL*
G04 #@! TO.N,unconnected-(U1-PA9_A5_D5_SCL-Pad6)*
X124760000Y-85200000D03*
G04 #@! TO.P,U1,7,PB08_A6_TX*
G04 #@! TO.N,Net-(U1-PB08_A6_TX)*
X124760000Y-87740000D03*
G04 #@! TO.P,U1,8,PB09_D7_RX*
G04 #@! TO.N,Net-(J1-Pin_4)*
X140000000Y-87740000D03*
G04 #@! TO.P,U1,9,PA7_A8_D8_SCK*
G04 #@! TO.N,unconnected-(U1-PA7_A8_D8_SCK-Pad9)*
X140000000Y-85200000D03*
G04 #@! TO.P,U1,10,PA5_A9_D9_MISO*
G04 #@! TO.N,unconnected-(U1-PA5_A9_D9_MISO-Pad10)*
X140000000Y-82660000D03*
G04 #@! TO.P,U1,11,PA6_A10_D10_MOSI*
G04 #@! TO.N,unconnected-(U1-PA6_A10_D10_MOSI-Pad11)*
X140000000Y-80120000D03*
G04 #@! TO.P,U1,12,3V3*
G04 #@! TO.N,+3V3*
X140000000Y-77580000D03*
G04 #@! TO.P,U1,13,GND*
G04 #@! TO.N,GND*
X140000000Y-75040000D03*
G04 #@! TO.P,U1,14,5V*
G04 #@! TO.N,unconnected-(U1-5V-Pad14)*
X140000000Y-72500000D03*
G04 #@! TD*
D16*
G04 #@! TO.N,GND*
X137500000Y-87500000D03*
X137500000Y-97500000D03*
X147500000Y-97500000D03*
X132500000Y-92500000D03*
X127500000Y-72500000D03*
X112500000Y-82500000D03*
X117500000Y-97500000D03*
X137500000Y-92500000D03*
X117500000Y-62500000D03*
X117500000Y-77500000D03*
X127500000Y-97500000D03*
X112500000Y-72500000D03*
X132500000Y-72500000D03*
X122500000Y-97500000D03*
X147500000Y-62500000D03*
X147500000Y-87500000D03*
X127500000Y-62500000D03*
X137500000Y-62500000D03*
X152500000Y-82500000D03*
X137500000Y-77500000D03*
X132500000Y-77500000D03*
X132500000Y-82500000D03*
X102500000Y-77500000D03*
X122500000Y-62500000D03*
X132500000Y-62500000D03*
X147500000Y-92500000D03*
X132500000Y-87500000D03*
X152500000Y-87500000D03*
X132500000Y-97500000D03*
X127500000Y-87500000D03*
X142500000Y-62500000D03*
X127500000Y-92500000D03*
X157500000Y-72500000D03*
X157500000Y-82500000D03*
X112500000Y-97500000D03*
X157500000Y-77500000D03*
X142500000Y-92500000D03*
X117500000Y-82500000D03*
X117500000Y-72500000D03*
X137500000Y-72500000D03*
X127500000Y-82500000D03*
X147500000Y-72500000D03*
X127500000Y-77500000D03*
X102500000Y-87500000D03*
X112500000Y-92500000D03*
X147500000Y-82500000D03*
X137500000Y-82500000D03*
X157500000Y-87500000D03*
X122500000Y-92500000D03*
X142500000Y-97500000D03*
X112500000Y-62500000D03*
X112500000Y-87500000D03*
X112500000Y-77500000D03*
X102500000Y-82500000D03*
G04 #@! TD*
D17*
G04 #@! TO.N,Net-(J1-Pin_4)*
X107000000Y-89000000D02*
X108000000Y-90000000D01*
X107000000Y-83000000D02*
X107000000Y-89000000D01*
X106460000Y-82460000D02*
X107000000Y-83000000D01*
X108000000Y-90000000D02*
X137740000Y-90000000D01*
X137740000Y-90000000D02*
X140000000Y-87740000D01*
X105000000Y-82460000D02*
X106460000Y-82460000D01*
G04 #@! TO.N,Net-(U1-PB08_A6_TX)*
X119270225Y-80010000D02*
X119270225Y-84692225D01*
X122318000Y-87740000D02*
X124760000Y-87740000D01*
X119270225Y-84692225D02*
X122318000Y-87740000D01*
G04 #@! TD*
G04 #@! TA.AperFunction,Conductor*
G04 #@! TO.N,GND*
G36*
X158943039Y-61019685D02*
G01*
X158988794Y-61072489D01*
X159000000Y-61124000D01*
X159000000Y-98876000D01*
X158980315Y-98943039D01*
X158927511Y-98988794D01*
X158876000Y-99000000D01*
X101124000Y-99000000D01*
X101056961Y-98980315D01*
X101011206Y-98927511D01*
X101000000Y-98876000D01*
X101000000Y-95868872D01*
X101999500Y-95868872D01*
X101999500Y-96131127D01*
X102026123Y-96333339D01*
X102033730Y-96391116D01*
X102101602Y-96644418D01*
X102101605Y-96644428D01*
X102201953Y-96886690D01*
X102201958Y-96886700D01*
X102333075Y-97113803D01*
X102492718Y-97321851D01*
X102492726Y-97321860D01*
X102678140Y-97507274D01*
X102678148Y-97507281D01*
X102886196Y-97666924D01*
X103113299Y-97798041D01*
X103113309Y-97798046D01*
X103355571Y-97898394D01*
X103355581Y-97898398D01*
X103608884Y-97966270D01*
X103868880Y-98000500D01*
X103868887Y-98000500D01*
X104131113Y-98000500D01*
X104131120Y-98000500D01*
X104391116Y-97966270D01*
X104644419Y-97898398D01*
X104886697Y-97798043D01*
X105113803Y-97666924D01*
X105321851Y-97507282D01*
X105321855Y-97507277D01*
X105321860Y-97507274D01*
X105507274Y-97321860D01*
X105507277Y-97321855D01*
X105507282Y-97321851D01*
X105666924Y-97113803D01*
X105798043Y-96886697D01*
X105898398Y-96644419D01*
X105966270Y-96391116D01*
X106000500Y-96131120D01*
X106000500Y-95868880D01*
X106000499Y-95868872D01*
X153999500Y-95868872D01*
X153999500Y-96131127D01*
X154026123Y-96333339D01*
X154033730Y-96391116D01*
X154101602Y-96644418D01*
X154101605Y-96644428D01*
X154201953Y-96886690D01*
X154201958Y-96886700D01*
X154333075Y-97113803D01*
X154492718Y-97321851D01*
X154492726Y-97321860D01*
X154678140Y-97507274D01*
X154678148Y-97507281D01*
X154886196Y-97666924D01*
X155113299Y-97798041D01*
X155113309Y-97798046D01*
X155355571Y-97898394D01*
X155355581Y-97898398D01*
X155608884Y-97966270D01*
X155868880Y-98000500D01*
X155868887Y-98000500D01*
X156131113Y-98000500D01*
X156131120Y-98000500D01*
X156391116Y-97966270D01*
X156644419Y-97898398D01*
X156886697Y-97798043D01*
X157113803Y-97666924D01*
X157321851Y-97507282D01*
X157321855Y-97507277D01*
X157321860Y-97507274D01*
X157507274Y-97321860D01*
X157507277Y-97321855D01*
X157507282Y-97321851D01*
X157666924Y-97113803D01*
X157798043Y-96886697D01*
X157898398Y-96644419D01*
X157966270Y-96391116D01*
X158000500Y-96131120D01*
X158000500Y-95868880D01*
X157966270Y-95608884D01*
X157898398Y-95355581D01*
X157898394Y-95355571D01*
X157798046Y-95113309D01*
X157798041Y-95113299D01*
X157666924Y-94886196D01*
X157507281Y-94678148D01*
X157507274Y-94678140D01*
X157321860Y-94492726D01*
X157321851Y-94492718D01*
X157113803Y-94333075D01*
X156886700Y-94201958D01*
X156886690Y-94201953D01*
X156644428Y-94101605D01*
X156644421Y-94101603D01*
X156644419Y-94101602D01*
X156391116Y-94033730D01*
X156333339Y-94026123D01*
X156131127Y-93999500D01*
X156131120Y-93999500D01*
X155868880Y-93999500D01*
X155868872Y-93999500D01*
X155637772Y-94029926D01*
X155608884Y-94033730D01*
X155355581Y-94101602D01*
X155355571Y-94101605D01*
X155113309Y-94201953D01*
X155113299Y-94201958D01*
X154886196Y-94333075D01*
X154678148Y-94492718D01*
X154492718Y-94678148D01*
X154333075Y-94886196D01*
X154201958Y-95113299D01*
X154201953Y-95113309D01*
X154101605Y-95355571D01*
X154101602Y-95355581D01*
X154033730Y-95608885D01*
X153999500Y-95868872D01*
X106000499Y-95868872D01*
X105966270Y-95608884D01*
X105898398Y-95355581D01*
X105898394Y-95355571D01*
X105798046Y-95113309D01*
X105798041Y-95113299D01*
X105666924Y-94886196D01*
X105507281Y-94678148D01*
X105507274Y-94678140D01*
X105321860Y-94492726D01*
X105321851Y-94492718D01*
X105113803Y-94333075D01*
X104886700Y-94201958D01*
X104886690Y-94201953D01*
X104644428Y-94101605D01*
X104644421Y-94101603D01*
X104644419Y-94101602D01*
X104391116Y-94033730D01*
X104333339Y-94026123D01*
X104131127Y-93999500D01*
X104131120Y-93999500D01*
X103868880Y-93999500D01*
X103868872Y-93999500D01*
X103637772Y-94029926D01*
X103608884Y-94033730D01*
X103355581Y-94101602D01*
X103355571Y-94101605D01*
X103113309Y-94201953D01*
X103113299Y-94201958D01*
X102886196Y-94333075D01*
X102678148Y-94492718D01*
X102492718Y-94678148D01*
X102333075Y-94886196D01*
X102201958Y-95113299D01*
X102201953Y-95113309D01*
X102101605Y-95355571D01*
X102101602Y-95355581D01*
X102033730Y-95608885D01*
X101999500Y-95868872D01*
X101000000Y-95868872D01*
X101000000Y-92300543D01*
X108109724Y-92300543D01*
X108148172Y-92493829D01*
X108148175Y-92493839D01*
X108223589Y-92675907D01*
X108223596Y-92675920D01*
X108333085Y-92839781D01*
X108333088Y-92839785D01*
X108472439Y-92979136D01*
X108472443Y-92979139D01*
X108636304Y-93088628D01*
X108636317Y-93088635D01*
X108818385Y-93164049D01*
X108818390Y-93164051D01*
X108818394Y-93164051D01*
X108818395Y-93164052D01*
X109011681Y-93202500D01*
X109011684Y-93202500D01*
X109208768Y-93202500D01*
X109338807Y-93176632D01*
X109402060Y-93164051D01*
X109584139Y-93088632D01*
X109748007Y-92979139D01*
X109887364Y-92839782D01*
X109996857Y-92675914D01*
X110072276Y-92493835D01*
X110110725Y-92300543D01*
X118269724Y-92300543D01*
X118308172Y-92493829D01*
X118308175Y-92493839D01*
X118383589Y-92675907D01*
X118383596Y-92675920D01*
X118493085Y-92839781D01*
X118493088Y-92839785D01*
X118632439Y-92979136D01*
X118632443Y-92979139D01*
X118796304Y-93088628D01*
X118796317Y-93088635D01*
X118978385Y-93164049D01*
X118978390Y-93164051D01*
X118978394Y-93164051D01*
X118978395Y-93164052D01*
X119171681Y-93202500D01*
X119171684Y-93202500D01*
X119368768Y-93202500D01*
X119498807Y-93176632D01*
X119562060Y-93164051D01*
X119744139Y-93088632D01*
X119908007Y-92979139D01*
X120047364Y-92839782D01*
X120156857Y-92675914D01*
X120232276Y-92493835D01*
X120270725Y-92300541D01*
X120270725Y-92103459D01*
X120270725Y-92103456D01*
X120232277Y-91910170D01*
X120232276Y-91910169D01*
X120232276Y-91910165D01*
X120232274Y-91910160D01*
X120156860Y-91728092D01*
X120156853Y-91728079D01*
X120047364Y-91564218D01*
X120047361Y-91564214D01*
X119908010Y-91424863D01*
X119908006Y-91424860D01*
X119744145Y-91315371D01*
X119744132Y-91315364D01*
X119562064Y-91239950D01*
X119562054Y-91239947D01*
X119368768Y-91201500D01*
X119368766Y-91201500D01*
X119171684Y-91201500D01*
X119171682Y-91201500D01*
X118978395Y-91239947D01*
X118978385Y-91239950D01*
X118796317Y-91315364D01*
X118796304Y-91315371D01*
X118632443Y-91424860D01*
X118632439Y-91424863D01*
X118493088Y-91564214D01*
X118493085Y-91564218D01*
X118383596Y-91728079D01*
X118383589Y-91728092D01*
X118308175Y-91910160D01*
X118308172Y-91910170D01*
X118269725Y-92103456D01*
X118269725Y-92103459D01*
X118269725Y-92300541D01*
X118269725Y-92300543D01*
X118269724Y-92300543D01*
X110110725Y-92300543D01*
X110110725Y-92300541D01*
X110110725Y-92103459D01*
X110110725Y-92103456D01*
X110072277Y-91910170D01*
X110072276Y-91910169D01*
X110072276Y-91910165D01*
X110072274Y-91910160D01*
X109996860Y-91728092D01*
X109996853Y-91728079D01*
X109887364Y-91564218D01*
X109887361Y-91564214D01*
X109748010Y-91424863D01*
X109748006Y-91424860D01*
X109584145Y-91315371D01*
X109584132Y-91315364D01*
X109402064Y-91239950D01*
X109402054Y-91239947D01*
X109208768Y-91201500D01*
X109208766Y-91201500D01*
X109011684Y-91201500D01*
X109011682Y-91201500D01*
X108818395Y-91239947D01*
X108818385Y-91239950D01*
X108636317Y-91315364D01*
X108636304Y-91315371D01*
X108472443Y-91424860D01*
X108472439Y-91424863D01*
X108333088Y-91564214D01*
X108333085Y-91564218D01*
X108223596Y-91728079D01*
X108223589Y-91728092D01*
X108148175Y-91910160D01*
X108148172Y-91910170D01*
X108109725Y-92103456D01*
X108109725Y-92103459D01*
X108109725Y-92300541D01*
X108109725Y-92300543D01*
X108109724Y-92300543D01*
X101000000Y-92300543D01*
X101000000Y-89976530D01*
X103949500Y-89976530D01*
X103949500Y-90183469D01*
X103989868Y-90386412D01*
X103989870Y-90386420D01*
X104069058Y-90577596D01*
X104184024Y-90749657D01*
X104330342Y-90895975D01*
X104330345Y-90895977D01*
X104502402Y-91010941D01*
X104693580Y-91090130D01*
X104896530Y-91130499D01*
X104896534Y-91130500D01*
X104896535Y-91130500D01*
X105103466Y-91130500D01*
X105103467Y-91130499D01*
X105306420Y-91090130D01*
X105497598Y-91010941D01*
X105669655Y-90895977D01*
X105815977Y-90749655D01*
X105930941Y-90577598D01*
X106010130Y-90386420D01*
X106050500Y-90183465D01*
X106050500Y-89976535D01*
X106010130Y-89773580D01*
X105930941Y-89582402D01*
X105815977Y-89410345D01*
X105815975Y-89410342D01*
X105669657Y-89264024D01*
X105583626Y-89206541D01*
X105497598Y-89149059D01*
X105417765Y-89115991D01*
X105306420Y-89069870D01*
X105306412Y-89069868D01*
X105103469Y-89029500D01*
X105103465Y-89029500D01*
X104896535Y-89029500D01*
X104896530Y-89029500D01*
X104693587Y-89069868D01*
X104693579Y-89069870D01*
X104502403Y-89149058D01*
X104330342Y-89264024D01*
X104184024Y-89410342D01*
X104069058Y-89582403D01*
X103989870Y-89773579D01*
X103989868Y-89773587D01*
X103949500Y-89976530D01*
X101000000Y-89976530D01*
X101000000Y-87436530D01*
X103949500Y-87436530D01*
X103949500Y-87643469D01*
X103989868Y-87846412D01*
X103989870Y-87846420D01*
X104045391Y-87980460D01*
X104069059Y-88037598D01*
X104113365Y-88103907D01*
X104184024Y-88209657D01*
X104330342Y-88355975D01*
X104330345Y-88355977D01*
X104502402Y-88470941D01*
X104693580Y-88550130D01*
X104896530Y-88590499D01*
X104896534Y-88590500D01*
X104896535Y-88590500D01*
X105103466Y-88590500D01*
X105103467Y-88590499D01*
X105306420Y-88550130D01*
X105497598Y-88470941D01*
X105669655Y-88355977D01*
X105815977Y-88209655D01*
X105930941Y-88037598D01*
X106010130Y-87846420D01*
X106050500Y-87643465D01*
X106050500Y-87436535D01*
X106010130Y-87233580D01*
X105930941Y-87042402D01*
X105815977Y-86870345D01*
X105815975Y-86870342D01*
X105669657Y-86724024D01*
X105528190Y-86629500D01*
X105497598Y-86609059D01*
X105306420Y-86529870D01*
X105306412Y-86529868D01*
X105103469Y-86489500D01*
X105103465Y-86489500D01*
X104896535Y-86489500D01*
X104896530Y-86489500D01*
X104693587Y-86529868D01*
X104693579Y-86529870D01*
X104502403Y-86609058D01*
X104330342Y-86724024D01*
X104184024Y-86870342D01*
X104069058Y-87042403D01*
X103989870Y-87233579D01*
X103989868Y-87233587D01*
X103949500Y-87436530D01*
X101000000Y-87436530D01*
X101000000Y-84896530D01*
X103949500Y-84896530D01*
X103949500Y-85103469D01*
X103989868Y-85306412D01*
X103989870Y-85306420D01*
X104069058Y-85497596D01*
X104184024Y-85669657D01*
X104330342Y-85815975D01*
X104330345Y-85815977D01*
X104502402Y-85930941D01*
X104693580Y-86010130D01*
X104896530Y-86050499D01*
X104896534Y-86050500D01*
X104896535Y-86050500D01*
X105103466Y-86050500D01*
X105103467Y-86050499D01*
X105306420Y-86010130D01*
X105497598Y-85930941D01*
X105669655Y-85815977D01*
X105815977Y-85669655D01*
X105930941Y-85497598D01*
X106010130Y-85306420D01*
X106050500Y-85103465D01*
X106050500Y-84896535D01*
X106010130Y-84693580D01*
X105930941Y-84502402D01*
X105815977Y-84330345D01*
X105815975Y-84330342D01*
X105669657Y-84184024D01*
X105583626Y-84126541D01*
X105497598Y-84069059D01*
X105306420Y-83989870D01*
X105306412Y-83989868D01*
X105103469Y-83949500D01*
X105103465Y-83949500D01*
X104896535Y-83949500D01*
X104896530Y-83949500D01*
X104693587Y-83989868D01*
X104693579Y-83989870D01*
X104502403Y-84069058D01*
X104330342Y-84184024D01*
X104184024Y-84330342D01*
X104069058Y-84502403D01*
X103989870Y-84693579D01*
X103989868Y-84693587D01*
X103949500Y-84896530D01*
X101000000Y-84896530D01*
X101000000Y-82356530D01*
X103949500Y-82356530D01*
X103949500Y-82563469D01*
X103987558Y-82754798D01*
X103989870Y-82766420D01*
X104069059Y-82957598D01*
X104087392Y-82985035D01*
X104184024Y-83129657D01*
X104330342Y-83275975D01*
X104330345Y-83275977D01*
X104502402Y-83390941D01*
X104693580Y-83470130D01*
X104896530Y-83510499D01*
X104896534Y-83510500D01*
X104896535Y-83510500D01*
X105103466Y-83510500D01*
X105103467Y-83510499D01*
X105306420Y-83470130D01*
X105497598Y-83390941D01*
X105537591Y-83364217D01*
X105559381Y-83353574D01*
X105559131Y-83353011D01*
X105909578Y-83197251D01*
X106429009Y-82966388D01*
X106450347Y-82963541D01*
X106470522Y-82956017D01*
X106484292Y-82959012D01*
X106498262Y-82957149D01*
X106517756Y-82966292D01*
X106538795Y-82970869D01*
X106557719Y-82985035D01*
X106561519Y-82986818D01*
X106567049Y-82992020D01*
X106663181Y-83088152D01*
X106696666Y-83149475D01*
X106699500Y-83175833D01*
X106699500Y-89039562D01*
X106707621Y-89069868D01*
X106719979Y-89115991D01*
X106719981Y-89115994D01*
X106739070Y-89149056D01*
X106739073Y-89149060D01*
X106759537Y-89184507D01*
X106759539Y-89184510D01*
X106759540Y-89184511D01*
X107815489Y-90240460D01*
X107874829Y-90274720D01*
X107884008Y-90280020D01*
X107884012Y-90280022D01*
X107960438Y-90300500D01*
X107960440Y-90300500D01*
X137779560Y-90300500D01*
X137779562Y-90300500D01*
X137855989Y-90280021D01*
X137924511Y-90240460D01*
X137980460Y-90184511D01*
X139505248Y-88659721D01*
X139566569Y-88626238D01*
X139636260Y-88631222D01*
X139640380Y-88632843D01*
X139719249Y-88665512D01*
X139905197Y-88702499D01*
X139905201Y-88702500D01*
X139905202Y-88702500D01*
X140094799Y-88702500D01*
X140094800Y-88702499D01*
X140280751Y-88665512D01*
X140455915Y-88592956D01*
X140613558Y-88487622D01*
X140747622Y-88353558D01*
X140852956Y-88195915D01*
X140925512Y-88020751D01*
X140962500Y-87834798D01*
X140962500Y-87645202D01*
X140925512Y-87459249D01*
X140852956Y-87284085D01*
X140767425Y-87156079D01*
X140747622Y-87126441D01*
X140613558Y-86992377D01*
X140455912Y-86887042D01*
X140280751Y-86814488D01*
X140280743Y-86814486D01*
X140094802Y-86777500D01*
X140094798Y-86777500D01*
X139905202Y-86777500D01*
X139905197Y-86777500D01*
X139719256Y-86814486D01*
X139719248Y-86814488D01*
X139544087Y-86887042D01*
X139386441Y-86992377D01*
X139252377Y-87126441D01*
X139147042Y-87284087D01*
X139074488Y-87459248D01*
X139074486Y-87459256D01*
X139037500Y-87645197D01*
X139037500Y-87834802D01*
X139074343Y-88020022D01*
X139074488Y-88020751D01*
X139081465Y-88037596D01*
X139107156Y-88099617D01*
X139114625Y-88169086D01*
X139083350Y-88231565D01*
X139080276Y-88234751D01*
X137651848Y-89663181D01*
X137590525Y-89696666D01*
X137564167Y-89699500D01*
X108175833Y-89699500D01*
X108108794Y-89679815D01*
X108088152Y-89663181D01*
X107336819Y-88911848D01*
X107303334Y-88850525D01*
X107300500Y-88824167D01*
X107300500Y-87728543D01*
X107965499Y-87728543D01*
X108003947Y-87921829D01*
X108003950Y-87921839D01*
X108079364Y-88103907D01*
X108079371Y-88103920D01*
X108188860Y-88267781D01*
X108188863Y-88267785D01*
X108328214Y-88407136D01*
X108328218Y-88407139D01*
X108492079Y-88516628D01*
X108492092Y-88516635D01*
X108674160Y-88592049D01*
X108674165Y-88592051D01*
X108674169Y-88592051D01*
X108674170Y-88592052D01*
X108867456Y-88630500D01*
X108867459Y-88630500D01*
X109064543Y-88630500D01*
X109212162Y-88601136D01*
X109257835Y-88592051D01*
X109439914Y-88516632D01*
X109603782Y-88407139D01*
X109743139Y-88267782D01*
X109852632Y-88103914D01*
X109928051Y-87921835D01*
X109966500Y-87728543D01*
X118125499Y-87728543D01*
X118163947Y-87921829D01*
X118163950Y-87921839D01*
X118239364Y-88103907D01*
X118239371Y-88103920D01*
X118348860Y-88267781D01*
X118348863Y-88267785D01*
X118488214Y-88407136D01*
X118488218Y-88407139D01*
X118652079Y-88516628D01*
X118652092Y-88516635D01*
X118834160Y-88592049D01*
X118834165Y-88592051D01*
X118834169Y-88592051D01*
X118834170Y-88592052D01*
X119027456Y-88630500D01*
X119027459Y-88630500D01*
X119224543Y-88630500D01*
X119372162Y-88601136D01*
X119417835Y-88592051D01*
X119599914Y-88516632D01*
X119763782Y-88407139D01*
X119903139Y-88267782D01*
X120012632Y-88103914D01*
X120088051Y-87921835D01*
X120126500Y-87728541D01*
X120126500Y-87531459D01*
X120126500Y-87531456D01*
X120088052Y-87338170D01*
X120088051Y-87338169D01*
X120088051Y-87338165D01*
X120088049Y-87338160D01*
X120012635Y-87156092D01*
X120012628Y-87156079D01*
X119903139Y-86992218D01*
X119903136Y-86992214D01*
X119763785Y-86852863D01*
X119763781Y-86852860D01*
X119599920Y-86743371D01*
X119599907Y-86743364D01*
X119417839Y-86667950D01*
X119417829Y-86667947D01*
X119224543Y-86629500D01*
X119224541Y-86629500D01*
X119027459Y-86629500D01*
X119027457Y-86629500D01*
X118834170Y-86667947D01*
X118834160Y-86667950D01*
X118652092Y-86743364D01*
X118652079Y-86743371D01*
X118488218Y-86852860D01*
X118488214Y-86852863D01*
X118348863Y-86992214D01*
X118348860Y-86992218D01*
X118239371Y-87156079D01*
X118239364Y-87156092D01*
X118163950Y-87338160D01*
X118163947Y-87338170D01*
X118125500Y-87531456D01*
X118125500Y-87531459D01*
X118125500Y-87728541D01*
X118125500Y-87728543D01*
X118125499Y-87728543D01*
X109966500Y-87728543D01*
X109966500Y-87728541D01*
X109966500Y-87531459D01*
X109966500Y-87531456D01*
X109928052Y-87338170D01*
X109928051Y-87338169D01*
X109928051Y-87338165D01*
X109928049Y-87338160D01*
X109852635Y-87156092D01*
X109852628Y-87156079D01*
X109743139Y-86992218D01*
X109743136Y-86992214D01*
X109603785Y-86852863D01*
X109603781Y-86852860D01*
X109439920Y-86743371D01*
X109439907Y-86743364D01*
X109257839Y-86667950D01*
X109257829Y-86667947D01*
X109064543Y-86629500D01*
X109064541Y-86629500D01*
X108867459Y-86629500D01*
X108867457Y-86629500D01*
X108674170Y-86667947D01*
X108674160Y-86667950D01*
X108492092Y-86743364D01*
X108492079Y-86743371D01*
X108328218Y-86852860D01*
X108328214Y-86852863D01*
X108188863Y-86992214D01*
X108188860Y-86992218D01*
X108079371Y-87156079D01*
X108079364Y-87156092D01*
X108003950Y-87338160D01*
X108003947Y-87338170D01*
X107965500Y-87531456D01*
X107965500Y-87531459D01*
X107965500Y-87728541D01*
X107965500Y-87728543D01*
X107965499Y-87728543D01*
X107300500Y-87728543D01*
X107300500Y-82960439D01*
X107299738Y-82957596D01*
X107280021Y-82884011D01*
X107280017Y-82884004D01*
X107240464Y-82815495D01*
X107240458Y-82815487D01*
X106644510Y-82219539D01*
X106627559Y-82209753D01*
X106617742Y-82204085D01*
X106575989Y-82179979D01*
X106499562Y-82159500D01*
X106486042Y-82159500D01*
X106465910Y-82152351D01*
X106454216Y-82143882D01*
X106440365Y-82139815D01*
X106439730Y-82139404D01*
X105594247Y-81587489D01*
X105594244Y-81587488D01*
X105594243Y-81587487D01*
X105594240Y-81587485D01*
X105582637Y-81582784D01*
X105560310Y-81570961D01*
X105497604Y-81529062D01*
X105497595Y-81529057D01*
X105306420Y-81449870D01*
X105306412Y-81449868D01*
X105103469Y-81409500D01*
X105103465Y-81409500D01*
X104896535Y-81409500D01*
X104896530Y-81409500D01*
X104693587Y-81449868D01*
X104693579Y-81449870D01*
X104502403Y-81529058D01*
X104330342Y-81644024D01*
X104184024Y-81790342D01*
X104069058Y-81962403D01*
X103989870Y-82153579D01*
X103989868Y-82153587D01*
X103949500Y-82356530D01*
X101000000Y-82356530D01*
X101000000Y-79816530D01*
X103949500Y-79816530D01*
X103949500Y-80023469D01*
X103989868Y-80226412D01*
X103989870Y-80226420D01*
X104069058Y-80417596D01*
X104184024Y-80589657D01*
X104330342Y-80735975D01*
X104330345Y-80735977D01*
X104502402Y-80850941D01*
X104693580Y-80930130D01*
X104896530Y-80970499D01*
X104896534Y-80970500D01*
X104896535Y-80970500D01*
X105103466Y-80970500D01*
X105103467Y-80970499D01*
X105306420Y-80930130D01*
X105497598Y-80850941D01*
X105669655Y-80735977D01*
X105815977Y-80589655D01*
X105930941Y-80417598D01*
X106010130Y-80226420D01*
X106033577Y-80108543D01*
X108109724Y-80108543D01*
X108148172Y-80301829D01*
X108148175Y-80301839D01*
X108223589Y-80483907D01*
X108223596Y-80483920D01*
X108333085Y-80647781D01*
X108333088Y-80647785D01*
X108472439Y-80787136D01*
X108472443Y-80787139D01*
X108636304Y-80896628D01*
X108636317Y-80896635D01*
X108818385Y-80972049D01*
X108818390Y-80972051D01*
X108818394Y-80972051D01*
X108818395Y-80972052D01*
X109011681Y-81010500D01*
X109011684Y-81010500D01*
X109208768Y-81010500D01*
X109338807Y-80984632D01*
X109402060Y-80972051D01*
X109584139Y-80896632D01*
X109748007Y-80787139D01*
X109887364Y-80647782D01*
X109996857Y-80483914D01*
X110072276Y-80301835D01*
X110110725Y-80108543D01*
X118269724Y-80108543D01*
X118308172Y-80301829D01*
X118308175Y-80301839D01*
X118383589Y-80483906D01*
X118383595Y-80483917D01*
X118410420Y-80524064D01*
X118422087Y-80549693D01*
X118423329Y-80549223D01*
X118425487Y-80554920D01*
X118425488Y-80554922D01*
X118425489Y-80554925D01*
X118956825Y-81626828D01*
X118969725Y-81681898D01*
X118969725Y-84731787D01*
X118990204Y-84808214D01*
X119026334Y-84870794D01*
X119026336Y-84870797D01*
X119026335Y-84870797D01*
X119029575Y-84876407D01*
X119029765Y-84876736D01*
X122133489Y-87980460D01*
X122202012Y-88020022D01*
X122278438Y-88040500D01*
X122357562Y-88040500D01*
X123759814Y-88040500D01*
X123826853Y-88060185D01*
X123872608Y-88112989D01*
X123874375Y-88117047D01*
X123907042Y-88195912D01*
X124012377Y-88353558D01*
X124146441Y-88487622D01*
X124239993Y-88550131D01*
X124304085Y-88592956D01*
X124479249Y-88665512D01*
X124665197Y-88702499D01*
X124665201Y-88702500D01*
X124665202Y-88702500D01*
X124854799Y-88702500D01*
X124854800Y-88702499D01*
X125040751Y-88665512D01*
X125215915Y-88592956D01*
X125373558Y-88487622D01*
X125507622Y-88353558D01*
X125612956Y-88195915D01*
X125685512Y-88020751D01*
X125722500Y-87834798D01*
X125722500Y-87645202D01*
X125685512Y-87459249D01*
X125612956Y-87284085D01*
X125527425Y-87156079D01*
X125507622Y-87126441D01*
X125373558Y-86992377D01*
X125215912Y-86887042D01*
X125040751Y-86814488D01*
X125040743Y-86814486D01*
X124854802Y-86777500D01*
X124854798Y-86777500D01*
X124665202Y-86777500D01*
X124665197Y-86777500D01*
X124479256Y-86814486D01*
X124479248Y-86814488D01*
X124304087Y-86887042D01*
X124146441Y-86992377D01*
X124012377Y-87126441D01*
X123907042Y-87284087D01*
X123874375Y-87362953D01*
X123830533Y-87417357D01*
X123764239Y-87439421D01*
X123759814Y-87439500D01*
X122493833Y-87439500D01*
X122426794Y-87419815D01*
X122406152Y-87403181D01*
X120108168Y-85105197D01*
X123797500Y-85105197D01*
X123797500Y-85294802D01*
X123834486Y-85480743D01*
X123834488Y-85480751D01*
X123907042Y-85655912D01*
X124012377Y-85813558D01*
X124146441Y-85947622D01*
X124239993Y-86010131D01*
X124304085Y-86052956D01*
X124479249Y-86125512D01*
X124665197Y-86162499D01*
X124665201Y-86162500D01*
X124665202Y-86162500D01*
X124854799Y-86162500D01*
X124854800Y-86162499D01*
X125040751Y-86125512D01*
X125215915Y-86052956D01*
X125373558Y-85947622D01*
X125507622Y-85813558D01*
X125612956Y-85655915D01*
X125685512Y-85480751D01*
X125722500Y-85294798D01*
X125722500Y-85105202D01*
X125722499Y-85105197D01*
X139037500Y-85105197D01*
X139037500Y-85294802D01*
X139074486Y-85480743D01*
X139074488Y-85480751D01*
X139147042Y-85655912D01*
X139252377Y-85813558D01*
X139386441Y-85947622D01*
X139479993Y-86010131D01*
X139544085Y-86052956D01*
X139719249Y-86125512D01*
X139905197Y-86162499D01*
X139905201Y-86162500D01*
X139905202Y-86162500D01*
X140094799Y-86162500D01*
X140094800Y-86162499D01*
X140280751Y-86125512D01*
X140455915Y-86052956D01*
X140613558Y-85947622D01*
X140747622Y-85813558D01*
X140852956Y-85655915D01*
X140925512Y-85480751D01*
X140962500Y-85294798D01*
X140962500Y-85105202D01*
X140925512Y-84919249D01*
X140852956Y-84744085D01*
X140759403Y-84604073D01*
X140747622Y-84586441D01*
X140613558Y-84452377D01*
X140455912Y-84347042D01*
X140280751Y-84274488D01*
X140280743Y-84274486D01*
X140094802Y-84237500D01*
X140094798Y-84237500D01*
X139905202Y-84237500D01*
X139905197Y-84237500D01*
X139719256Y-84274486D01*
X139719248Y-84274488D01*
X139544087Y-84347042D01*
X139386441Y-84452377D01*
X139252377Y-84586441D01*
X139147042Y-84744087D01*
X139074488Y-84919248D01*
X139074486Y-84919256D01*
X139037500Y-85105197D01*
X125722499Y-85105197D01*
X125685512Y-84919249D01*
X125612956Y-84744085D01*
X125519403Y-84604073D01*
X125507622Y-84586441D01*
X125373558Y-84452377D01*
X125215912Y-84347042D01*
X125040751Y-84274488D01*
X125040743Y-84274486D01*
X124854802Y-84237500D01*
X124854798Y-84237500D01*
X124665202Y-84237500D01*
X124665197Y-84237500D01*
X124479256Y-84274486D01*
X124479248Y-84274488D01*
X124304087Y-84347042D01*
X124146441Y-84452377D01*
X124012377Y-84586441D01*
X123907042Y-84744087D01*
X123834488Y-84919248D01*
X123834486Y-84919256D01*
X123797500Y-85105197D01*
X120108168Y-85105197D01*
X119607044Y-84604073D01*
X119573559Y-84542750D01*
X119570725Y-84516392D01*
X119570725Y-82565197D01*
X123797500Y-82565197D01*
X123797500Y-82754802D01*
X123834486Y-82940743D01*
X123834488Y-82940751D01*
X123907042Y-83115912D01*
X124012377Y-83273558D01*
X124146441Y-83407622D01*
X124239993Y-83470131D01*
X124304085Y-83512956D01*
X124479249Y-83585512D01*
X124665197Y-83622499D01*
X124665201Y-83622500D01*
X124665202Y-83622500D01*
X124854799Y-83622500D01*
X124854800Y-83622499D01*
X125040751Y-83585512D01*
X125215915Y-83512956D01*
X125373558Y-83407622D01*
X125507622Y-83273558D01*
X125612956Y-83115915D01*
X125685512Y-82940751D01*
X125722500Y-82754798D01*
X125722500Y-82565202D01*
X125722499Y-82565197D01*
X139037500Y-82565197D01*
X139037500Y-82754802D01*
X139074486Y-82940743D01*
X139074488Y-82940751D01*
X139147042Y-83115912D01*
X139252377Y-83273558D01*
X139386441Y-83407622D01*
X139479993Y-83470131D01*
X139544085Y-83512956D01*
X139719249Y-83585512D01*
X139905197Y-83622499D01*
X139905201Y-83622500D01*
X139905202Y-83622500D01*
X140094799Y-83622500D01*
X140094800Y-83622499D01*
X140280751Y-83585512D01*
X140455915Y-83512956D01*
X140613558Y-83407622D01*
X140747622Y-83273558D01*
X140852956Y-83115915D01*
X140925512Y-82940751D01*
X140962500Y-82754798D01*
X140962500Y-82565202D01*
X140925512Y-82379249D01*
X140852956Y-82204085D01*
X140809691Y-82139335D01*
X140747622Y-82046441D01*
X140613558Y-81912377D01*
X140455912Y-81807042D01*
X140280751Y-81734488D01*
X140280743Y-81734486D01*
X140094802Y-81697500D01*
X140094798Y-81697500D01*
X139905202Y-81697500D01*
X139905197Y-81697500D01*
X139719256Y-81734486D01*
X139719248Y-81734488D01*
X139544087Y-81807042D01*
X139386441Y-81912377D01*
X139252377Y-82046441D01*
X139147042Y-82204087D01*
X139074488Y-82379248D01*
X139074486Y-82379256D01*
X139037500Y-82565197D01*
X125722499Y-82565197D01*
X125685512Y-82379249D01*
X125612956Y-82204085D01*
X125569691Y-82139335D01*
X125507622Y-82046441D01*
X125373558Y-81912377D01*
X125215912Y-81807042D01*
X125040751Y-81734488D01*
X125040743Y-81734486D01*
X124854802Y-81697500D01*
X124854798Y-81697500D01*
X124665202Y-81697500D01*
X124665197Y-81697500D01*
X124479256Y-81734486D01*
X124479248Y-81734488D01*
X124304087Y-81807042D01*
X124146441Y-81912377D01*
X124012377Y-82046441D01*
X123907042Y-82204087D01*
X123834488Y-82379248D01*
X123834486Y-82379256D01*
X123797500Y-82565197D01*
X119570725Y-82565197D01*
X119570725Y-81681898D01*
X119583625Y-81626827D01*
X119607819Y-81578019D01*
X120114960Y-80554924D01*
X120114961Y-80554920D01*
X120116838Y-80550198D01*
X120117457Y-80550444D01*
X120129784Y-80524429D01*
X120156857Y-80483914D01*
X120232276Y-80301835D01*
X120270725Y-80108541D01*
X120270725Y-80025197D01*
X123797500Y-80025197D01*
X123797500Y-80214802D01*
X123834486Y-80400743D01*
X123834488Y-80400751D01*
X123907042Y-80575912D01*
X124012377Y-80733558D01*
X124146441Y-80867622D01*
X124239993Y-80930131D01*
X124304085Y-80972956D01*
X124479249Y-81045512D01*
X124665197Y-81082499D01*
X124665201Y-81082500D01*
X124665202Y-81082500D01*
X124854799Y-81082500D01*
X124854800Y-81082499D01*
X125040751Y-81045512D01*
X125215915Y-80972956D01*
X125373558Y-80867622D01*
X125507622Y-80733558D01*
X125612956Y-80575915D01*
X125685512Y-80400751D01*
X125722500Y-80214798D01*
X125722500Y-80025202D01*
X125722499Y-80025197D01*
X139037500Y-80025197D01*
X139037500Y-80214802D01*
X139074486Y-80400743D01*
X139074488Y-80400751D01*
X139147042Y-80575912D01*
X139252377Y-80733558D01*
X139386441Y-80867622D01*
X139479993Y-80930131D01*
X139544085Y-80972956D01*
X139719249Y-81045512D01*
X139905197Y-81082499D01*
X139905201Y-81082500D01*
X139905202Y-81082500D01*
X140094799Y-81082500D01*
X140094800Y-81082499D01*
X140280751Y-81045512D01*
X140455915Y-80972956D01*
X140613558Y-80867622D01*
X140747622Y-80733558D01*
X140852956Y-80575915D01*
X140925512Y-80400751D01*
X140962500Y-80214798D01*
X140962500Y-80025202D01*
X140925512Y-79839249D01*
X140852956Y-79664085D01*
X140767425Y-79536079D01*
X140747622Y-79506441D01*
X140613558Y-79372377D01*
X140455912Y-79267042D01*
X140280751Y-79194488D01*
X140280743Y-79194486D01*
X140094802Y-79157500D01*
X140094798Y-79157500D01*
X139905202Y-79157500D01*
X139905197Y-79157500D01*
X139719256Y-79194486D01*
X139719248Y-79194488D01*
X139544087Y-79267042D01*
X139386441Y-79372377D01*
X139252377Y-79506441D01*
X139147042Y-79664087D01*
X139074488Y-79839248D01*
X139074486Y-79839256D01*
X139037500Y-80025197D01*
X125722499Y-80025197D01*
X125685512Y-79839249D01*
X125612956Y-79664085D01*
X125527425Y-79536079D01*
X125507622Y-79506441D01*
X125373558Y-79372377D01*
X125215912Y-79267042D01*
X125040751Y-79194488D01*
X125040743Y-79194486D01*
X124854802Y-79157500D01*
X124854798Y-79157500D01*
X124665202Y-79157500D01*
X124665197Y-79157500D01*
X124479256Y-79194486D01*
X124479248Y-79194488D01*
X124304087Y-79267042D01*
X124146441Y-79372377D01*
X124012377Y-79506441D01*
X123907042Y-79664087D01*
X123834488Y-79839248D01*
X123834486Y-79839256D01*
X123797500Y-80025197D01*
X120270725Y-80025197D01*
X120270725Y-79911459D01*
X120270725Y-79911456D01*
X120232277Y-79718170D01*
X120232276Y-79718169D01*
X120232276Y-79718165D01*
X120232274Y-79718160D01*
X120156860Y-79536092D01*
X120156853Y-79536079D01*
X120047364Y-79372218D01*
X120047361Y-79372214D01*
X119908010Y-79232863D01*
X119908006Y-79232860D01*
X119744145Y-79123371D01*
X119744132Y-79123364D01*
X119562064Y-79047950D01*
X119562054Y-79047947D01*
X119368768Y-79009500D01*
X119368766Y-79009500D01*
X119171684Y-79009500D01*
X119171682Y-79009500D01*
X118978395Y-79047947D01*
X118978385Y-79047950D01*
X118796317Y-79123364D01*
X118796304Y-79123371D01*
X118632443Y-79232860D01*
X118632439Y-79232863D01*
X118493088Y-79372214D01*
X118493085Y-79372218D01*
X118383596Y-79536079D01*
X118383589Y-79536092D01*
X118308175Y-79718160D01*
X118308172Y-79718170D01*
X118269725Y-79911456D01*
X118269725Y-79911459D01*
X118269725Y-80108541D01*
X118269725Y-80108543D01*
X118269724Y-80108543D01*
X110110725Y-80108543D01*
X110110725Y-80108541D01*
X110110725Y-79911459D01*
X110110725Y-79911456D01*
X110072277Y-79718170D01*
X110072276Y-79718169D01*
X110072276Y-79718165D01*
X110072274Y-79718160D01*
X109996860Y-79536092D01*
X109996853Y-79536079D01*
X109887364Y-79372218D01*
X109887361Y-79372214D01*
X109748010Y-79232863D01*
X109748006Y-79232860D01*
X109584145Y-79123371D01*
X109584132Y-79123364D01*
X109402064Y-79047950D01*
X109402054Y-79047947D01*
X109208768Y-79009500D01*
X109208766Y-79009500D01*
X109011684Y-79009500D01*
X109011682Y-79009500D01*
X108818395Y-79047947D01*
X108818385Y-79047950D01*
X108636317Y-79123364D01*
X108636304Y-79123371D01*
X108472443Y-79232860D01*
X108472439Y-79232863D01*
X108333088Y-79372214D01*
X108333085Y-79372218D01*
X108223596Y-79536079D01*
X108223589Y-79536092D01*
X108148175Y-79718160D01*
X108148172Y-79718170D01*
X108109725Y-79911456D01*
X108109725Y-79911459D01*
X108109725Y-80108541D01*
X108109725Y-80108543D01*
X108109724Y-80108543D01*
X106033577Y-80108543D01*
X106050500Y-80023465D01*
X106050500Y-79816535D01*
X106010130Y-79613580D01*
X105930941Y-79422402D01*
X105815977Y-79250345D01*
X105815975Y-79250342D01*
X105669657Y-79104024D01*
X105528190Y-79009500D01*
X105497598Y-78989059D01*
X105306420Y-78909870D01*
X105306412Y-78909868D01*
X105103469Y-78869500D01*
X105103465Y-78869500D01*
X104896535Y-78869500D01*
X104896530Y-78869500D01*
X104693587Y-78909868D01*
X104693579Y-78909870D01*
X104502403Y-78989058D01*
X104330342Y-79104024D01*
X104184024Y-79250342D01*
X104069058Y-79422403D01*
X103989870Y-79613579D01*
X103989868Y-79613587D01*
X103949500Y-79816530D01*
X101000000Y-79816530D01*
X101000000Y-73942155D01*
X103650000Y-73942155D01*
X103650000Y-74590000D01*
X104566988Y-74590000D01*
X104534075Y-74647007D01*
X104500000Y-74774174D01*
X104500000Y-74905826D01*
X104534075Y-75032993D01*
X104566988Y-75090000D01*
X103650000Y-75090000D01*
X103650000Y-75737844D01*
X103656401Y-75797372D01*
X103656403Y-75797379D01*
X103706645Y-75932086D01*
X103706649Y-75932093D01*
X103792809Y-76047187D01*
X103792812Y-76047190D01*
X103907906Y-76133350D01*
X103907913Y-76133354D01*
X104042620Y-76183596D01*
X104042627Y-76183598D01*
X104102155Y-76189999D01*
X104102172Y-76190000D01*
X104504435Y-76190000D01*
X104571474Y-76209685D01*
X104617229Y-76262489D01*
X104627173Y-76331647D01*
X104598148Y-76395203D01*
X104551888Y-76428561D01*
X104502403Y-76449058D01*
X104330342Y-76564024D01*
X104184024Y-76710342D01*
X104069058Y-76882403D01*
X103989870Y-77073579D01*
X103989868Y-77073587D01*
X103949500Y-77276530D01*
X103949500Y-77483469D01*
X103987558Y-77674798D01*
X103989870Y-77686420D01*
X104069059Y-77877598D01*
X104100006Y-77923914D01*
X104184024Y-78049657D01*
X104330342Y-78195975D01*
X104330345Y-78195977D01*
X104502402Y-78310941D01*
X104693580Y-78390130D01*
X104896530Y-78430499D01*
X104896534Y-78430500D01*
X104896535Y-78430500D01*
X105103466Y-78430500D01*
X105103467Y-78430499D01*
X105306420Y-78390130D01*
X105497598Y-78310941D01*
X105669655Y-78195977D01*
X105815977Y-78049655D01*
X105930941Y-77877598D01*
X106010130Y-77686420D01*
X106050155Y-77485197D01*
X123797500Y-77485197D01*
X123797500Y-77674802D01*
X123834486Y-77860743D01*
X123834488Y-77860751D01*
X123907042Y-78035912D01*
X124012377Y-78193558D01*
X124146441Y-78327622D01*
X124239993Y-78390131D01*
X124304085Y-78432956D01*
X124479249Y-78505512D01*
X124665197Y-78542499D01*
X124665201Y-78542500D01*
X124665202Y-78542500D01*
X124854799Y-78542500D01*
X124854800Y-78542499D01*
X125040751Y-78505512D01*
X125215915Y-78432956D01*
X125373558Y-78327622D01*
X125507622Y-78193558D01*
X125612956Y-78035915D01*
X125685512Y-77860751D01*
X125722500Y-77674798D01*
X125722500Y-77485202D01*
X125722499Y-77485197D01*
X139037500Y-77485197D01*
X139037500Y-77674802D01*
X139074486Y-77860743D01*
X139074488Y-77860751D01*
X139147042Y-78035912D01*
X139252377Y-78193558D01*
X139386441Y-78327622D01*
X139479993Y-78390131D01*
X139544085Y-78432956D01*
X139719249Y-78505512D01*
X139905197Y-78542499D01*
X139905201Y-78542500D01*
X139905202Y-78542500D01*
X140094799Y-78542500D01*
X140094800Y-78542499D01*
X140280751Y-78505512D01*
X140455915Y-78432956D01*
X140613558Y-78327622D01*
X140747622Y-78193558D01*
X140852956Y-78035915D01*
X140925512Y-77860751D01*
X140962500Y-77674798D01*
X140962500Y-77485202D01*
X140962154Y-77483465D01*
X140939498Y-77369558D01*
X140925513Y-77299256D01*
X140925512Y-77299249D01*
X140852956Y-77124085D01*
X140817686Y-77071300D01*
X140747622Y-76966441D01*
X140613558Y-76832377D01*
X140455912Y-76727042D01*
X140280751Y-76654488D01*
X140280743Y-76654486D01*
X140094802Y-76617500D01*
X140094798Y-76617500D01*
X139905202Y-76617500D01*
X139905197Y-76617500D01*
X139719256Y-76654486D01*
X139719248Y-76654488D01*
X139544087Y-76727042D01*
X139386441Y-76832377D01*
X139252377Y-76966441D01*
X139147042Y-77124087D01*
X139074488Y-77299248D01*
X139074486Y-77299256D01*
X139037500Y-77485197D01*
X125722499Y-77485197D01*
X125685512Y-77299249D01*
X125612956Y-77124085D01*
X125577686Y-77071300D01*
X125507622Y-76966441D01*
X125373558Y-76832377D01*
X125215912Y-76727042D01*
X125040751Y-76654488D01*
X125040743Y-76654486D01*
X124854802Y-76617500D01*
X124854798Y-76617500D01*
X124665202Y-76617500D01*
X124665197Y-76617500D01*
X124479256Y-76654486D01*
X124479248Y-76654488D01*
X124304087Y-76727042D01*
X124146441Y-76832377D01*
X124012377Y-76966441D01*
X123907042Y-77124087D01*
X123834488Y-77299248D01*
X123834486Y-77299256D01*
X123797500Y-77485197D01*
X106050155Y-77485197D01*
X106050500Y-77483465D01*
X106050500Y-77276535D01*
X106010130Y-77073580D01*
X105930941Y-76882402D01*
X105815977Y-76710345D01*
X105815975Y-76710342D01*
X105669657Y-76564024D01*
X105514812Y-76460561D01*
X105497598Y-76449059D01*
X105493781Y-76447478D01*
X105448112Y-76428561D01*
X105393709Y-76384720D01*
X105371644Y-76318426D01*
X105388923Y-76250726D01*
X105440061Y-76203116D01*
X105495565Y-76190000D01*
X105897828Y-76190000D01*
X105897844Y-76189999D01*
X105957372Y-76183598D01*
X105957379Y-76183596D01*
X106092086Y-76133354D01*
X106092093Y-76133350D01*
X106207187Y-76047190D01*
X106207190Y-76047187D01*
X106293350Y-75932093D01*
X106293354Y-75932086D01*
X106343596Y-75797379D01*
X106343598Y-75797372D01*
X106349999Y-75737844D01*
X106350000Y-75737827D01*
X106350000Y-75090000D01*
X105433012Y-75090000D01*
X105465925Y-75032993D01*
X105489450Y-74945197D01*
X123797500Y-74945197D01*
X123797500Y-75134802D01*
X123834486Y-75320743D01*
X123834488Y-75320751D01*
X123907042Y-75495912D01*
X124012377Y-75653558D01*
X124146441Y-75787622D01*
X124251300Y-75857686D01*
X124304085Y-75892956D01*
X124479249Y-75965512D01*
X124665197Y-76002499D01*
X124665201Y-76002500D01*
X124665202Y-76002500D01*
X124854799Y-76002500D01*
X124854800Y-76002499D01*
X125040751Y-75965512D01*
X125215915Y-75892956D01*
X125373558Y-75787622D01*
X125507622Y-75653558D01*
X125612956Y-75495915D01*
X125685512Y-75320751D01*
X125722500Y-75134798D01*
X125722500Y-74945202D01*
X125722500Y-74945199D01*
X125721601Y-74940678D01*
X138738000Y-74940678D01*
X138738000Y-75139321D01*
X138769075Y-75335520D01*
X138769075Y-75335523D01*
X138830457Y-75524437D01*
X138920641Y-75701432D01*
X138947730Y-75738715D01*
X138947731Y-75738716D01*
X139562352Y-75124094D01*
X139585792Y-75211571D01*
X139644311Y-75312930D01*
X139727070Y-75395689D01*
X139828429Y-75454208D01*
X139915905Y-75477647D01*
X139301283Y-76092268D01*
X139301283Y-76092269D01*
X139338567Y-76119358D01*
X139515562Y-76209542D01*
X139704477Y-76270924D01*
X139900679Y-76302000D01*
X140099321Y-76302000D01*
X140295520Y-76270924D01*
X140295523Y-76270924D01*
X140484437Y-76209542D01*
X140661425Y-76119362D01*
X140698716Y-76092268D01*
X140084095Y-75477647D01*
X140171571Y-75454208D01*
X140272930Y-75395689D01*
X140355689Y-75312930D01*
X140414208Y-75211571D01*
X140437647Y-75124094D01*
X141052268Y-75738715D01*
X141079362Y-75701425D01*
X141169542Y-75524437D01*
X141230924Y-75335523D01*
X141230924Y-75335520D01*
X141262000Y-75139321D01*
X141262000Y-74940679D01*
X141249572Y-74862214D01*
X141247270Y-74847682D01*
X145004000Y-74847682D01*
X145004000Y-75052317D01*
X145036009Y-75254417D01*
X145099244Y-75449031D01*
X145192141Y-75631350D01*
X145192147Y-75631359D01*
X145224523Y-75675921D01*
X145224524Y-75675922D01*
X145904000Y-74996446D01*
X145904000Y-75002661D01*
X145931259Y-75104394D01*
X145983920Y-75195606D01*
X146058394Y-75270080D01*
X146149606Y-75322741D01*
X146251339Y-75350000D01*
X146257553Y-75350000D01*
X145578076Y-76029474D01*
X145622650Y-76061859D01*
X145804968Y-76154755D01*
X145999576Y-76217988D01*
X146076317Y-76230142D01*
X146139452Y-76260071D01*
X146176384Y-76319383D01*
X146175386Y-76389245D01*
X146136777Y-76447478D01*
X146081113Y-76474233D01*
X146012169Y-76487947D01*
X146012160Y-76487950D01*
X145830092Y-76563364D01*
X145830079Y-76563371D01*
X145666218Y-76672860D01*
X145666214Y-76672863D01*
X145526863Y-76812214D01*
X145526860Y-76812218D01*
X145417371Y-76976079D01*
X145417364Y-76976092D01*
X145341950Y-77158160D01*
X145341947Y-77158170D01*
X145303500Y-77351456D01*
X145303500Y-77351459D01*
X145303500Y-77548541D01*
X145303500Y-77548543D01*
X145303499Y-77548543D01*
X145341947Y-77741829D01*
X145341950Y-77741839D01*
X145417364Y-77923907D01*
X145417371Y-77923920D01*
X145526860Y-78087781D01*
X145526863Y-78087785D01*
X145666214Y-78227136D01*
X145666218Y-78227139D01*
X145830079Y-78336628D01*
X145830092Y-78336635D01*
X145996622Y-78405613D01*
X146012165Y-78412051D01*
X146012169Y-78412051D01*
X146012170Y-78412052D01*
X146205456Y-78450500D01*
X146205459Y-78450500D01*
X146402543Y-78450500D01*
X146532582Y-78424632D01*
X146595835Y-78412051D01*
X146777914Y-78336632D01*
X146941782Y-78227139D01*
X147081139Y-78087782D01*
X147190632Y-77923914D01*
X147266051Y-77741835D01*
X147304500Y-77548541D01*
X147304500Y-77351459D01*
X147304500Y-77351456D01*
X147266052Y-77158170D01*
X147266051Y-77158169D01*
X147266051Y-77158165D01*
X147231015Y-77073579D01*
X147190635Y-76976092D01*
X147190628Y-76976079D01*
X147081139Y-76812218D01*
X147081136Y-76812214D01*
X146941784Y-76672862D01*
X146777920Y-76563371D01*
X146777907Y-76563364D01*
X146595839Y-76487950D01*
X146595830Y-76487947D01*
X146526886Y-76474233D01*
X146464976Y-76441847D01*
X146430402Y-76381131D01*
X146434143Y-76311361D01*
X146475010Y-76254690D01*
X146531682Y-76230142D01*
X146608423Y-76217988D01*
X146803031Y-76154755D01*
X146985349Y-76061859D01*
X147029921Y-76029474D01*
X146350447Y-75350000D01*
X146356661Y-75350000D01*
X146458394Y-75322741D01*
X146549606Y-75270080D01*
X146624080Y-75195606D01*
X146676741Y-75104394D01*
X146704000Y-75002661D01*
X146704000Y-74996447D01*
X147383474Y-75675921D01*
X147415859Y-75631349D01*
X147508755Y-75449031D01*
X147571990Y-75254417D01*
X147604000Y-75052317D01*
X147604000Y-74847682D01*
X147599192Y-74817327D01*
X147596890Y-74802795D01*
X151862000Y-74802795D01*
X151862000Y-75007430D01*
X151894009Y-75209530D01*
X151957244Y-75404144D01*
X152050141Y-75586463D01*
X152050147Y-75586472D01*
X152082523Y-75631034D01*
X152082524Y-75631035D01*
X152762000Y-74951559D01*
X152762000Y-74957774D01*
X152789259Y-75059507D01*
X152841920Y-75150719D01*
X152916394Y-75225193D01*
X153007606Y-75277854D01*
X153109339Y-75305113D01*
X153115553Y-75305113D01*
X152436076Y-75984587D01*
X152480650Y-76016972D01*
X152662968Y-76109868D01*
X152825510Y-76162682D01*
X152883185Y-76202120D01*
X152910383Y-76266479D01*
X152898468Y-76335325D01*
X152851224Y-76386801D01*
X152787191Y-76404613D01*
X152342247Y-76404613D01*
X152283770Y-76416244D01*
X152283769Y-76416245D01*
X152217447Y-76460560D01*
X152173132Y-76526882D01*
X152173131Y-76526883D01*
X152161500Y-76585360D01*
X152161500Y-78224865D01*
X152173131Y-78283342D01*
X152173132Y-78283343D01*
X152217447Y-78349665D01*
X152283769Y-78393980D01*
X152283770Y-78393981D01*
X152342247Y-78405612D01*
X152342250Y-78405613D01*
X152342252Y-78405613D01*
X153981750Y-78405613D01*
X153981751Y-78405612D01*
X153996568Y-78402665D01*
X154040229Y-78393981D01*
X154040229Y-78393980D01*
X154040231Y-78393980D01*
X154106552Y-78349665D01*
X154150867Y-78283344D01*
X154150867Y-78283342D01*
X154150868Y-78283342D01*
X154162499Y-78224865D01*
X154162500Y-78224863D01*
X154162500Y-76585362D01*
X154162499Y-76585360D01*
X154150868Y-76526883D01*
X154150867Y-76526882D01*
X154106552Y-76460560D01*
X154040230Y-76416245D01*
X154040229Y-76416244D01*
X153981752Y-76404613D01*
X153981748Y-76404613D01*
X153536809Y-76404613D01*
X153469770Y-76384928D01*
X153424015Y-76332124D01*
X153414071Y-76262966D01*
X153443096Y-76199410D01*
X153498490Y-76162682D01*
X153661031Y-76109868D01*
X153843349Y-76016972D01*
X153887921Y-75984587D01*
X153208447Y-75305113D01*
X153214661Y-75305113D01*
X153316394Y-75277854D01*
X153407606Y-75225193D01*
X153482080Y-75150719D01*
X153534741Y-75059507D01*
X153562000Y-74957774D01*
X153562000Y-74951561D01*
X154241474Y-75631035D01*
X154241474Y-75631034D01*
X154273859Y-75586462D01*
X154366755Y-75404144D01*
X154429990Y-75209530D01*
X154462000Y-75007430D01*
X154462000Y-74802795D01*
X154429990Y-74600695D01*
X154366755Y-74406081D01*
X154273859Y-74223763D01*
X154241474Y-74179190D01*
X154241474Y-74179189D01*
X153562000Y-74858664D01*
X153562000Y-74852452D01*
X153534741Y-74750719D01*
X153482080Y-74659507D01*
X153407606Y-74585033D01*
X153316394Y-74532372D01*
X153214661Y-74505113D01*
X153208446Y-74505113D01*
X153887922Y-73825637D01*
X153887921Y-73825636D01*
X153843359Y-73793260D01*
X153843350Y-73793254D01*
X153661031Y-73700357D01*
X153466417Y-73637122D01*
X153264317Y-73605113D01*
X153059683Y-73605113D01*
X152857582Y-73637122D01*
X152662968Y-73700357D01*
X152480644Y-73793256D01*
X152436077Y-73825636D01*
X152436077Y-73825637D01*
X153115554Y-74505113D01*
X153109339Y-74505113D01*
X153007606Y-74532372D01*
X152916394Y-74585033D01*
X152841920Y-74659507D01*
X152789259Y-74750719D01*
X152762000Y-74852452D01*
X152762000Y-74858666D01*
X152082524Y-74179190D01*
X152082523Y-74179190D01*
X152050143Y-74223757D01*
X151957244Y-74406081D01*
X151894009Y-74600695D01*
X151862000Y-74802795D01*
X147596890Y-74802795D01*
X147571990Y-74645582D01*
X147508755Y-74450968D01*
X147415859Y-74268650D01*
X147383474Y-74224077D01*
X147383474Y-74224076D01*
X146704000Y-74903551D01*
X146704000Y-74897339D01*
X146676741Y-74795606D01*
X146624080Y-74704394D01*
X146549606Y-74629920D01*
X146458394Y-74577259D01*
X146356661Y-74550000D01*
X146350446Y-74550000D01*
X147029921Y-73870525D01*
X147029921Y-73870522D01*
X146985359Y-73838147D01*
X146985350Y-73838141D01*
X146803031Y-73745244D01*
X146608417Y-73682009D01*
X146406317Y-73650000D01*
X146201683Y-73650000D01*
X145999582Y-73682009D01*
X145804968Y-73745244D01*
X145622644Y-73838143D01*
X145578077Y-73870523D01*
X145578077Y-73870524D01*
X146257554Y-74550000D01*
X146251339Y-74550000D01*
X146149606Y-74577259D01*
X146058394Y-74629920D01*
X145983920Y-74704394D01*
X145931259Y-74795606D01*
X145904000Y-74897339D01*
X145904000Y-74903553D01*
X145224524Y-74224077D01*
X145224523Y-74224077D01*
X145192143Y-74268644D01*
X145099244Y-74450968D01*
X145036009Y-74645582D01*
X145004000Y-74847682D01*
X141247270Y-74847682D01*
X141230924Y-74744479D01*
X141230924Y-74744476D01*
X141169542Y-74555562D01*
X141079358Y-74378567D01*
X141052268Y-74341283D01*
X140437647Y-74955904D01*
X140414208Y-74868429D01*
X140355689Y-74767070D01*
X140272930Y-74684311D01*
X140171571Y-74625792D01*
X140084094Y-74602352D01*
X140698716Y-73987731D01*
X140698715Y-73987730D01*
X140661432Y-73960641D01*
X140484437Y-73870457D01*
X140295522Y-73809075D01*
X140099321Y-73778000D01*
X139900679Y-73778000D01*
X139704479Y-73809075D01*
X139704476Y-73809075D01*
X139515562Y-73870457D01*
X139338564Y-73960643D01*
X139301283Y-73987729D01*
X139301282Y-73987730D01*
X139915906Y-74602352D01*
X139828429Y-74625792D01*
X139727070Y-74684311D01*
X139644311Y-74767070D01*
X139585792Y-74868429D01*
X139562352Y-74955905D01*
X138947730Y-74341282D01*
X138947729Y-74341283D01*
X138920643Y-74378564D01*
X138830457Y-74555562D01*
X138769075Y-74744476D01*
X138769075Y-74744479D01*
X138738000Y-74940678D01*
X125721601Y-74940678D01*
X125692744Y-74795606D01*
X125685512Y-74759249D01*
X125612956Y-74584085D01*
X125577686Y-74531300D01*
X125507622Y-74426441D01*
X125373558Y-74292377D01*
X125215912Y-74187042D01*
X125125400Y-74149551D01*
X125040751Y-74114488D01*
X125040743Y-74114486D01*
X124854802Y-74077500D01*
X124854798Y-74077500D01*
X124665202Y-74077500D01*
X124665197Y-74077500D01*
X124479256Y-74114486D01*
X124479248Y-74114488D01*
X124304087Y-74187042D01*
X124146441Y-74292377D01*
X124012377Y-74426441D01*
X123907042Y-74584087D01*
X123834488Y-74759248D01*
X123834486Y-74759256D01*
X123797500Y-74945197D01*
X105489450Y-74945197D01*
X105500000Y-74905826D01*
X105500000Y-74774174D01*
X105465925Y-74647007D01*
X105433012Y-74590000D01*
X106350000Y-74590000D01*
X106350000Y-73942172D01*
X106349999Y-73942155D01*
X106343598Y-73882624D01*
X106343596Y-73882620D01*
X106293354Y-73747913D01*
X106293350Y-73747906D01*
X106207190Y-73632812D01*
X106207187Y-73632809D01*
X106092093Y-73546649D01*
X106092086Y-73546645D01*
X105957379Y-73496403D01*
X105957372Y-73496401D01*
X105897844Y-73490000D01*
X105250000Y-73490000D01*
X105250000Y-74406988D01*
X105192993Y-74374075D01*
X105065826Y-74340000D01*
X104934174Y-74340000D01*
X104807007Y-74374075D01*
X104750000Y-74406988D01*
X104750000Y-73490000D01*
X104102155Y-73490000D01*
X104042627Y-73496401D01*
X104042620Y-73496403D01*
X103907913Y-73546645D01*
X103907906Y-73546649D01*
X103792812Y-73632809D01*
X103792809Y-73632812D01*
X103706649Y-73747906D01*
X103706645Y-73747913D01*
X103656403Y-73882620D01*
X103656402Y-73882624D01*
X103650000Y-73942155D01*
X101000000Y-73942155D01*
X101000000Y-72405197D01*
X123797500Y-72405197D01*
X123797500Y-72594802D01*
X123834486Y-72780743D01*
X123834488Y-72780751D01*
X123907042Y-72955912D01*
X124012377Y-73113558D01*
X124146441Y-73247622D01*
X124251300Y-73317686D01*
X124304085Y-73352956D01*
X124479249Y-73425512D01*
X124665197Y-73462499D01*
X124665201Y-73462500D01*
X124665202Y-73462500D01*
X124854799Y-73462500D01*
X124854800Y-73462499D01*
X125040751Y-73425512D01*
X125215915Y-73352956D01*
X125373558Y-73247622D01*
X125507622Y-73113558D01*
X125612956Y-72955915D01*
X125685512Y-72780751D01*
X125722500Y-72594798D01*
X125722500Y-72405202D01*
X125722499Y-72405197D01*
X139037500Y-72405197D01*
X139037500Y-72594802D01*
X139074486Y-72780743D01*
X139074488Y-72780751D01*
X139147042Y-72955912D01*
X139252377Y-73113558D01*
X139386441Y-73247622D01*
X139491300Y-73317686D01*
X139544085Y-73352956D01*
X139719249Y-73425512D01*
X139905197Y-73462499D01*
X139905201Y-73462500D01*
X139905202Y-73462500D01*
X140094799Y-73462500D01*
X140094800Y-73462499D01*
X140280751Y-73425512D01*
X140455915Y-73352956D01*
X140613558Y-73247622D01*
X140747622Y-73113558D01*
X140852956Y-72955915D01*
X140925512Y-72780751D01*
X140962500Y-72594798D01*
X140962500Y-72405202D01*
X140925512Y-72219249D01*
X140852956Y-72044085D01*
X140817686Y-71991300D01*
X140747622Y-71886441D01*
X140613558Y-71752377D01*
X140455912Y-71647042D01*
X140280751Y-71574488D01*
X140280743Y-71574486D01*
X140094802Y-71537500D01*
X140094798Y-71537500D01*
X139905202Y-71537500D01*
X139905197Y-71537500D01*
X139719256Y-71574486D01*
X139719248Y-71574488D01*
X139544087Y-71647042D01*
X139386441Y-71752377D01*
X139252377Y-71886441D01*
X139147042Y-72044087D01*
X139074488Y-72219248D01*
X139074486Y-72219256D01*
X139037500Y-72405197D01*
X125722499Y-72405197D01*
X125685512Y-72219249D01*
X125612956Y-72044085D01*
X125577686Y-71991300D01*
X125507622Y-71886441D01*
X125373558Y-71752377D01*
X125215912Y-71647042D01*
X125040751Y-71574488D01*
X125040743Y-71574486D01*
X124854802Y-71537500D01*
X124854798Y-71537500D01*
X124665202Y-71537500D01*
X124665197Y-71537500D01*
X124479256Y-71574486D01*
X124479248Y-71574488D01*
X124304087Y-71647042D01*
X124146441Y-71752377D01*
X124012377Y-71886441D01*
X123907042Y-72044087D01*
X123834488Y-72219248D01*
X123834486Y-72219256D01*
X123797500Y-72405197D01*
X101000000Y-72405197D01*
X101000000Y-63876872D01*
X101999500Y-63876872D01*
X101999500Y-64139127D01*
X102026123Y-64341339D01*
X102033730Y-64399116D01*
X102099461Y-64644428D01*
X102101602Y-64652418D01*
X102101605Y-64652428D01*
X102201953Y-64894690D01*
X102201958Y-64894700D01*
X102333075Y-65121803D01*
X102492718Y-65329851D01*
X102492726Y-65329860D01*
X102678140Y-65515274D01*
X102678148Y-65515281D01*
X102886196Y-65674924D01*
X103113299Y-65806041D01*
X103113309Y-65806046D01*
X103336267Y-65898398D01*
X103355581Y-65906398D01*
X103608884Y-65974270D01*
X103868880Y-66008500D01*
X103868887Y-66008500D01*
X104131113Y-66008500D01*
X104131120Y-66008500D01*
X104391116Y-65974270D01*
X104644419Y-65906398D01*
X104886697Y-65806043D01*
X105113803Y-65674924D01*
X105321851Y-65515282D01*
X105321855Y-65515277D01*
X105321860Y-65515274D01*
X105507274Y-65329860D01*
X105507277Y-65329855D01*
X105507282Y-65329851D01*
X105666924Y-65121803D01*
X105798043Y-64894697D01*
X105801356Y-64886700D01*
X105898394Y-64652428D01*
X105898398Y-64652419D01*
X105966270Y-64399116D01*
X106000500Y-64139120D01*
X106000500Y-63876880D01*
X105999446Y-63868872D01*
X153999500Y-63868872D01*
X153999500Y-64131127D01*
X154026123Y-64333339D01*
X154033730Y-64391116D01*
X154035874Y-64399116D01*
X154101602Y-64644418D01*
X154101605Y-64644428D01*
X154201953Y-64886690D01*
X154201958Y-64886700D01*
X154333075Y-65113803D01*
X154492718Y-65321851D01*
X154492726Y-65321860D01*
X154678140Y-65507274D01*
X154678148Y-65507281D01*
X154678149Y-65507282D01*
X154688575Y-65515282D01*
X154886196Y-65666924D01*
X155113299Y-65798041D01*
X155113309Y-65798046D01*
X155355571Y-65898394D01*
X155355581Y-65898398D01*
X155608884Y-65966270D01*
X155868880Y-66000500D01*
X155868887Y-66000500D01*
X156131113Y-66000500D01*
X156131120Y-66000500D01*
X156391116Y-65966270D01*
X156644419Y-65898398D01*
X156886697Y-65798043D01*
X157113803Y-65666924D01*
X157321851Y-65507282D01*
X157321855Y-65507277D01*
X157321860Y-65507274D01*
X157507274Y-65321860D01*
X157507277Y-65321855D01*
X157507282Y-65321851D01*
X157666924Y-65113803D01*
X157798043Y-64886697D01*
X157898398Y-64644419D01*
X157966270Y-64391116D01*
X158000500Y-64131120D01*
X158000500Y-63868880D01*
X157966270Y-63608884D01*
X157898398Y-63355581D01*
X157898394Y-63355571D01*
X157798046Y-63113309D01*
X157798041Y-63113299D01*
X157666924Y-62886196D01*
X157544424Y-62726554D01*
X157507282Y-62678149D01*
X157507281Y-62678148D01*
X157507274Y-62678140D01*
X157321860Y-62492726D01*
X157321851Y-62492718D01*
X157113803Y-62333075D01*
X156886700Y-62201958D01*
X156886690Y-62201953D01*
X156644428Y-62101605D01*
X156644421Y-62101603D01*
X156644419Y-62101602D01*
X156391116Y-62033730D01*
X156333339Y-62026123D01*
X156131127Y-61999500D01*
X156131120Y-61999500D01*
X155868880Y-61999500D01*
X155868872Y-61999500D01*
X155637772Y-62029926D01*
X155608884Y-62033730D01*
X155355581Y-62101602D01*
X155355571Y-62101605D01*
X155113309Y-62201953D01*
X155113299Y-62201958D01*
X154886196Y-62333075D01*
X154678148Y-62492718D01*
X154492718Y-62678148D01*
X154333075Y-62886196D01*
X154201958Y-63113299D01*
X154201953Y-63113309D01*
X154101605Y-63355571D01*
X154101602Y-63355581D01*
X154033730Y-63608885D01*
X153999500Y-63868872D01*
X105999446Y-63868872D01*
X105966270Y-63616884D01*
X105898398Y-63363581D01*
X105895080Y-63355571D01*
X105798046Y-63121309D01*
X105798041Y-63121299D01*
X105666924Y-62894196D01*
X105507281Y-62686148D01*
X105507274Y-62686140D01*
X105321860Y-62500726D01*
X105321851Y-62500718D01*
X105113803Y-62341075D01*
X104886700Y-62209958D01*
X104886690Y-62209953D01*
X104644428Y-62109605D01*
X104644421Y-62109603D01*
X104644419Y-62109602D01*
X104391116Y-62041730D01*
X104330352Y-62033730D01*
X104131127Y-62007500D01*
X104131120Y-62007500D01*
X103868880Y-62007500D01*
X103868872Y-62007500D01*
X103637772Y-62037926D01*
X103608884Y-62041730D01*
X103385438Y-62101602D01*
X103355581Y-62109602D01*
X103355571Y-62109605D01*
X103113309Y-62209953D01*
X103113299Y-62209958D01*
X102886196Y-62341075D01*
X102678148Y-62500718D01*
X102492718Y-62686148D01*
X102333075Y-62894196D01*
X102201958Y-63121299D01*
X102201953Y-63121309D01*
X102101605Y-63363571D01*
X102101602Y-63363581D01*
X102035874Y-63608885D01*
X102033730Y-63616885D01*
X101999500Y-63876872D01*
X101000000Y-63876872D01*
X101000000Y-61124000D01*
X101019685Y-61056961D01*
X101072489Y-61011206D01*
X101124000Y-61000000D01*
X158876000Y-61000000D01*
X158943039Y-61019685D01*
G37*
G04 #@! TD.AperFunction*
G04 #@! TD*
G04 #@! TA.AperFunction,Conductor*
G04 #@! TO.N,Net-(J1-Pin_4)*
G36*
X105481916Y-81759570D02*
G01*
X106676798Y-82539567D01*
X106681852Y-82546958D01*
X106680199Y-82555759D01*
X106678675Y-82557636D01*
X106548982Y-82687329D01*
X106545461Y-82689748D01*
X105481237Y-83162747D01*
X105472285Y-83162975D01*
X105466759Y-83158557D01*
X105151738Y-82687329D01*
X105003644Y-82465801D01*
X105001895Y-82457019D01*
X105003650Y-82452788D01*
X105465800Y-81762857D01*
X105473252Y-81757890D01*
X105481916Y-81759570D01*
G37*
G04 #@! TD.AperFunction*
G04 #@! TD*
G04 #@! TA.AperFunction,Conductor*
G04 #@! TO.N,Net-(U1-PB08_A6_TX)*
G36*
X119276732Y-80013357D02*
G01*
X119926866Y-80448740D01*
X119931834Y-80456190D01*
X119930839Y-80463657D01*
X119373449Y-81588124D01*
X119366704Y-81594015D01*
X119362966Y-81594628D01*
X119177484Y-81594628D01*
X119169211Y-81591201D01*
X119167001Y-81588124D01*
X118609610Y-80463657D01*
X118609006Y-80454723D01*
X118613581Y-80448741D01*
X119263716Y-80013358D01*
X119272496Y-80011602D01*
X119276732Y-80013357D01*
G37*
G04 #@! TD.AperFunction*
G04 #@! TD*
M02*
