G04 #@! TF.GenerationSoftware,KiCad,Pcbnew,9.0.0*
G04 #@! TF.CreationDate,2025-05-09T14:24:40+09:00*
G04 #@! TF.ProjectId,magnet_module,6d61676e-6574-45f6-9d6f-64756c652e6b,rev?*
G04 #@! TF.SameCoordinates,Original*
G04 #@! TF.FileFunction,Legend,Top*
G04 #@! TF.FilePolarity,Positive*
%FSLAX46Y46*%
G04 Gerber Fmt 4.6, Leading zero omitted, Abs format (unit mm)*
G04 Created by KiCad (PCBNEW 9.0.0) date 2025-05-09 14:24:40*
%MOMM*%
%LPD*%
G01*
G04 APERTURE LIST*
%ADD10C,0.150000*%
%ADD11C,0.120000*%
%ADD12C,0.127000*%
%ADD13C,0.100000*%
%ADD14C,0.504000*%
G04 APERTURE END LIST*
D10*
X113879333Y-82750819D02*
X113546000Y-82274628D01*
X113307905Y-82750819D02*
X113307905Y-81750819D01*
X113307905Y-81750819D02*
X113688857Y-81750819D01*
X113688857Y-81750819D02*
X113784095Y-81798438D01*
X113784095Y-81798438D02*
X113831714Y-81846057D01*
X113831714Y-81846057D02*
X113879333Y-81941295D01*
X113879333Y-81941295D02*
X113879333Y-82084152D01*
X113879333Y-82084152D02*
X113831714Y-82179390D01*
X113831714Y-82179390D02*
X113784095Y-82227009D01*
X113784095Y-82227009D02*
X113688857Y-82274628D01*
X113688857Y-82274628D02*
X113307905Y-82274628D01*
X114831714Y-82750819D02*
X114260286Y-82750819D01*
X114546000Y-82750819D02*
X114546000Y-81750819D01*
X114546000Y-81750819D02*
X114450762Y-81893676D01*
X114450762Y-81893676D02*
X114355524Y-81988914D01*
X114355524Y-81988914D02*
X114260286Y-82036533D01*
X113879333Y-94942819D02*
X113546000Y-94466628D01*
X113307905Y-94942819D02*
X113307905Y-93942819D01*
X113307905Y-93942819D02*
X113688857Y-93942819D01*
X113688857Y-93942819D02*
X113784095Y-93990438D01*
X113784095Y-93990438D02*
X113831714Y-94038057D01*
X113831714Y-94038057D02*
X113879333Y-94133295D01*
X113879333Y-94133295D02*
X113879333Y-94276152D01*
X113879333Y-94276152D02*
X113831714Y-94371390D01*
X113831714Y-94371390D02*
X113784095Y-94419009D01*
X113784095Y-94419009D02*
X113688857Y-94466628D01*
X113688857Y-94466628D02*
X113307905Y-94466628D01*
X114212667Y-93942819D02*
X114831714Y-93942819D01*
X114831714Y-93942819D02*
X114498381Y-94323771D01*
X114498381Y-94323771D02*
X114641238Y-94323771D01*
X114641238Y-94323771D02*
X114736476Y-94371390D01*
X114736476Y-94371390D02*
X114784095Y-94419009D01*
X114784095Y-94419009D02*
X114831714Y-94514247D01*
X114831714Y-94514247D02*
X114831714Y-94752342D01*
X114831714Y-94752342D02*
X114784095Y-94847580D01*
X114784095Y-94847580D02*
X114736476Y-94895200D01*
X114736476Y-94895200D02*
X114641238Y-94942819D01*
X114641238Y-94942819D02*
X114355524Y-94942819D01*
X114355524Y-94942819D02*
X114260286Y-94895200D01*
X114260286Y-94895200D02*
X114212667Y-94847580D01*
X104666666Y-71964819D02*
X104666666Y-72679104D01*
X104666666Y-72679104D02*
X104619047Y-72821961D01*
X104619047Y-72821961D02*
X104523809Y-72917200D01*
X104523809Y-72917200D02*
X104380952Y-72964819D01*
X104380952Y-72964819D02*
X104285714Y-72964819D01*
X105666666Y-72964819D02*
X105095238Y-72964819D01*
X105380952Y-72964819D02*
X105380952Y-71964819D01*
X105380952Y-71964819D02*
X105285714Y-72107676D01*
X105285714Y-72107676D02*
X105190476Y-72202914D01*
X105190476Y-72202914D02*
X105095238Y-72250533D01*
X146137333Y-81309580D02*
X146089714Y-81357200D01*
X146089714Y-81357200D02*
X145946857Y-81404819D01*
X145946857Y-81404819D02*
X145851619Y-81404819D01*
X145851619Y-81404819D02*
X145708762Y-81357200D01*
X145708762Y-81357200D02*
X145613524Y-81261961D01*
X145613524Y-81261961D02*
X145565905Y-81166723D01*
X145565905Y-81166723D02*
X145518286Y-80976247D01*
X145518286Y-80976247D02*
X145518286Y-80833390D01*
X145518286Y-80833390D02*
X145565905Y-80642914D01*
X145565905Y-80642914D02*
X145613524Y-80547676D01*
X145613524Y-80547676D02*
X145708762Y-80452438D01*
X145708762Y-80452438D02*
X145851619Y-80404819D01*
X145851619Y-80404819D02*
X145946857Y-80404819D01*
X145946857Y-80404819D02*
X146089714Y-80452438D01*
X146089714Y-80452438D02*
X146137333Y-80500057D01*
X147089714Y-81404819D02*
X146518286Y-81404819D01*
X146804000Y-81404819D02*
X146804000Y-80404819D01*
X146804000Y-80404819D02*
X146708762Y-80547676D01*
X146708762Y-80547676D02*
X146613524Y-80642914D01*
X146613524Y-80642914D02*
X146518286Y-80690533D01*
X152995333Y-81385580D02*
X152947714Y-81433200D01*
X152947714Y-81433200D02*
X152804857Y-81480819D01*
X152804857Y-81480819D02*
X152709619Y-81480819D01*
X152709619Y-81480819D02*
X152566762Y-81433200D01*
X152566762Y-81433200D02*
X152471524Y-81337961D01*
X152471524Y-81337961D02*
X152423905Y-81242723D01*
X152423905Y-81242723D02*
X152376286Y-81052247D01*
X152376286Y-81052247D02*
X152376286Y-80909390D01*
X152376286Y-80909390D02*
X152423905Y-80718914D01*
X152423905Y-80718914D02*
X152471524Y-80623676D01*
X152471524Y-80623676D02*
X152566762Y-80528438D01*
X152566762Y-80528438D02*
X152709619Y-80480819D01*
X152709619Y-80480819D02*
X152804857Y-80480819D01*
X152804857Y-80480819D02*
X152947714Y-80528438D01*
X152947714Y-80528438D02*
X152995333Y-80576057D01*
X153376286Y-80576057D02*
X153423905Y-80528438D01*
X153423905Y-80528438D02*
X153519143Y-80480819D01*
X153519143Y-80480819D02*
X153757238Y-80480819D01*
X153757238Y-80480819D02*
X153852476Y-80528438D01*
X153852476Y-80528438D02*
X153900095Y-80576057D01*
X153900095Y-80576057D02*
X153947714Y-80671295D01*
X153947714Y-80671295D02*
X153947714Y-80766533D01*
X153947714Y-80766533D02*
X153900095Y-80909390D01*
X153900095Y-80909390D02*
X153328667Y-81480819D01*
X153328667Y-81480819D02*
X153947714Y-81480819D01*
X113879333Y-90370819D02*
X113546000Y-89894628D01*
X113307905Y-90370819D02*
X113307905Y-89370819D01*
X113307905Y-89370819D02*
X113688857Y-89370819D01*
X113688857Y-89370819D02*
X113784095Y-89418438D01*
X113784095Y-89418438D02*
X113831714Y-89466057D01*
X113831714Y-89466057D02*
X113879333Y-89561295D01*
X113879333Y-89561295D02*
X113879333Y-89704152D01*
X113879333Y-89704152D02*
X113831714Y-89799390D01*
X113831714Y-89799390D02*
X113784095Y-89847009D01*
X113784095Y-89847009D02*
X113688857Y-89894628D01*
X113688857Y-89894628D02*
X113307905Y-89894628D01*
X114260286Y-89466057D02*
X114307905Y-89418438D01*
X114307905Y-89418438D02*
X114403143Y-89370819D01*
X114403143Y-89370819D02*
X114641238Y-89370819D01*
X114641238Y-89370819D02*
X114736476Y-89418438D01*
X114736476Y-89418438D02*
X114784095Y-89466057D01*
X114784095Y-89466057D02*
X114831714Y-89561295D01*
X114831714Y-89561295D02*
X114831714Y-89656533D01*
X114831714Y-89656533D02*
X114784095Y-89799390D01*
X114784095Y-89799390D02*
X114212667Y-90370819D01*
X114212667Y-90370819D02*
X114831714Y-90370819D01*
X137338095Y-67704819D02*
X137338095Y-68514342D01*
X137338095Y-68514342D02*
X137385714Y-68609580D01*
X137385714Y-68609580D02*
X137433333Y-68657200D01*
X137433333Y-68657200D02*
X137528571Y-68704819D01*
X137528571Y-68704819D02*
X137719047Y-68704819D01*
X137719047Y-68704819D02*
X137814285Y-68657200D01*
X137814285Y-68657200D02*
X137861904Y-68609580D01*
X137861904Y-68609580D02*
X137909523Y-68514342D01*
X137909523Y-68514342D02*
X137909523Y-67704819D01*
X138909523Y-68704819D02*
X138338095Y-68704819D01*
X138623809Y-68704819D02*
X138623809Y-67704819D01*
X138623809Y-67704819D02*
X138528571Y-67847676D01*
X138528571Y-67847676D02*
X138433333Y-67942914D01*
X138433333Y-67942914D02*
X138338095Y-67990533D01*
D11*
G04 #@! TO.C,R1*
X110150225Y-80010000D02*
X110920225Y-80010000D01*
X110920225Y-78640000D02*
X110920225Y-81380000D01*
X110920225Y-81380000D02*
X117460225Y-81380000D01*
X117460225Y-78640000D02*
X110920225Y-78640000D01*
X117460225Y-81380000D02*
X117460225Y-78640000D01*
X118230225Y-80010000D02*
X117460225Y-80010000D01*
G04 #@! TO.C,R3*
X110150225Y-92202000D02*
X110920225Y-92202000D01*
X110920225Y-90832000D02*
X110920225Y-93572000D01*
X110920225Y-93572000D02*
X117460225Y-93572000D01*
X117460225Y-90832000D02*
X110920225Y-90832000D01*
X117460225Y-93572000D02*
X117460225Y-90832000D01*
X118230225Y-92202000D02*
X117460225Y-92202000D01*
G04 #@! TO.C,J1*
X103670000Y-73510000D02*
X105000000Y-73510000D01*
X103670000Y-74840000D02*
X103670000Y-73510000D01*
X103670000Y-76110000D02*
X103670000Y-91410000D01*
X103670000Y-76110000D02*
X106330000Y-76110000D01*
X103670000Y-91410000D02*
X106330000Y-91410000D01*
X106330000Y-76110000D02*
X106330000Y-91410000D01*
G04 #@! TO.C,C1*
X149574000Y-76200000D02*
G75*
G02*
X143034000Y-76200000I-3270000J0D01*
G01*
X143034000Y-76200000D02*
G75*
G02*
X149574000Y-76200000I3270000J0D01*
G01*
G04 #@! TO.C,C2*
X150582000Y-76115113D02*
X155742000Y-76115113D01*
X150582000Y-76155113D02*
X155742000Y-76155113D01*
X150583000Y-76075113D02*
X155741000Y-76075113D01*
X150584000Y-76035113D02*
X155740000Y-76035113D01*
X150586000Y-75995113D02*
X155738000Y-75995113D01*
X150589000Y-75955113D02*
X155735000Y-75955113D01*
X150593000Y-75915113D02*
X152122000Y-75915113D01*
X150597000Y-75875113D02*
X152122000Y-75875113D01*
X150601000Y-75835113D02*
X152122000Y-75835113D01*
X150606000Y-75795113D02*
X152122000Y-75795113D01*
X150612000Y-75755113D02*
X152122000Y-75755113D01*
X150619000Y-75715113D02*
X152122000Y-75715113D01*
X150626000Y-75675113D02*
X152122000Y-75675113D01*
X150634000Y-75635113D02*
X152122000Y-75635113D01*
X150642000Y-75595113D02*
X152122000Y-75595113D01*
X150651000Y-75555113D02*
X152122000Y-75555113D01*
X150661000Y-75515113D02*
X152122000Y-75515113D01*
X150671000Y-75475113D02*
X152122000Y-75475113D01*
X150682000Y-75434113D02*
X152122000Y-75434113D01*
X150694000Y-75394113D02*
X152122000Y-75394113D01*
X150707000Y-75354113D02*
X152122000Y-75354113D01*
X150720000Y-75314113D02*
X152122000Y-75314113D01*
X150734000Y-75274113D02*
X152122000Y-75274113D01*
X150748000Y-75234113D02*
X152122000Y-75234113D01*
X150764000Y-75194113D02*
X152122000Y-75194113D01*
X150780000Y-75154113D02*
X152122000Y-75154113D01*
X150797000Y-75114113D02*
X152122000Y-75114113D01*
X150814000Y-75074113D02*
X152122000Y-75074113D01*
X150833000Y-75034113D02*
X152122000Y-75034113D01*
X150852000Y-74994113D02*
X152122000Y-74994113D01*
X150872000Y-74954113D02*
X152122000Y-74954113D01*
X150894000Y-74914113D02*
X152122000Y-74914113D01*
X150915000Y-74874113D02*
X152122000Y-74874113D01*
X150938000Y-74834113D02*
X152122000Y-74834113D01*
X150962000Y-74794113D02*
X152122000Y-74794113D01*
X150987000Y-74754113D02*
X152122000Y-74754113D01*
X151013000Y-74714113D02*
X152122000Y-74714113D01*
X151040000Y-74674113D02*
X152122000Y-74674113D01*
X151067000Y-74634113D02*
X152122000Y-74634113D01*
X151097000Y-74594113D02*
X152122000Y-74594113D01*
X151127000Y-74554113D02*
X152122000Y-74554113D01*
X151158000Y-74514113D02*
X152122000Y-74514113D01*
X151191000Y-74474113D02*
X152122000Y-74474113D01*
X151225000Y-74434113D02*
X152122000Y-74434113D01*
X151261000Y-74394113D02*
X152122000Y-74394113D01*
X151298000Y-74354113D02*
X152122000Y-74354113D01*
X151336000Y-74314113D02*
X152122000Y-74314113D01*
X151377000Y-74274113D02*
X152122000Y-74274113D01*
X151419000Y-74234113D02*
X152122000Y-74234113D01*
X151437000Y-78709888D02*
X151937000Y-78709888D01*
X151463000Y-74194113D02*
X152122000Y-74194113D01*
X151509000Y-74154113D02*
X152122000Y-74154113D01*
X151557000Y-74114113D02*
X152122000Y-74114113D01*
X151608000Y-74074113D02*
X152122000Y-74074113D01*
X151662000Y-74034113D02*
X152122000Y-74034113D01*
X151687000Y-78959888D02*
X151687000Y-78459888D01*
X151719000Y-73994113D02*
X152122000Y-73994113D01*
X151779000Y-73954113D02*
X152122000Y-73954113D01*
X151843000Y-73914113D02*
X152122000Y-73914113D01*
X151911000Y-73874113D02*
X152122000Y-73874113D01*
X151984000Y-73834113D02*
X154340000Y-73834113D01*
X152064000Y-73794113D02*
X154260000Y-73794113D01*
X152151000Y-73754113D02*
X154173000Y-73754113D01*
X152247000Y-73714113D02*
X154077000Y-73714113D01*
X152357000Y-73674113D02*
X153967000Y-73674113D01*
X152485000Y-73634113D02*
X153839000Y-73634113D01*
X152644000Y-73594113D02*
X153680000Y-73594113D01*
X152878000Y-73554113D02*
X153446000Y-73554113D01*
X154202000Y-73874113D02*
X154413000Y-73874113D01*
X154202000Y-73914113D02*
X154481000Y-73914113D01*
X154202000Y-73954113D02*
X154545000Y-73954113D01*
X154202000Y-73994113D02*
X154605000Y-73994113D01*
X154202000Y-74034113D02*
X154662000Y-74034113D01*
X154202000Y-74074113D02*
X154716000Y-74074113D01*
X154202000Y-74114113D02*
X154767000Y-74114113D01*
X154202000Y-74154113D02*
X154815000Y-74154113D01*
X154202000Y-74194113D02*
X154861000Y-74194113D01*
X154202000Y-74234113D02*
X154905000Y-74234113D01*
X154202000Y-74274113D02*
X154947000Y-74274113D01*
X154202000Y-74314113D02*
X154988000Y-74314113D01*
X154202000Y-74354113D02*
X155026000Y-74354113D01*
X154202000Y-74394113D02*
X155063000Y-74394113D01*
X154202000Y-74434113D02*
X155099000Y-74434113D01*
X154202000Y-74474113D02*
X155133000Y-74474113D01*
X154202000Y-74514113D02*
X155166000Y-74514113D01*
X154202000Y-74554113D02*
X155197000Y-74554113D01*
X154202000Y-74594113D02*
X155227000Y-74594113D01*
X154202000Y-74634113D02*
X155257000Y-74634113D01*
X154202000Y-74674113D02*
X155284000Y-74674113D01*
X154202000Y-74714113D02*
X155311000Y-74714113D01*
X154202000Y-74754113D02*
X155337000Y-74754113D01*
X154202000Y-74794113D02*
X155362000Y-74794113D01*
X154202000Y-74834113D02*
X155386000Y-74834113D01*
X154202000Y-74874113D02*
X155409000Y-74874113D01*
X154202000Y-74914113D02*
X155430000Y-74914113D01*
X154202000Y-74954113D02*
X155452000Y-74954113D01*
X154202000Y-74994113D02*
X155472000Y-74994113D01*
X154202000Y-75034113D02*
X155491000Y-75034113D01*
X154202000Y-75074113D02*
X155510000Y-75074113D01*
X154202000Y-75114113D02*
X155527000Y-75114113D01*
X154202000Y-75154113D02*
X155544000Y-75154113D01*
X154202000Y-75194113D02*
X155560000Y-75194113D01*
X154202000Y-75234113D02*
X155576000Y-75234113D01*
X154202000Y-75274113D02*
X155590000Y-75274113D01*
X154202000Y-75314113D02*
X155604000Y-75314113D01*
X154202000Y-75354113D02*
X155617000Y-75354113D01*
X154202000Y-75394113D02*
X155630000Y-75394113D01*
X154202000Y-75434113D02*
X155642000Y-75434113D01*
X154202000Y-75475113D02*
X155653000Y-75475113D01*
X154202000Y-75515113D02*
X155663000Y-75515113D01*
X154202000Y-75555113D02*
X155673000Y-75555113D01*
X154202000Y-75595113D02*
X155682000Y-75595113D01*
X154202000Y-75635113D02*
X155690000Y-75635113D01*
X154202000Y-75675113D02*
X155698000Y-75675113D01*
X154202000Y-75715113D02*
X155705000Y-75715113D01*
X154202000Y-75755113D02*
X155712000Y-75755113D01*
X154202000Y-75795113D02*
X155718000Y-75795113D01*
X154202000Y-75835113D02*
X155723000Y-75835113D01*
X154202000Y-75875113D02*
X155727000Y-75875113D01*
X154202000Y-75915113D02*
X155731000Y-75915113D01*
X155782000Y-76155113D02*
G75*
G02*
X150542000Y-76155113I-2620000J0D01*
G01*
X150542000Y-76155113D02*
G75*
G02*
X155782000Y-76155113I2620000J0D01*
G01*
G04 #@! TO.C,R2*
X110006000Y-87630000D02*
X110776000Y-87630000D01*
X110776000Y-86260000D02*
X110776000Y-89000000D01*
X110776000Y-89000000D02*
X117316000Y-89000000D01*
X117316000Y-86260000D02*
X110776000Y-86260000D01*
X117316000Y-89000000D02*
X117316000Y-86260000D01*
X118086000Y-87630000D02*
X117316000Y-87630000D01*
D12*
G04 #@! TO.C,U1*
X123490000Y-88629000D02*
X123490000Y-71484000D01*
X125395000Y-90534000D02*
X139365000Y-90534000D01*
X127885000Y-69579000D02*
X127888728Y-68568728D01*
X128388728Y-68069000D02*
X136384000Y-68069000D01*
X136884000Y-68569000D02*
X136884000Y-69579000D01*
D13*
X139365000Y-69579000D02*
X125395000Y-69579000D01*
D12*
X139365000Y-69579000D02*
X125395000Y-69579000D01*
X141270000Y-88629000D02*
X141270000Y-71484000D01*
X123490000Y-71484000D02*
G75*
G02*
X125395000Y-69579000I1905001J-1D01*
G01*
X125395000Y-90534000D02*
G75*
G02*
X123490000Y-88629000I1J1905001D01*
G01*
X127888728Y-68568728D02*
G75*
G02*
X128388728Y-68069001I500018J-291D01*
G01*
X136384000Y-68069000D02*
G75*
G02*
X136884000Y-68569000I0J-500000D01*
G01*
X139365000Y-69579000D02*
G75*
G02*
X141270000Y-71484000I0J-1905000D01*
G01*
X141270000Y-88629000D02*
G75*
G02*
X139365000Y-90534000I-1905000J0D01*
G01*
D14*
X123728000Y-69720000D02*
G75*
G02*
X123224000Y-69720000I-252000J0D01*
G01*
X123224000Y-69720000D02*
G75*
G02*
X123728000Y-69720000I252000J0D01*
G01*
X124871000Y-70600000D02*
G75*
G02*
X124367000Y-70600000I-252000J0D01*
G01*
X124367000Y-70600000D02*
G75*
G02*
X124871000Y-70600000I252000J0D01*
G01*
G04 #@! TD*
M02*
