G04 #@! TF.GenerationSoftware,KiCad,Pcbnew,9.0.0*
G04 #@! TF.CreationDate,2025-05-09T14:24:40+09:00*
G04 #@! TF.ProjectId,magnet_module,6d61676e-6574-45f6-9d6f-64756c652e6b,rev?*
G04 #@! TF.SameCoordinates,Original*
G04 #@! TF.FileFunction,Soldermask,Top*
G04 #@! TF.FilePolarity,Negative*
%FSLAX46Y46*%
G04 Gerber Fmt 4.6, Leading zero omitted, Abs format (unit mm)*
G04 Created by KiCad (PCBNEW 9.0.0) date 2025-05-09 14:24:40*
%MOMM*%
%LPD*%
G01*
G04 APERTURE LIST*
G04 Aperture macros list*
%AMRoundRect*
0 Rectangle with rounded corners*
0 $1 Rounding radius*
0 $2 $3 $4 $5 $6 $7 $8 $9 X,Y pos of 4 corners*
0 Add a 4 corners polygon primitive as box body*
4,1,4,$2,$3,$4,$5,$6,$7,$8,$9,$2,$3,0*
0 Add four circle primitives for the rounded corners*
1,1,$1+$1,$2,$3*
1,1,$1+$1,$4,$5*
1,1,$1+$1,$6,$7*
1,1,$1+$1,$8,$9*
0 Add four rect primitives between the rounded corners*
20,1,$1+$1,$2,$3,$4,$5,0*
20,1,$1+$1,$4,$5,$6,$7,0*
20,1,$1+$1,$6,$7,$8,$9,0*
20,1,$1+$1,$8,$9,$2,$3,0*%
G04 Aperture macros list end*
%ADD10C,3.500000*%
%ADD11C,1.600000*%
%ADD12O,1.600000X1.600000*%
%ADD13R,1.700000X1.700000*%
%ADD14O,1.700000X1.700000*%
%ADD15R,1.600000X1.600000*%
%ADD16RoundRect,0.152400X1.063600X0.609600X-1.063600X0.609600X-1.063600X-0.609600X1.063600X-0.609600X0*%
%ADD17C,1.524000*%
%ADD18RoundRect,0.152400X-1.063600X-0.609600X1.063600X-0.609600X1.063600X0.609600X-1.063600X0.609600X0*%
G04 APERTURE END LIST*
D10*
G04 #@! TO.C,REF\u002A\u002A*
X104000000Y-96000000D03*
G04 #@! TD*
G04 #@! TO.C,REF\u002A\u002A*
X156000000Y-96000000D03*
G04 #@! TD*
G04 #@! TO.C,REF\u002A\u002A*
X156000000Y-64000000D03*
G04 #@! TD*
G04 #@! TO.C,REF\u002A\u002A*
X104000000Y-64008000D03*
G04 #@! TD*
D11*
G04 #@! TO.C,R1*
X109110225Y-80010000D03*
D12*
X119270225Y-80010000D03*
G04 #@! TD*
D11*
G04 #@! TO.C,R3*
X109110225Y-92202000D03*
D12*
X119270225Y-92202000D03*
G04 #@! TD*
D13*
G04 #@! TO.C,J1*
X105000000Y-74840000D03*
D14*
X105000000Y-77380000D03*
X105000000Y-79920000D03*
X105000000Y-82460000D03*
X105000000Y-85000000D03*
X105000000Y-87540000D03*
X105000000Y-90080000D03*
G04 #@! TD*
D11*
G04 #@! TO.C,C1*
X146304000Y-74950000D03*
X146304000Y-77450000D03*
G04 #@! TD*
D15*
G04 #@! TO.C,C2*
X153162000Y-77405113D03*
D11*
X153162000Y-74905113D03*
G04 #@! TD*
G04 #@! TO.C,R2*
X108966000Y-87630000D03*
D12*
X119126000Y-87630000D03*
G04 #@! TD*
D16*
G04 #@! TO.C,U1*
X123925000Y-72500000D03*
D17*
X124760000Y-72500000D03*
D16*
X123925000Y-75040000D03*
D17*
X124760000Y-75040000D03*
D16*
X123925000Y-77580000D03*
D17*
X124760000Y-77580000D03*
D16*
X123925000Y-80120000D03*
D17*
X124760000Y-80120000D03*
D16*
X123925000Y-82660000D03*
D17*
X124760000Y-82660000D03*
D16*
X123925000Y-85200000D03*
D17*
X124760000Y-85200000D03*
D16*
X123925000Y-87740000D03*
D17*
X124760000Y-87740000D03*
X140000000Y-87740000D03*
D18*
X140835000Y-87740000D03*
D17*
X140000000Y-85200000D03*
D18*
X140835000Y-85200000D03*
D17*
X140000000Y-82660000D03*
D18*
X140835000Y-82660000D03*
D17*
X140000000Y-80120000D03*
D18*
X140835000Y-80120000D03*
D17*
X140000000Y-77580000D03*
D18*
X140835000Y-77580000D03*
D17*
X140000000Y-75040000D03*
D18*
X140835000Y-75040000D03*
D17*
X140000000Y-72500000D03*
D18*
X140835000Y-72500000D03*
G04 #@! TD*
M02*
