G04 #@! TF.GenerationSoftware,KiCad,Pcbnew,9.0.0*
G04 #@! TF.CreationDate,2025-05-09T14:24:40+09:00*
G04 #@! TF.ProjectId,magnet_module,6d61676e-6574-45f6-9d6f-64756c652e6b,rev?*
G04 #@! TF.SameCoordinates,Original*
G04 #@! TF.FileFunction,Copper,L1,Top*
G04 #@! TF.FilePolarity,Positive*
%FSLAX46Y46*%
G04 Gerber Fmt 4.6, Leading zero omitted, Abs format (unit mm)*
G04 Created by KiCad (PCBNEW 9.0.0) date 2025-05-09 14:24:40*
%MOMM*%
%LPD*%
G01*
G04 APERTURE LIST*
G04 Aperture macros list*
%AMRoundRect*
0 Rectangle with rounded corners*
0 $1 Rounding radius*
0 $2 $3 $4 $5 $6 $7 $8 $9 X,Y pos of 4 corners*
0 Add a 4 corners polygon primitive as box body*
4,1,4,$2,$3,$4,$5,$6,$7,$8,$9,$2,$3,0*
0 Add four circle primitives for the rounded corners*
1,1,$1+$1,$2,$3*
1,1,$1+$1,$4,$5*
1,1,$1+$1,$6,$7*
1,1,$1+$1,$8,$9*
0 Add four rect primitives between the rounded corners*
20,1,$1+$1,$2,$3,$4,$5,0*
20,1,$1+$1,$4,$5,$6,$7,0*
20,1,$1+$1,$6,$7,$8,$9,0*
20,1,$1+$1,$8,$9,$2,$3,0*%
G04 Aperture macros list end*
G04 #@! TA.AperFunction,ComponentPad*
%ADD10C,1.600000*%
G04 #@! TD*
G04 #@! TA.AperFunction,ComponentPad*
%ADD11O,1.600000X1.600000*%
G04 #@! TD*
G04 #@! TA.AperFunction,ComponentPad*
%ADD12R,1.700000X1.700000*%
G04 #@! TD*
G04 #@! TA.AperFunction,ComponentPad*
%ADD13O,1.700000X1.700000*%
G04 #@! TD*
G04 #@! TA.AperFunction,ComponentPad*
%ADD14R,1.600000X1.600000*%
G04 #@! TD*
G04 #@! TA.AperFunction,SMDPad,CuDef*
%ADD15RoundRect,0.152400X1.063600X0.609600X-1.063600X0.609600X-1.063600X-0.609600X1.063600X-0.609600X0*%
G04 #@! TD*
G04 #@! TA.AperFunction,ComponentPad*
%ADD16C,1.524000*%
G04 #@! TD*
G04 #@! TA.AperFunction,SMDPad,CuDef*
%ADD17RoundRect,0.152400X-1.063600X-0.609600X1.063600X-0.609600X1.063600X0.609600X-1.063600X0.609600X0*%
G04 #@! TD*
G04 #@! TA.AperFunction,ViaPad*
%ADD18C,0.600000*%
G04 #@! TD*
G04 #@! TA.AperFunction,Conductor*
%ADD19C,0.200000*%
G04 #@! TD*
G04 APERTURE END LIST*
D10*
G04 #@! TO.P,R1,1*
G04 #@! TO.N,Net-(J1-Pin_3)*
X109110225Y-80010000D03*
D11*
G04 #@! TO.P,R1,2*
G04 #@! TO.N,Net-(U1-PB08_A6_TX)*
X119270225Y-80010000D03*
G04 #@! TD*
D10*
G04 #@! TO.P,R3,1*
G04 #@! TO.N,Net-(J1-Pin_7)*
X109110225Y-92202000D03*
D11*
G04 #@! TO.P,R3,2*
G04 #@! TO.N,Net-(U1-PA8_A4_D4_SDA)*
X119270225Y-92202000D03*
G04 #@! TD*
D12*
G04 #@! TO.P,J1,1,Pin_1*
G04 #@! TO.N,GND*
X105000000Y-74840000D03*
D13*
G04 #@! TO.P,J1,2,Pin_2*
G04 #@! TO.N,+3V3*
X105000000Y-77380000D03*
G04 #@! TO.P,J1,3,Pin_3*
G04 #@! TO.N,Net-(J1-Pin_3)*
X105000000Y-79920000D03*
G04 #@! TO.P,J1,4,Pin_4*
G04 #@! TO.N,Net-(J1-Pin_4)*
X105000000Y-82460000D03*
G04 #@! TO.P,J1,5,Pin_5*
G04 #@! TO.N,Net-(J1-Pin_5)*
X105000000Y-85000000D03*
G04 #@! TO.P,J1,6,Pin_6*
G04 #@! TO.N,Net-(J1-Pin_6)*
X105000000Y-87540000D03*
G04 #@! TO.P,J1,7,Pin_7*
G04 #@! TO.N,Net-(J1-Pin_7)*
X105000000Y-90080000D03*
G04 #@! TD*
D10*
G04 #@! TO.P,C1,1*
G04 #@! TO.N,GND*
X146304000Y-74950000D03*
G04 #@! TO.P,C1,2*
G04 #@! TO.N,+3V3*
X146304000Y-77450000D03*
G04 #@! TD*
D14*
G04 #@! TO.P,C2,1*
G04 #@! TO.N,+3V3*
X153162000Y-77405113D03*
D10*
G04 #@! TO.P,C2,2*
G04 #@! TO.N,GND*
X153162000Y-74905113D03*
G04 #@! TD*
G04 #@! TO.P,R2,1*
G04 #@! TO.N,Net-(J1-Pin_6)*
X108966000Y-87630000D03*
D11*
G04 #@! TO.P,R2,2*
G04 #@! TO.N,Net-(U1-PA11_A3_D3)*
X119126000Y-87630000D03*
G04 #@! TD*
D15*
G04 #@! TO.P,U1,1,PA02_A0_D0*
G04 #@! TO.N,unconnected-(U1-PA02_A0_D0-Pad1)*
X123925000Y-72500000D03*
D16*
X124760000Y-72500000D03*
D15*
G04 #@! TO.P,U1,2,PA4_A1_D1*
G04 #@! TO.N,Net-(J1-Pin_5)*
X123925000Y-75040000D03*
D16*
X124760000Y-75040000D03*
D15*
G04 #@! TO.P,U1,3,PA10_A2_D2*
G04 #@! TO.N,unconnected-(U1-PA10_A2_D2-Pad3)*
X123925000Y-77580000D03*
D16*
X124760000Y-77580000D03*
D15*
G04 #@! TO.P,U1,4,PA11_A3_D3*
G04 #@! TO.N,Net-(U1-PA11_A3_D3)*
X123925000Y-80120000D03*
D16*
X124760000Y-80120000D03*
D15*
G04 #@! TO.P,U1,5,PA8_A4_D4_SDA*
G04 #@! TO.N,Net-(U1-PA8_A4_D4_SDA)*
X123925000Y-82660000D03*
D16*
X124760000Y-82660000D03*
D15*
G04 #@! TO.P,U1,6,PA9_A5_D5_SCL*
G04 #@! TO.N,unconnected-(U1-PA9_A5_D5_SCL-Pad6)*
X123925000Y-85200000D03*
D16*
X124760000Y-85200000D03*
D15*
G04 #@! TO.P,U1,7,PB08_A6_TX*
G04 #@! TO.N,Net-(U1-PB08_A6_TX)*
X123925000Y-87740000D03*
D16*
X124760000Y-87740000D03*
G04 #@! TO.P,U1,8,PB09_D7_RX*
G04 #@! TO.N,Net-(J1-Pin_4)*
X140000000Y-87740000D03*
D17*
X140835000Y-87740000D03*
D16*
G04 #@! TO.P,U1,9,PA7_A8_D8_SCK*
G04 #@! TO.N,unconnected-(U1-PA7_A8_D8_SCK-Pad9)*
X140000000Y-85200000D03*
D17*
X140835000Y-85200000D03*
D16*
G04 #@! TO.P,U1,10,PA5_A9_D9_MISO*
G04 #@! TO.N,unconnected-(U1-PA5_A9_D9_MISO-Pad10)*
X140000000Y-82660000D03*
D17*
X140835000Y-82660000D03*
D16*
G04 #@! TO.P,U1,11,PA6_A10_D10_MOSI*
G04 #@! TO.N,unconnected-(U1-PA6_A10_D10_MOSI-Pad11)*
X140000000Y-80120000D03*
D17*
X140835000Y-80120000D03*
D16*
G04 #@! TO.P,U1,12,3V3*
G04 #@! TO.N,+3V3*
X140000000Y-77580000D03*
D17*
X140835000Y-77580000D03*
D16*
G04 #@! TO.P,U1,13,GND*
G04 #@! TO.N,GND*
X140000000Y-75040000D03*
D17*
X140835000Y-75040000D03*
D16*
G04 #@! TO.P,U1,14,5V*
G04 #@! TO.N,unconnected-(U1-5V-Pad14)*
X140000000Y-72500000D03*
D17*
X140835000Y-72500000D03*
G04 #@! TD*
D18*
G04 #@! TO.N,GND*
X137500000Y-87500000D03*
X137500000Y-97500000D03*
X147500000Y-97500000D03*
X132500000Y-92500000D03*
X127500000Y-72500000D03*
X112500000Y-82500000D03*
X117500000Y-97500000D03*
X137500000Y-92500000D03*
X117500000Y-62500000D03*
X117500000Y-77500000D03*
X127500000Y-97500000D03*
X112500000Y-72500000D03*
X132500000Y-72500000D03*
X122500000Y-97500000D03*
X147500000Y-62500000D03*
X147500000Y-87500000D03*
X127500000Y-62500000D03*
X137500000Y-62500000D03*
X152500000Y-82500000D03*
X137500000Y-77500000D03*
X132500000Y-77500000D03*
X132500000Y-82500000D03*
X102500000Y-77500000D03*
X122500000Y-62500000D03*
X132500000Y-62500000D03*
X147500000Y-92500000D03*
X132500000Y-87500000D03*
X152500000Y-87500000D03*
X132500000Y-97500000D03*
X127500000Y-87500000D03*
X142500000Y-62500000D03*
X127500000Y-92500000D03*
X157500000Y-72500000D03*
X157500000Y-82500000D03*
X112500000Y-97500000D03*
X157500000Y-77500000D03*
X142500000Y-92500000D03*
X117500000Y-82500000D03*
X117500000Y-72500000D03*
X137500000Y-72500000D03*
X127500000Y-82500000D03*
X147500000Y-72500000D03*
X127500000Y-77500000D03*
X102500000Y-87500000D03*
X112500000Y-92500000D03*
X147500000Y-82500000D03*
X137500000Y-82500000D03*
X157500000Y-87500000D03*
X122500000Y-92500000D03*
X142500000Y-97500000D03*
X112500000Y-62500000D03*
X112500000Y-87500000D03*
X112500000Y-77500000D03*
X102500000Y-82500000D03*
G04 #@! TD*
D19*
G04 #@! TO.N,+3V3*
X155923557Y-74643556D02*
X153162000Y-77405113D01*
X155923557Y-71773500D02*
X155923557Y-74643556D01*
X151130057Y-66980000D02*
X155923557Y-71773500D01*
X102540000Y-72060000D02*
X107620000Y-66980000D01*
X107620000Y-66980000D02*
X151130057Y-66980000D01*
X102540000Y-74920000D02*
X102540000Y-72060000D01*
X105000000Y-77380000D02*
X102540000Y-74920000D01*
G04 #@! TO.N,Net-(J1-Pin_3)*
X105000000Y-79920000D02*
X109020225Y-79920000D01*
X109020225Y-79920000D02*
X109110225Y-80010000D01*
G04 #@! TO.N,Net-(J1-Pin_5)*
X120904000Y-81280000D02*
X120904000Y-78061000D01*
X120904000Y-78061000D02*
X123925000Y-75040000D01*
X105000000Y-85000000D02*
X117184000Y-85000000D01*
X117184000Y-85000000D02*
X120904000Y-81280000D01*
G04 #@! TO.N,Net-(J1-Pin_7)*
X107122000Y-92202000D02*
X109110225Y-92202000D01*
X105000000Y-90080000D02*
X107122000Y-92202000D01*
G04 #@! TO.N,Net-(J1-Pin_6)*
X105000000Y-87540000D02*
X108876000Y-87540000D01*
X108876000Y-87540000D02*
X108966000Y-87630000D01*
G04 #@! TO.N,Net-(U1-PA11_A3_D3)*
X124760000Y-80120000D02*
X123682370Y-80120000D01*
X123682370Y-80120000D02*
X119126000Y-84676370D01*
X119126000Y-84676370D02*
X119126000Y-87630000D01*
G04 #@! TO.N,Net-(U1-PA8_A4_D4_SDA)*
X123682370Y-82660000D02*
X124760000Y-82660000D01*
X121920000Y-84422370D02*
X123682370Y-82660000D01*
X119270225Y-92202000D02*
X120904000Y-92202000D01*
X120904000Y-92202000D02*
X121920000Y-91186000D01*
X121920000Y-91186000D02*
X121920000Y-84422370D01*
G04 #@! TO.N,GND*
X146304000Y-74950000D02*
X146538000Y-74950000D01*
X140040000Y-75000000D02*
X140000000Y-75040000D01*
X146538000Y-74950000D02*
X146582887Y-74905113D01*
X146214000Y-75040000D02*
X146304000Y-74950000D01*
G04 #@! TO.N,+3V3*
X146304000Y-77450000D02*
X153117113Y-77450000D01*
X146174000Y-77580000D02*
X146304000Y-77450000D01*
X153117113Y-77450000D02*
X153162000Y-77405113D01*
X140000000Y-77580000D02*
X146174000Y-77580000D01*
G04 #@! TD*
G04 #@! TA.AperFunction,Conductor*
G04 #@! TO.N,GND*
G36*
X158943039Y-61019685D02*
G01*
X158988794Y-61072489D01*
X159000000Y-61124000D01*
X159000000Y-98876000D01*
X158980315Y-98943039D01*
X158927511Y-98988794D01*
X158876000Y-99000000D01*
X101124000Y-99000000D01*
X101056961Y-98980315D01*
X101011206Y-98927511D01*
X101000000Y-98876000D01*
X101000000Y-95868872D01*
X101999500Y-95868872D01*
X101999500Y-96131127D01*
X102026123Y-96333339D01*
X102033730Y-96391116D01*
X102101602Y-96644418D01*
X102101605Y-96644428D01*
X102201953Y-96886690D01*
X102201958Y-96886700D01*
X102333075Y-97113803D01*
X102492718Y-97321851D01*
X102492726Y-97321860D01*
X102678140Y-97507274D01*
X102678148Y-97507281D01*
X102886196Y-97666924D01*
X103113299Y-97798041D01*
X103113309Y-97798046D01*
X103355571Y-97898394D01*
X103355581Y-97898398D01*
X103608884Y-97966270D01*
X103868880Y-98000500D01*
X103868887Y-98000500D01*
X104131113Y-98000500D01*
X104131120Y-98000500D01*
X104391116Y-97966270D01*
X104644419Y-97898398D01*
X104886697Y-97798043D01*
X105113803Y-97666924D01*
X105321851Y-97507282D01*
X105321855Y-97507277D01*
X105321860Y-97507274D01*
X105507274Y-97321860D01*
X105507277Y-97321855D01*
X105507282Y-97321851D01*
X105666924Y-97113803D01*
X105798043Y-96886697D01*
X105898398Y-96644419D01*
X105966270Y-96391116D01*
X106000500Y-96131120D01*
X106000500Y-95868880D01*
X106000499Y-95868872D01*
X153999500Y-95868872D01*
X153999500Y-96131127D01*
X154026123Y-96333339D01*
X154033730Y-96391116D01*
X154101602Y-96644418D01*
X154101605Y-96644428D01*
X154201953Y-96886690D01*
X154201958Y-96886700D01*
X154333075Y-97113803D01*
X154492718Y-97321851D01*
X154492726Y-97321860D01*
X154678140Y-97507274D01*
X154678148Y-97507281D01*
X154886196Y-97666924D01*
X155113299Y-97798041D01*
X155113309Y-97798046D01*
X155355571Y-97898394D01*
X155355581Y-97898398D01*
X155608884Y-97966270D01*
X155868880Y-98000500D01*
X155868887Y-98000500D01*
X156131113Y-98000500D01*
X156131120Y-98000500D01*
X156391116Y-97966270D01*
X156644419Y-97898398D01*
X156886697Y-97798043D01*
X157113803Y-97666924D01*
X157321851Y-97507282D01*
X157321855Y-97507277D01*
X157321860Y-97507274D01*
X157507274Y-97321860D01*
X157507277Y-97321855D01*
X157507282Y-97321851D01*
X157666924Y-97113803D01*
X157798043Y-96886697D01*
X157898398Y-96644419D01*
X157966270Y-96391116D01*
X158000500Y-96131120D01*
X158000500Y-95868880D01*
X157966270Y-95608884D01*
X157898398Y-95355581D01*
X157898394Y-95355571D01*
X157798046Y-95113309D01*
X157798041Y-95113299D01*
X157666924Y-94886196D01*
X157507281Y-94678148D01*
X157507274Y-94678140D01*
X157321860Y-94492726D01*
X157321851Y-94492718D01*
X157113803Y-94333075D01*
X156886700Y-94201958D01*
X156886690Y-94201953D01*
X156644428Y-94101605D01*
X156644421Y-94101603D01*
X156644419Y-94101602D01*
X156391116Y-94033730D01*
X156333339Y-94026123D01*
X156131127Y-93999500D01*
X156131120Y-93999500D01*
X155868880Y-93999500D01*
X155868872Y-93999500D01*
X155637772Y-94029926D01*
X155608884Y-94033730D01*
X155355581Y-94101602D01*
X155355571Y-94101605D01*
X155113309Y-94201953D01*
X155113299Y-94201958D01*
X154886196Y-94333075D01*
X154678148Y-94492718D01*
X154492718Y-94678148D01*
X154333075Y-94886196D01*
X154201958Y-95113299D01*
X154201953Y-95113309D01*
X154101605Y-95355571D01*
X154101602Y-95355581D01*
X154033730Y-95608885D01*
X153999500Y-95868872D01*
X106000499Y-95868872D01*
X105966270Y-95608884D01*
X105898398Y-95355581D01*
X105898394Y-95355571D01*
X105798046Y-95113309D01*
X105798041Y-95113299D01*
X105666924Y-94886196D01*
X105507281Y-94678148D01*
X105507274Y-94678140D01*
X105321860Y-94492726D01*
X105321851Y-94492718D01*
X105113803Y-94333075D01*
X104886700Y-94201958D01*
X104886690Y-94201953D01*
X104644428Y-94101605D01*
X104644421Y-94101603D01*
X104644419Y-94101602D01*
X104391116Y-94033730D01*
X104333339Y-94026123D01*
X104131127Y-93999500D01*
X104131120Y-93999500D01*
X103868880Y-93999500D01*
X103868872Y-93999500D01*
X103637772Y-94029926D01*
X103608884Y-94033730D01*
X103355581Y-94101602D01*
X103355571Y-94101605D01*
X103113309Y-94201953D01*
X103113299Y-94201958D01*
X102886196Y-94333075D01*
X102678148Y-94492718D01*
X102492718Y-94678148D01*
X102333075Y-94886196D01*
X102201958Y-95113299D01*
X102201953Y-95113309D01*
X102101605Y-95355571D01*
X102101602Y-95355581D01*
X102033730Y-95608885D01*
X101999500Y-95868872D01*
X101000000Y-95868872D01*
X101000000Y-89976530D01*
X103949500Y-89976530D01*
X103949500Y-90183469D01*
X103989868Y-90386412D01*
X103989870Y-90386420D01*
X104069058Y-90577596D01*
X104184024Y-90749657D01*
X104330342Y-90895975D01*
X104330345Y-90895977D01*
X104502402Y-91010941D01*
X104693580Y-91090130D01*
X104746507Y-91100657D01*
X104773038Y-91110556D01*
X104773537Y-91109439D01*
X104779107Y-91111920D01*
X104779108Y-91111921D01*
X105720066Y-91424860D01*
X105991641Y-91515179D01*
X106040190Y-91545161D01*
X106881540Y-92386511D01*
X106937489Y-92442460D01*
X106937491Y-92442461D01*
X106937495Y-92442464D01*
X107006004Y-92482017D01*
X107006011Y-92482021D01*
X107082438Y-92502500D01*
X107161562Y-92502500D01*
X107438327Y-92502500D01*
X107493398Y-92515400D01*
X108565299Y-93046735D01*
X108565305Y-93046736D01*
X108570021Y-93048611D01*
X108569776Y-93049226D01*
X108595793Y-93061559D01*
X108636311Y-93088632D01*
X108818390Y-93164051D01*
X108818394Y-93164051D01*
X108818395Y-93164052D01*
X109011681Y-93202500D01*
X109011684Y-93202500D01*
X109208768Y-93202500D01*
X109338807Y-93176632D01*
X109402060Y-93164051D01*
X109584139Y-93088632D01*
X109748007Y-92979139D01*
X109887364Y-92839782D01*
X109996857Y-92675914D01*
X110072276Y-92493835D01*
X110110725Y-92300541D01*
X110110725Y-92103459D01*
X110110725Y-92103456D01*
X110072277Y-91910170D01*
X110072276Y-91910169D01*
X110072276Y-91910165D01*
X110066606Y-91896477D01*
X109996860Y-91728092D01*
X109996853Y-91728079D01*
X109887364Y-91564218D01*
X109887361Y-91564214D01*
X109748010Y-91424863D01*
X109748006Y-91424860D01*
X109584145Y-91315371D01*
X109584132Y-91315364D01*
X109402064Y-91239950D01*
X109402054Y-91239947D01*
X109208768Y-91201500D01*
X109208766Y-91201500D01*
X109011684Y-91201500D01*
X109011682Y-91201500D01*
X108818395Y-91239947D01*
X108818385Y-91239950D01*
X108636315Y-91315366D01*
X108636304Y-91315371D01*
X108596158Y-91342195D01*
X108570529Y-91353882D01*
X108570993Y-91355106D01*
X108565303Y-91357260D01*
X107493395Y-91888600D01*
X107480996Y-91891504D01*
X107473259Y-91896477D01*
X107438324Y-91901500D01*
X107297833Y-91901500D01*
X107230794Y-91881815D01*
X107210152Y-91865181D01*
X106465161Y-91120190D01*
X106435179Y-91071641D01*
X106328095Y-90749657D01*
X106031921Y-89859108D01*
X106031920Y-89859106D01*
X106029910Y-89854396D01*
X106030427Y-89854175D01*
X106020727Y-89826859D01*
X106010130Y-89773580D01*
X105930941Y-89582402D01*
X105815977Y-89410345D01*
X105815975Y-89410342D01*
X105669657Y-89264024D01*
X105583626Y-89206541D01*
X105497598Y-89149059D01*
X105306420Y-89069870D01*
X105306412Y-89069868D01*
X105103469Y-89029500D01*
X105103465Y-89029500D01*
X104896535Y-89029500D01*
X104896530Y-89029500D01*
X104693587Y-89069868D01*
X104693579Y-89069870D01*
X104502403Y-89149058D01*
X104330342Y-89264024D01*
X104184024Y-89410342D01*
X104069058Y-89582403D01*
X103989870Y-89773579D01*
X103989868Y-89773587D01*
X103949500Y-89976530D01*
X101000000Y-89976530D01*
X101000000Y-87436530D01*
X103949500Y-87436530D01*
X103949500Y-87643469D01*
X103989868Y-87846412D01*
X103989870Y-87846420D01*
X104069058Y-88037596D01*
X104184024Y-88209657D01*
X104330342Y-88355975D01*
X104330345Y-88355977D01*
X104502402Y-88470941D01*
X104693580Y-88550130D01*
X104896530Y-88590499D01*
X104896534Y-88590500D01*
X104896535Y-88590500D01*
X105103466Y-88590500D01*
X105103467Y-88590499D01*
X105306420Y-88550130D01*
X105497598Y-88470941D01*
X105542470Y-88440957D01*
X105568233Y-88429205D01*
X105567792Y-88428055D01*
X105573481Y-88425873D01*
X105573483Y-88425871D01*
X105573486Y-88425871D01*
X106716022Y-87853629D01*
X106771552Y-87840500D01*
X107284743Y-87840500D01*
X107346522Y-87856985D01*
X108362784Y-88440960D01*
X108409688Y-88467912D01*
X108415532Y-88469995D01*
X108442790Y-88483693D01*
X108492086Y-88516632D01*
X108492088Y-88516633D01*
X108492092Y-88516635D01*
X108674160Y-88592049D01*
X108674165Y-88592051D01*
X108674169Y-88592051D01*
X108674170Y-88592052D01*
X108867456Y-88630500D01*
X108867459Y-88630500D01*
X109064543Y-88630500D01*
X109194582Y-88604632D01*
X109257835Y-88592051D01*
X109439914Y-88516632D01*
X109603782Y-88407139D01*
X109743139Y-88267782D01*
X109852632Y-88103914D01*
X109928051Y-87921835D01*
X109966500Y-87728543D01*
X118125499Y-87728543D01*
X118163947Y-87921829D01*
X118163950Y-87921839D01*
X118239364Y-88103907D01*
X118239371Y-88103920D01*
X118348860Y-88267781D01*
X118348863Y-88267785D01*
X118488214Y-88407136D01*
X118488218Y-88407139D01*
X118652079Y-88516628D01*
X118652092Y-88516635D01*
X118834160Y-88592049D01*
X118834165Y-88592051D01*
X118834169Y-88592051D01*
X118834170Y-88592052D01*
X119027456Y-88630500D01*
X119027459Y-88630500D01*
X119224543Y-88630500D01*
X119354582Y-88604632D01*
X119417835Y-88592051D01*
X119599914Y-88516632D01*
X119763782Y-88407139D01*
X119903139Y-88267782D01*
X120012632Y-88103914D01*
X120088051Y-87921835D01*
X120126500Y-87728541D01*
X120126500Y-87531459D01*
X120126500Y-87531456D01*
X120088052Y-87338170D01*
X120088051Y-87338169D01*
X120088051Y-87338165D01*
X120044731Y-87233580D01*
X120012634Y-87156090D01*
X120012633Y-87156089D01*
X120012632Y-87156086D01*
X119985803Y-87115934D01*
X119974185Y-87090276D01*
X119972891Y-87090767D01*
X119970736Y-87085077D01*
X119439400Y-86013171D01*
X119426500Y-85958100D01*
X119426500Y-84852203D01*
X119446185Y-84785164D01*
X119462819Y-84764522D01*
X122296819Y-81930522D01*
X122358142Y-81897037D01*
X122427834Y-81902021D01*
X122483767Y-81943893D01*
X122508184Y-82009357D01*
X122508500Y-82018203D01*
X122508500Y-83303091D01*
X122512985Y-83333880D01*
X122503170Y-83403057D01*
X122477961Y-83439436D01*
X121735489Y-84181910D01*
X121679541Y-84237857D01*
X121679535Y-84237865D01*
X121639982Y-84306374D01*
X121639979Y-84306379D01*
X121619500Y-84382809D01*
X121619500Y-91010166D01*
X121599815Y-91077205D01*
X121583181Y-91097847D01*
X120886756Y-91794271D01*
X120825433Y-91827756D01*
X120755741Y-91822772D01*
X120744004Y-91817690D01*
X119815145Y-91357261D01*
X119810426Y-91355386D01*
X119810668Y-91354775D01*
X119784649Y-91342435D01*
X119744149Y-91315374D01*
X119744142Y-91315370D01*
X119744139Y-91315368D01*
X119744135Y-91315366D01*
X119744131Y-91315364D01*
X119562064Y-91239950D01*
X119562054Y-91239947D01*
X119368768Y-91201500D01*
X119368766Y-91201500D01*
X119171684Y-91201500D01*
X119171682Y-91201500D01*
X118978395Y-91239947D01*
X118978385Y-91239950D01*
X118796317Y-91315364D01*
X118796304Y-91315371D01*
X118632443Y-91424860D01*
X118632439Y-91424863D01*
X118493088Y-91564214D01*
X118493085Y-91564218D01*
X118383596Y-91728079D01*
X118383589Y-91728092D01*
X118308175Y-91910160D01*
X118308172Y-91910170D01*
X118269725Y-92103456D01*
X118269725Y-92103459D01*
X118269725Y-92300541D01*
X118269725Y-92300543D01*
X118269724Y-92300543D01*
X118308172Y-92493829D01*
X118308175Y-92493839D01*
X118383589Y-92675907D01*
X118383596Y-92675920D01*
X118493085Y-92839781D01*
X118493088Y-92839785D01*
X118632439Y-92979136D01*
X118632443Y-92979139D01*
X118796304Y-93088628D01*
X118796317Y-93088635D01*
X118978385Y-93164049D01*
X118978390Y-93164051D01*
X118978394Y-93164051D01*
X118978395Y-93164052D01*
X119171681Y-93202500D01*
X119171684Y-93202500D01*
X119368768Y-93202500D01*
X119498807Y-93176632D01*
X119562060Y-93164051D01*
X119744139Y-93088632D01*
X119784286Y-93061805D01*
X119809953Y-93050224D01*
X119809450Y-93048894D01*
X119815146Y-93046736D01*
X119815145Y-93046736D01*
X119815150Y-93046735D01*
X120887052Y-92515400D01*
X120935565Y-92504036D01*
X120935503Y-92503561D01*
X120940277Y-92502932D01*
X120942123Y-92502500D01*
X120943560Y-92502500D01*
X120943562Y-92502500D01*
X121019989Y-92482021D01*
X121088511Y-92442460D01*
X121144460Y-92386511D01*
X122160460Y-91370511D01*
X122179986Y-91336691D01*
X122200021Y-91301989D01*
X122220500Y-91225562D01*
X122220500Y-87096906D01*
X122508500Y-87096906D01*
X122508500Y-88383094D01*
X122516931Y-88440960D01*
X122518494Y-88451688D01*
X122570222Y-88557500D01*
X122653499Y-88640777D01*
X122653500Y-88640777D01*
X122653502Y-88640779D01*
X122759312Y-88692506D01*
X122827906Y-88702500D01*
X122827911Y-88702500D01*
X125022089Y-88702500D01*
X125022094Y-88702500D01*
X125090688Y-88692506D01*
X125196498Y-88640779D01*
X125279779Y-88557498D01*
X125279779Y-88557496D01*
X125287044Y-88550232D01*
X125287885Y-88551073D01*
X125308481Y-88531104D01*
X125373558Y-88487622D01*
X125507622Y-88353558D01*
X125612956Y-88195915D01*
X125685512Y-88020751D01*
X125722500Y-87834798D01*
X125722500Y-87645202D01*
X125722499Y-87645197D01*
X139037500Y-87645197D01*
X139037500Y-87834802D01*
X139074486Y-88020743D01*
X139074488Y-88020751D01*
X139147042Y-88195912D01*
X139252377Y-88353558D01*
X139386438Y-88487619D01*
X139386442Y-88487622D01*
X139451515Y-88531103D01*
X139451520Y-88531106D01*
X139472117Y-88551074D01*
X139472958Y-88550234D01*
X139480220Y-88557496D01*
X139480221Y-88557498D01*
X139563502Y-88640779D01*
X139669312Y-88692506D01*
X139737906Y-88702500D01*
X139737911Y-88702500D01*
X141932089Y-88702500D01*
X141932094Y-88702500D01*
X142000688Y-88692506D01*
X142106498Y-88640779D01*
X142189779Y-88557498D01*
X142241506Y-88451688D01*
X142251500Y-88383094D01*
X142251500Y-87096906D01*
X142241506Y-87028312D01*
X142189779Y-86922502D01*
X142189777Y-86922500D01*
X142189777Y-86922499D01*
X142106500Y-86839222D01*
X142000688Y-86787494D01*
X141932094Y-86777500D01*
X139737906Y-86777500D01*
X139680744Y-86785828D01*
X139669311Y-86787494D01*
X139563499Y-86839222D01*
X139472957Y-86929765D01*
X139472118Y-86928926D01*
X139451521Y-86948892D01*
X139386444Y-86992376D01*
X139252376Y-87126443D01*
X139147042Y-87284087D01*
X139074488Y-87459248D01*
X139074486Y-87459256D01*
X139037500Y-87645197D01*
X125722499Y-87645197D01*
X125685512Y-87459249D01*
X125612956Y-87284085D01*
X125527434Y-87156092D01*
X125507622Y-87126441D01*
X125373564Y-86992383D01*
X125373560Y-86992380D01*
X125373558Y-86992378D01*
X125308475Y-86948890D01*
X125287883Y-86928926D01*
X125287043Y-86929767D01*
X125279779Y-86922503D01*
X125279779Y-86922502D01*
X125196498Y-86839221D01*
X125090688Y-86787494D01*
X125022094Y-86777500D01*
X122827906Y-86777500D01*
X122770744Y-86785828D01*
X122759311Y-86787494D01*
X122653499Y-86839222D01*
X122570222Y-86922499D01*
X122536061Y-86992378D01*
X122518494Y-87028312D01*
X122508500Y-87096906D01*
X122220500Y-87096906D01*
X122220500Y-84598203D01*
X122240185Y-84531164D01*
X122256819Y-84510522D01*
X122296819Y-84470522D01*
X122358142Y-84437037D01*
X122427834Y-84442021D01*
X122483767Y-84483893D01*
X122508184Y-84549357D01*
X122508500Y-84558203D01*
X122508500Y-85843094D01*
X122516931Y-85900960D01*
X122518494Y-85911688D01*
X122570222Y-86017500D01*
X122653499Y-86100777D01*
X122653500Y-86100777D01*
X122653502Y-86100779D01*
X122759312Y-86152506D01*
X122827906Y-86162500D01*
X122827911Y-86162500D01*
X125022089Y-86162500D01*
X125022094Y-86162500D01*
X125090688Y-86152506D01*
X125196498Y-86100779D01*
X125279779Y-86017498D01*
X125279779Y-86017496D01*
X125287044Y-86010232D01*
X125287885Y-86011073D01*
X125308481Y-85991104D01*
X125373558Y-85947622D01*
X125507622Y-85813558D01*
X125612956Y-85655915D01*
X125685512Y-85480751D01*
X125722500Y-85294798D01*
X125722500Y-85105202D01*
X125722499Y-85105197D01*
X139037500Y-85105197D01*
X139037500Y-85294802D01*
X139074486Y-85480743D01*
X139074488Y-85480751D01*
X139147042Y-85655912D01*
X139252377Y-85813558D01*
X139386438Y-85947619D01*
X139386442Y-85947622D01*
X139451515Y-85991103D01*
X139451520Y-85991106D01*
X139472117Y-86011074D01*
X139472958Y-86010234D01*
X139480220Y-86017496D01*
X139480221Y-86017498D01*
X139563502Y-86100779D01*
X139669312Y-86152506D01*
X139737906Y-86162500D01*
X139737911Y-86162500D01*
X141932089Y-86162500D01*
X141932094Y-86162500D01*
X142000688Y-86152506D01*
X142106498Y-86100779D01*
X142189779Y-86017498D01*
X142241506Y-85911688D01*
X142251500Y-85843094D01*
X142251500Y-84556906D01*
X142241506Y-84488312D01*
X142189779Y-84382502D01*
X142189777Y-84382500D01*
X142189777Y-84382499D01*
X142106500Y-84299222D01*
X142000688Y-84247494D01*
X141932094Y-84237500D01*
X139737906Y-84237500D01*
X139680744Y-84245828D01*
X139669311Y-84247494D01*
X139563499Y-84299222D01*
X139472957Y-84389765D01*
X139472118Y-84388926D01*
X139451521Y-84408892D01*
X139386444Y-84452376D01*
X139252376Y-84586443D01*
X139147042Y-84744087D01*
X139074488Y-84919248D01*
X139074486Y-84919256D01*
X139037500Y-85105197D01*
X125722499Y-85105197D01*
X125685512Y-84919249D01*
X125612956Y-84744085D01*
X125558898Y-84663181D01*
X125507622Y-84586441D01*
X125373564Y-84452383D01*
X125373560Y-84452380D01*
X125373558Y-84452378D01*
X125308475Y-84408890D01*
X125287883Y-84388926D01*
X125287043Y-84389767D01*
X125279779Y-84382503D01*
X125279779Y-84382502D01*
X125196498Y-84299221D01*
X125090688Y-84247494D01*
X125022094Y-84237500D01*
X122829203Y-84237500D01*
X122762164Y-84217815D01*
X122716409Y-84165011D01*
X122706465Y-84095853D01*
X122735490Y-84032297D01*
X122741522Y-84025819D01*
X123108522Y-83658819D01*
X123169845Y-83625334D01*
X123196203Y-83622500D01*
X125022089Y-83622500D01*
X125022094Y-83622500D01*
X125090688Y-83612506D01*
X125196498Y-83560779D01*
X125279779Y-83477498D01*
X125279779Y-83477496D01*
X125287044Y-83470232D01*
X125287885Y-83471073D01*
X125308481Y-83451104D01*
X125373558Y-83407622D01*
X125507622Y-83273558D01*
X125612956Y-83115915D01*
X125685512Y-82940751D01*
X125722500Y-82754798D01*
X125722500Y-82565202D01*
X125722499Y-82565197D01*
X139037500Y-82565197D01*
X139037500Y-82754802D01*
X139074486Y-82940743D01*
X139074488Y-82940751D01*
X139147042Y-83115912D01*
X139252377Y-83273558D01*
X139386438Y-83407619D01*
X139386442Y-83407622D01*
X139451515Y-83451103D01*
X139451520Y-83451106D01*
X139472117Y-83471074D01*
X139472958Y-83470234D01*
X139480220Y-83477496D01*
X139480221Y-83477498D01*
X139563502Y-83560779D01*
X139669312Y-83612506D01*
X139737906Y-83622500D01*
X139737911Y-83622500D01*
X141932089Y-83622500D01*
X141932094Y-83622500D01*
X142000688Y-83612506D01*
X142106498Y-83560779D01*
X142189779Y-83477498D01*
X142241506Y-83371688D01*
X142251500Y-83303094D01*
X142251500Y-82016906D01*
X142241506Y-81948312D01*
X142189779Y-81842502D01*
X142189777Y-81842500D01*
X142189777Y-81842499D01*
X142106500Y-81759222D01*
X142000688Y-81707494D01*
X141932094Y-81697500D01*
X139737906Y-81697500D01*
X139680744Y-81705828D01*
X139669311Y-81707494D01*
X139563499Y-81759222D01*
X139472957Y-81849765D01*
X139472118Y-81848926D01*
X139451521Y-81868892D01*
X139386444Y-81912376D01*
X139252376Y-82046443D01*
X139147042Y-82204087D01*
X139074488Y-82379248D01*
X139074486Y-82379256D01*
X139037500Y-82565197D01*
X125722499Y-82565197D01*
X125685512Y-82379249D01*
X125612956Y-82204085D01*
X125507623Y-82046443D01*
X125507622Y-82046441D01*
X125373564Y-81912383D01*
X125373560Y-81912380D01*
X125373558Y-81912378D01*
X125308475Y-81868890D01*
X125287883Y-81848926D01*
X125287043Y-81849767D01*
X125279779Y-81842503D01*
X125279779Y-81842502D01*
X125196498Y-81759221D01*
X125090688Y-81707494D01*
X125022094Y-81697500D01*
X122829203Y-81697500D01*
X122762164Y-81677815D01*
X122716409Y-81625011D01*
X122706465Y-81555853D01*
X122735490Y-81492297D01*
X122741522Y-81485819D01*
X123108522Y-81118819D01*
X123169845Y-81085334D01*
X123196203Y-81082500D01*
X125022089Y-81082500D01*
X125022094Y-81082500D01*
X125090688Y-81072506D01*
X125196498Y-81020779D01*
X125279779Y-80937498D01*
X125279779Y-80937496D01*
X125287044Y-80930232D01*
X125287885Y-80931073D01*
X125308481Y-80911104D01*
X125373558Y-80867622D01*
X125507622Y-80733558D01*
X125612956Y-80575915D01*
X125685512Y-80400751D01*
X125722500Y-80214798D01*
X125722500Y-80025202D01*
X125722499Y-80025197D01*
X139037500Y-80025197D01*
X139037500Y-80214802D01*
X139074486Y-80400743D01*
X139074488Y-80400751D01*
X139147042Y-80575912D01*
X139252377Y-80733558D01*
X139386438Y-80867619D01*
X139386442Y-80867622D01*
X139451515Y-80911103D01*
X139451520Y-80911106D01*
X139472117Y-80931074D01*
X139472958Y-80930234D01*
X139480220Y-80937496D01*
X139480221Y-80937498D01*
X139563502Y-81020779D01*
X139669312Y-81072506D01*
X139737906Y-81082500D01*
X139737911Y-81082500D01*
X141932089Y-81082500D01*
X141932094Y-81082500D01*
X142000688Y-81072506D01*
X142106498Y-81020779D01*
X142189779Y-80937498D01*
X142241506Y-80831688D01*
X142251500Y-80763094D01*
X142251500Y-79476906D01*
X142241506Y-79408312D01*
X142189779Y-79302502D01*
X142189777Y-79302500D01*
X142189777Y-79302499D01*
X142106500Y-79219222D01*
X142000688Y-79167494D01*
X141932094Y-79157500D01*
X139737906Y-79157500D01*
X139680744Y-79165828D01*
X139669311Y-79167494D01*
X139563499Y-79219222D01*
X139472957Y-79309765D01*
X139472118Y-79308926D01*
X139451521Y-79328892D01*
X139386444Y-79372376D01*
X139252376Y-79506443D01*
X139147042Y-79664087D01*
X139074488Y-79839248D01*
X139074486Y-79839256D01*
X139037500Y-80025197D01*
X125722499Y-80025197D01*
X125685512Y-79839249D01*
X125612956Y-79664085D01*
X125507623Y-79506443D01*
X125507622Y-79506441D01*
X125373564Y-79372383D01*
X125373560Y-79372380D01*
X125373558Y-79372378D01*
X125308475Y-79328890D01*
X125287883Y-79308926D01*
X125287043Y-79309767D01*
X125279779Y-79302503D01*
X125279779Y-79302502D01*
X125196498Y-79219221D01*
X125090688Y-79167494D01*
X125022094Y-79157500D01*
X122827906Y-79157500D01*
X122770744Y-79165828D01*
X122759311Y-79167494D01*
X122653499Y-79219222D01*
X122570222Y-79302499D01*
X122536061Y-79372378D01*
X122518494Y-79408312D01*
X122508500Y-79476906D01*
X122508500Y-79476911D01*
X122508500Y-80763091D01*
X122512985Y-80793880D01*
X122503170Y-80863057D01*
X122477961Y-80899436D01*
X118941489Y-84435910D01*
X118885541Y-84491857D01*
X118885535Y-84491865D01*
X118845982Y-84560374D01*
X118845979Y-84560379D01*
X118825500Y-84636809D01*
X118825500Y-85958099D01*
X118812600Y-86013170D01*
X118281265Y-87085070D01*
X118279388Y-87089796D01*
X118278775Y-87089552D01*
X118266439Y-87115570D01*
X118239366Y-87156088D01*
X118163950Y-87338160D01*
X118163947Y-87338170D01*
X118125500Y-87531456D01*
X118125500Y-87531459D01*
X118125500Y-87728541D01*
X118125500Y-87728543D01*
X118125499Y-87728543D01*
X109966500Y-87728543D01*
X109966500Y-87728541D01*
X109966500Y-87531459D01*
X109966500Y-87531456D01*
X109928052Y-87338170D01*
X109928051Y-87338169D01*
X109928051Y-87338165D01*
X109928049Y-87338160D01*
X109852635Y-87156092D01*
X109852628Y-87156079D01*
X109743139Y-86992218D01*
X109743136Y-86992214D01*
X109603785Y-86852863D01*
X109603781Y-86852860D01*
X109439920Y-86743371D01*
X109439907Y-86743364D01*
X109257839Y-86667950D01*
X109257829Y-86667947D01*
X109064543Y-86629500D01*
X109064541Y-86629500D01*
X108867459Y-86629500D01*
X108867457Y-86629500D01*
X108674170Y-86667947D01*
X108674160Y-86667950D01*
X108492093Y-86743364D01*
X108492079Y-86743372D01*
X108457976Y-86766158D01*
X108436789Y-86777512D01*
X107351163Y-87229958D01*
X107303462Y-87239500D01*
X106771554Y-87239500D01*
X106716024Y-87226371D01*
X105573493Y-86654130D01*
X105568742Y-86652223D01*
X105568951Y-86651701D01*
X105542769Y-86639240D01*
X105497598Y-86609059D01*
X105306420Y-86529870D01*
X105306412Y-86529868D01*
X105103469Y-86489500D01*
X105103465Y-86489500D01*
X104896535Y-86489500D01*
X104896530Y-86489500D01*
X104693587Y-86529868D01*
X104693579Y-86529870D01*
X104502403Y-86609058D01*
X104330342Y-86724024D01*
X104184024Y-86870342D01*
X104069058Y-87042403D01*
X103989870Y-87233579D01*
X103989868Y-87233587D01*
X103949500Y-87436530D01*
X101000000Y-87436530D01*
X101000000Y-84896530D01*
X103949500Y-84896530D01*
X103949500Y-85103469D01*
X103989868Y-85306412D01*
X103989870Y-85306420D01*
X104069058Y-85497596D01*
X104184024Y-85669657D01*
X104330342Y-85815975D01*
X104330345Y-85815977D01*
X104502402Y-85930941D01*
X104693580Y-86010130D01*
X104896530Y-86050499D01*
X104896534Y-86050500D01*
X104896535Y-86050500D01*
X105103466Y-86050500D01*
X105103467Y-86050499D01*
X105306420Y-86010130D01*
X105497598Y-85930941D01*
X105542470Y-85900957D01*
X105568233Y-85889205D01*
X105567792Y-85888055D01*
X105573481Y-85885873D01*
X105573483Y-85885871D01*
X105573486Y-85885871D01*
X106716022Y-85313629D01*
X106771552Y-85300500D01*
X117223560Y-85300500D01*
X117223562Y-85300500D01*
X117299989Y-85280021D01*
X117368511Y-85240460D01*
X117424460Y-85184511D01*
X121144460Y-81464511D01*
X121153895Y-81448167D01*
X121176219Y-81409503D01*
X121176220Y-81409501D01*
X121184020Y-81395991D01*
X121184021Y-81395989D01*
X121204500Y-81319562D01*
X121204500Y-78236832D01*
X121224185Y-78169793D01*
X121240814Y-78149156D01*
X122296819Y-77093150D01*
X122358142Y-77059666D01*
X122427834Y-77064650D01*
X122483767Y-77106522D01*
X122508184Y-77171986D01*
X122508500Y-77180832D01*
X122508500Y-78223094D01*
X122510502Y-78236832D01*
X122518494Y-78291688D01*
X122570222Y-78397500D01*
X122653499Y-78480777D01*
X122653500Y-78480777D01*
X122653502Y-78480779D01*
X122759312Y-78532506D01*
X122827906Y-78542500D01*
X122827911Y-78542500D01*
X125022089Y-78542500D01*
X125022094Y-78542500D01*
X125090688Y-78532506D01*
X125196498Y-78480779D01*
X125279779Y-78397498D01*
X125279779Y-78397496D01*
X125287044Y-78390232D01*
X125287885Y-78391073D01*
X125308481Y-78371104D01*
X125373558Y-78327622D01*
X125507622Y-78193558D01*
X125612956Y-78035915D01*
X125685512Y-77860751D01*
X125722500Y-77674798D01*
X125722500Y-77485202D01*
X125685512Y-77299249D01*
X125612956Y-77124085D01*
X125573243Y-77064650D01*
X125507622Y-76966441D01*
X125373564Y-76832383D01*
X125373560Y-76832380D01*
X125373558Y-76832378D01*
X125308475Y-76788890D01*
X125287883Y-76768926D01*
X125287043Y-76769767D01*
X125279779Y-76762503D01*
X125279779Y-76762502D01*
X125196498Y-76679221D01*
X125090688Y-76627494D01*
X125022094Y-76617500D01*
X123071832Y-76617500D01*
X123004793Y-76597815D01*
X122959038Y-76545011D01*
X122949094Y-76475853D01*
X122978119Y-76412297D01*
X122984151Y-76405819D01*
X123078610Y-76311361D01*
X123087972Y-76301999D01*
X139926551Y-76301999D01*
X139926552Y-76302000D01*
X140123985Y-76302000D01*
X140123989Y-76301999D01*
X141743447Y-76301999D01*
X141743447Y-76301998D01*
X140835000Y-75393552D01*
X139926551Y-76301999D01*
X123087972Y-76301999D01*
X123351152Y-76038819D01*
X123412475Y-76005334D01*
X123438833Y-76002500D01*
X125022089Y-76002500D01*
X125022094Y-76002500D01*
X125090688Y-75992506D01*
X125196498Y-75940779D01*
X125279779Y-75857498D01*
X125279779Y-75857496D01*
X125287044Y-75850232D01*
X125287885Y-75851073D01*
X125308481Y-75831104D01*
X125373558Y-75787622D01*
X125507622Y-75653558D01*
X125612956Y-75495915D01*
X125685512Y-75320751D01*
X125722500Y-75134798D01*
X125722500Y-74945202D01*
X125722500Y-74945199D01*
X125721601Y-74940678D01*
X138738000Y-74940678D01*
X138738000Y-75139321D01*
X138769075Y-75335520D01*
X138769075Y-75335523D01*
X138830457Y-75524437D01*
X138920641Y-75701432D01*
X138947730Y-75738715D01*
X138947731Y-75738716D01*
X139562352Y-75124094D01*
X139585792Y-75211571D01*
X139644311Y-75312930D01*
X139727070Y-75395689D01*
X139828429Y-75454208D01*
X139915904Y-75477647D01*
X139296360Y-76097191D01*
X139296360Y-76097192D01*
X139360308Y-76161140D01*
X140036948Y-75484500D01*
X140058520Y-75484500D01*
X140171571Y-75454208D01*
X140272930Y-75395689D01*
X140355689Y-75312930D01*
X140414208Y-75211571D01*
X140444500Y-75098520D01*
X140444500Y-75076948D01*
X140481448Y-75040000D01*
X141188552Y-75040000D01*
X142309691Y-76161139D01*
X142418192Y-76052639D01*
X142418196Y-76052634D01*
X142502102Y-75910756D01*
X142502103Y-75910753D01*
X142548088Y-75752473D01*
X142548089Y-75752467D01*
X142550999Y-75715488D01*
X142550999Y-74364530D01*
X142550998Y-74364508D01*
X142548089Y-74327533D01*
X142502102Y-74169242D01*
X142418196Y-74027365D01*
X142418189Y-74027356D01*
X142396302Y-74005469D01*
X142396297Y-74005465D01*
X142309691Y-73918860D01*
X141188552Y-75040000D01*
X140481448Y-75040000D01*
X140444500Y-75003052D01*
X140444500Y-74981480D01*
X140414208Y-74868429D01*
X140355689Y-74767070D01*
X140272930Y-74684311D01*
X140171571Y-74625792D01*
X140058520Y-74595500D01*
X140036948Y-74595500D01*
X139360307Y-73918859D01*
X139296360Y-73982807D01*
X139915905Y-74602352D01*
X139828429Y-74625792D01*
X139727070Y-74684311D01*
X139644311Y-74767070D01*
X139585792Y-74868429D01*
X139562352Y-74955905D01*
X138947730Y-74341282D01*
X138947729Y-74341283D01*
X138920643Y-74378564D01*
X138830457Y-74555562D01*
X138769075Y-74744476D01*
X138769075Y-74744479D01*
X138738000Y-74940678D01*
X125721601Y-74940678D01*
X125688753Y-74775542D01*
X125685512Y-74759249D01*
X125612956Y-74584085D01*
X125569524Y-74519085D01*
X125507622Y-74426441D01*
X125373564Y-74292383D01*
X125373560Y-74292380D01*
X125373558Y-74292378D01*
X125308475Y-74248890D01*
X125287883Y-74228926D01*
X125287043Y-74229767D01*
X125279779Y-74222503D01*
X125279779Y-74222502D01*
X125196498Y-74139221D01*
X125090688Y-74087494D01*
X125022094Y-74077500D01*
X122827906Y-74077500D01*
X122770744Y-74085828D01*
X122759311Y-74087494D01*
X122653499Y-74139222D01*
X122570222Y-74222499D01*
X122518875Y-74327533D01*
X122518494Y-74328312D01*
X122508500Y-74396906D01*
X122508500Y-75683094D01*
X122516477Y-75737844D01*
X122518494Y-75751689D01*
X122568214Y-75853393D01*
X122579972Y-75922266D01*
X122552629Y-75986563D01*
X122544494Y-75995534D01*
X120719489Y-77820540D01*
X120663541Y-77876487D01*
X120663535Y-77876495D01*
X120623982Y-77945004D01*
X120623979Y-77945009D01*
X120603500Y-78021439D01*
X120603500Y-81104167D01*
X120583815Y-81171206D01*
X120567181Y-81191848D01*
X117095848Y-84663181D01*
X117034525Y-84696666D01*
X117008167Y-84699500D01*
X106771554Y-84699500D01*
X106716024Y-84686371D01*
X105573493Y-84114130D01*
X105568742Y-84112223D01*
X105568951Y-84111701D01*
X105542769Y-84099240D01*
X105497598Y-84069059D01*
X105306420Y-83989870D01*
X105306412Y-83989868D01*
X105103469Y-83949500D01*
X105103465Y-83949500D01*
X104896535Y-83949500D01*
X104896530Y-83949500D01*
X104693587Y-83989868D01*
X104693579Y-83989870D01*
X104502403Y-84069058D01*
X104330342Y-84184024D01*
X104184024Y-84330342D01*
X104069058Y-84502403D01*
X103989870Y-84693579D01*
X103989868Y-84693587D01*
X103949500Y-84896530D01*
X101000000Y-84896530D01*
X101000000Y-82356530D01*
X103949500Y-82356530D01*
X103949500Y-82563469D01*
X103989868Y-82766412D01*
X103989870Y-82766420D01*
X104069058Y-82957596D01*
X104184024Y-83129657D01*
X104330342Y-83275975D01*
X104330345Y-83275977D01*
X104502402Y-83390941D01*
X104693580Y-83470130D01*
X104896530Y-83510499D01*
X104896534Y-83510500D01*
X104896535Y-83510500D01*
X105103466Y-83510500D01*
X105103467Y-83510499D01*
X105306420Y-83470130D01*
X105497598Y-83390941D01*
X105669655Y-83275977D01*
X105815977Y-83129655D01*
X105930941Y-82957598D01*
X106010130Y-82766420D01*
X106050500Y-82563465D01*
X106050500Y-82356535D01*
X106010130Y-82153580D01*
X105930941Y-81962402D01*
X105815977Y-81790345D01*
X105815975Y-81790342D01*
X105669657Y-81644024D01*
X105537698Y-81555853D01*
X105497598Y-81529059D01*
X105306420Y-81449870D01*
X105306412Y-81449868D01*
X105103469Y-81409500D01*
X105103465Y-81409500D01*
X104896535Y-81409500D01*
X104896530Y-81409500D01*
X104693587Y-81449868D01*
X104693579Y-81449870D01*
X104502403Y-81529058D01*
X104330342Y-81644024D01*
X104184024Y-81790342D01*
X104069058Y-81962403D01*
X103989870Y-82153579D01*
X103989868Y-82153587D01*
X103949500Y-82356530D01*
X101000000Y-82356530D01*
X101000000Y-79816530D01*
X103949500Y-79816530D01*
X103949500Y-80023469D01*
X103989868Y-80226412D01*
X103989870Y-80226420D01*
X104069058Y-80417596D01*
X104184024Y-80589657D01*
X104330342Y-80735975D01*
X104330345Y-80735977D01*
X104502402Y-80850941D01*
X104693580Y-80930130D01*
X104896530Y-80970499D01*
X104896534Y-80970500D01*
X104896535Y-80970500D01*
X105103466Y-80970500D01*
X105103467Y-80970499D01*
X105306420Y-80930130D01*
X105497598Y-80850941D01*
X105542470Y-80820957D01*
X105568233Y-80809205D01*
X105567792Y-80808055D01*
X105573481Y-80805873D01*
X105573483Y-80805871D01*
X105573486Y-80805871D01*
X106716022Y-80233629D01*
X106771552Y-80220500D01*
X107428968Y-80220500D01*
X107490747Y-80236985D01*
X108507009Y-80820960D01*
X108553913Y-80847912D01*
X108559757Y-80849995D01*
X108587015Y-80863693D01*
X108636311Y-80896632D01*
X108636313Y-80896633D01*
X108636317Y-80896635D01*
X108818385Y-80972049D01*
X108818390Y-80972051D01*
X108818394Y-80972051D01*
X108818395Y-80972052D01*
X109011681Y-81010500D01*
X109011684Y-81010500D01*
X109208768Y-81010500D01*
X109338807Y-80984632D01*
X109402060Y-80972051D01*
X109549203Y-80911103D01*
X109584132Y-80896635D01*
X109584132Y-80896634D01*
X109584139Y-80896632D01*
X109748007Y-80787139D01*
X109887364Y-80647782D01*
X109996857Y-80483914D01*
X110072276Y-80301835D01*
X110110725Y-80108543D01*
X118269724Y-80108543D01*
X118308172Y-80301829D01*
X118308175Y-80301839D01*
X118383589Y-80483907D01*
X118383596Y-80483920D01*
X118493085Y-80647781D01*
X118493088Y-80647785D01*
X118632439Y-80787136D01*
X118632443Y-80787139D01*
X118796304Y-80896628D01*
X118796317Y-80896635D01*
X118978385Y-80972049D01*
X118978390Y-80972051D01*
X118978394Y-80972051D01*
X118978395Y-80972052D01*
X119171681Y-81010500D01*
X119171684Y-81010500D01*
X119368768Y-81010500D01*
X119498807Y-80984632D01*
X119562060Y-80972051D01*
X119709203Y-80911103D01*
X119744132Y-80896635D01*
X119744132Y-80896634D01*
X119744139Y-80896632D01*
X119908007Y-80787139D01*
X120047364Y-80647782D01*
X120156857Y-80483914D01*
X120232276Y-80301835D01*
X120270725Y-80108541D01*
X120270725Y-79911459D01*
X120270725Y-79911456D01*
X120232277Y-79718170D01*
X120232276Y-79718169D01*
X120232276Y-79718165D01*
X120232274Y-79718160D01*
X120156860Y-79536092D01*
X120156853Y-79536079D01*
X120047364Y-79372218D01*
X120047361Y-79372214D01*
X119908010Y-79232863D01*
X119908006Y-79232860D01*
X119744145Y-79123371D01*
X119744132Y-79123364D01*
X119562064Y-79047950D01*
X119562054Y-79047947D01*
X119368768Y-79009500D01*
X119368766Y-79009500D01*
X119171684Y-79009500D01*
X119171682Y-79009500D01*
X118978395Y-79047947D01*
X118978385Y-79047950D01*
X118796317Y-79123364D01*
X118796304Y-79123371D01*
X118632443Y-79232860D01*
X118632439Y-79232863D01*
X118493088Y-79372214D01*
X118493085Y-79372218D01*
X118383596Y-79536079D01*
X118383589Y-79536092D01*
X118308175Y-79718160D01*
X118308172Y-79718170D01*
X118269725Y-79911456D01*
X118269725Y-79911459D01*
X118269725Y-80108541D01*
X118269725Y-80108543D01*
X118269724Y-80108543D01*
X110110725Y-80108543D01*
X110110725Y-80108541D01*
X110110725Y-79911459D01*
X110110725Y-79911456D01*
X110072277Y-79718170D01*
X110072276Y-79718169D01*
X110072276Y-79718165D01*
X110072274Y-79718160D01*
X109996860Y-79536092D01*
X109996853Y-79536079D01*
X109887364Y-79372218D01*
X109887361Y-79372214D01*
X109748010Y-79232863D01*
X109748006Y-79232860D01*
X109584145Y-79123371D01*
X109584132Y-79123364D01*
X109402064Y-79047950D01*
X109402054Y-79047947D01*
X109208768Y-79009500D01*
X109208766Y-79009500D01*
X109011684Y-79009500D01*
X109011682Y-79009500D01*
X108818395Y-79047947D01*
X108818385Y-79047950D01*
X108636318Y-79123364D01*
X108636304Y-79123372D01*
X108602201Y-79146158D01*
X108581014Y-79157512D01*
X107495388Y-79609958D01*
X107447687Y-79619500D01*
X106771554Y-79619500D01*
X106716024Y-79606371D01*
X105573493Y-79034130D01*
X105568742Y-79032223D01*
X105568951Y-79031701D01*
X105542769Y-79019240D01*
X105497598Y-78989059D01*
X105306420Y-78909870D01*
X105306412Y-78909868D01*
X105103469Y-78869500D01*
X105103465Y-78869500D01*
X104896535Y-78869500D01*
X104896530Y-78869500D01*
X104693587Y-78909868D01*
X104693579Y-78909870D01*
X104502403Y-78989058D01*
X104330342Y-79104024D01*
X104184024Y-79250342D01*
X104069058Y-79422403D01*
X103989870Y-79613579D01*
X103989868Y-79613587D01*
X103949500Y-79816530D01*
X101000000Y-79816530D01*
X101000000Y-72020438D01*
X102239500Y-72020438D01*
X102239500Y-74959562D01*
X102245373Y-74981480D01*
X102259979Y-75035991D01*
X102259981Y-75035994D01*
X102285134Y-75079559D01*
X102285134Y-75079562D01*
X102285136Y-75079562D01*
X102299472Y-75104394D01*
X102299539Y-75104509D01*
X102299541Y-75104512D01*
X103534836Y-76339807D01*
X103564818Y-76388356D01*
X103968077Y-77600889D01*
X103970085Y-77605592D01*
X103969570Y-77605811D01*
X103979271Y-77633138D01*
X103989868Y-77686414D01*
X103989870Y-77686420D01*
X104069058Y-77877596D01*
X104184024Y-78049657D01*
X104330342Y-78195975D01*
X104330345Y-78195977D01*
X104502402Y-78310941D01*
X104693580Y-78390130D01*
X104855919Y-78422421D01*
X104896530Y-78430499D01*
X104896534Y-78430500D01*
X104896535Y-78430500D01*
X105103466Y-78430500D01*
X105103467Y-78430499D01*
X105306420Y-78390130D01*
X105497598Y-78310941D01*
X105669655Y-78195977D01*
X105815977Y-78049655D01*
X105930941Y-77877598D01*
X106010130Y-77686420D01*
X106050500Y-77483465D01*
X106050500Y-77276535D01*
X106010130Y-77073580D01*
X105930941Y-76882402D01*
X105815977Y-76710345D01*
X105815975Y-76710342D01*
X105669657Y-76564024D01*
X105514812Y-76460561D01*
X105497598Y-76449059D01*
X105493781Y-76447478D01*
X105448112Y-76428561D01*
X105393709Y-76384720D01*
X105371644Y-76318426D01*
X105388923Y-76250726D01*
X105440061Y-76203116D01*
X105495565Y-76190000D01*
X105897828Y-76190000D01*
X105897844Y-76189999D01*
X105957372Y-76183598D01*
X105957379Y-76183596D01*
X106092086Y-76133354D01*
X106092093Y-76133350D01*
X106207187Y-76047190D01*
X106207190Y-76047187D01*
X106293350Y-75932093D01*
X106293354Y-75932086D01*
X106343596Y-75797379D01*
X106343598Y-75797372D01*
X106349999Y-75737844D01*
X106350000Y-75737827D01*
X106350000Y-75090000D01*
X105433012Y-75090000D01*
X105465925Y-75032993D01*
X105500000Y-74905826D01*
X105500000Y-74774174D01*
X105465925Y-74647007D01*
X105433012Y-74590000D01*
X106350000Y-74590000D01*
X106350000Y-73942172D01*
X106349999Y-73942153D01*
X106343598Y-73882624D01*
X106343596Y-73882620D01*
X106304576Y-73778000D01*
X139926551Y-73778000D01*
X140835000Y-74686448D01*
X141743448Y-73778000D01*
X139926551Y-73778000D01*
X106304576Y-73778000D01*
X106293354Y-73747913D01*
X106293350Y-73747906D01*
X106207190Y-73632812D01*
X106207187Y-73632809D01*
X106092093Y-73546649D01*
X106092086Y-73546645D01*
X105957379Y-73496403D01*
X105957372Y-73496401D01*
X105897844Y-73490000D01*
X105250000Y-73490000D01*
X105250000Y-74406988D01*
X105192993Y-74374075D01*
X105065826Y-74340000D01*
X104934174Y-74340000D01*
X104807007Y-74374075D01*
X104750000Y-74406988D01*
X104750000Y-73490000D01*
X104102155Y-73490000D01*
X104042627Y-73496401D01*
X104042620Y-73496403D01*
X103907913Y-73546645D01*
X103907906Y-73546649D01*
X103792812Y-73632809D01*
X103792809Y-73632812D01*
X103706649Y-73747906D01*
X103706645Y-73747913D01*
X103656403Y-73882620D01*
X103656402Y-73882624D01*
X103650000Y-73942155D01*
X103650000Y-74590000D01*
X104566988Y-74590000D01*
X104534075Y-74647007D01*
X104500000Y-74774174D01*
X104500000Y-74905826D01*
X104534075Y-75032993D01*
X104566988Y-75090000D01*
X103650000Y-75090000D01*
X103650000Y-75305667D01*
X103630315Y-75372706D01*
X103577511Y-75418461D01*
X103508353Y-75428405D01*
X103444797Y-75399380D01*
X103438319Y-75393348D01*
X102876819Y-74831848D01*
X102843334Y-74770525D01*
X102840500Y-74744167D01*
X102840500Y-72235833D01*
X102860185Y-72168794D01*
X102876819Y-72148152D01*
X103168065Y-71856906D01*
X122508500Y-71856906D01*
X122508500Y-73143094D01*
X122518494Y-73211688D01*
X122570222Y-73317500D01*
X122653499Y-73400777D01*
X122653500Y-73400777D01*
X122653502Y-73400779D01*
X122759312Y-73452506D01*
X122827906Y-73462500D01*
X122827911Y-73462500D01*
X125022089Y-73462500D01*
X125022094Y-73462500D01*
X125090688Y-73452506D01*
X125196498Y-73400779D01*
X125279779Y-73317498D01*
X125279779Y-73317496D01*
X125287044Y-73310232D01*
X125287885Y-73311073D01*
X125308481Y-73291104D01*
X125373558Y-73247622D01*
X125507622Y-73113558D01*
X125612956Y-72955915D01*
X125685512Y-72780751D01*
X125722500Y-72594798D01*
X125722500Y-72405202D01*
X125722499Y-72405197D01*
X139037500Y-72405197D01*
X139037500Y-72594802D01*
X139074486Y-72780743D01*
X139074488Y-72780751D01*
X139147042Y-72955912D01*
X139252377Y-73113558D01*
X139386438Y-73247619D01*
X139386442Y-73247622D01*
X139451515Y-73291103D01*
X139451520Y-73291106D01*
X139472117Y-73311074D01*
X139472958Y-73310234D01*
X139480220Y-73317496D01*
X139480221Y-73317498D01*
X139563502Y-73400779D01*
X139669312Y-73452506D01*
X139737906Y-73462500D01*
X139737911Y-73462500D01*
X141932089Y-73462500D01*
X141932094Y-73462500D01*
X142000688Y-73452506D01*
X142106498Y-73400779D01*
X142189779Y-73317498D01*
X142241506Y-73211688D01*
X142251500Y-73143094D01*
X142251500Y-71856906D01*
X142241506Y-71788312D01*
X142189779Y-71682502D01*
X142189777Y-71682500D01*
X142189777Y-71682499D01*
X142106500Y-71599222D01*
X142000688Y-71547494D01*
X141932094Y-71537500D01*
X139737906Y-71537500D01*
X139680744Y-71545828D01*
X139669311Y-71547494D01*
X139563499Y-71599222D01*
X139472957Y-71689765D01*
X139472118Y-71688926D01*
X139451521Y-71708892D01*
X139386444Y-71752376D01*
X139252376Y-71886443D01*
X139147042Y-72044087D01*
X139074488Y-72219248D01*
X139074486Y-72219256D01*
X139037500Y-72405197D01*
X125722499Y-72405197D01*
X125685512Y-72219249D01*
X125612956Y-72044085D01*
X125549645Y-71949333D01*
X125507622Y-71886441D01*
X125373564Y-71752383D01*
X125373560Y-71752380D01*
X125373558Y-71752378D01*
X125308475Y-71708890D01*
X125287883Y-71688926D01*
X125287043Y-71689767D01*
X125279779Y-71682503D01*
X125279779Y-71682502D01*
X125196498Y-71599221D01*
X125090688Y-71547494D01*
X125022094Y-71537500D01*
X122827906Y-71537500D01*
X122770744Y-71545828D01*
X122759311Y-71547494D01*
X122653499Y-71599222D01*
X122570222Y-71682499D01*
X122536061Y-71752378D01*
X122518494Y-71788312D01*
X122508500Y-71856906D01*
X103168065Y-71856906D01*
X107708152Y-67316819D01*
X107769475Y-67283334D01*
X107795833Y-67280500D01*
X150954224Y-67280500D01*
X151021263Y-67300185D01*
X151041905Y-67316819D01*
X155586738Y-71861652D01*
X155620223Y-71922975D01*
X155623057Y-71949333D01*
X155623057Y-74467722D01*
X155603372Y-74534761D01*
X155586738Y-74555403D01*
X154534691Y-75607450D01*
X154473368Y-75640935D01*
X154403676Y-75635951D01*
X154347743Y-75594079D01*
X154323326Y-75528615D01*
X154336525Y-75463474D01*
X154366755Y-75404144D01*
X154429990Y-75209530D01*
X154462000Y-75007430D01*
X154462000Y-74802795D01*
X154429990Y-74600695D01*
X154366755Y-74406081D01*
X154273859Y-74223763D01*
X154241474Y-74179190D01*
X154241474Y-74179189D01*
X153562000Y-74858666D01*
X153562000Y-74852452D01*
X153534741Y-74750719D01*
X153482080Y-74659507D01*
X153407606Y-74585033D01*
X153316394Y-74532372D01*
X153214661Y-74505113D01*
X153208446Y-74505113D01*
X153887922Y-73825637D01*
X153887921Y-73825636D01*
X153843359Y-73793260D01*
X153843350Y-73793254D01*
X153661031Y-73700357D01*
X153466417Y-73637122D01*
X153264317Y-73605113D01*
X153059683Y-73605113D01*
X152857582Y-73637122D01*
X152662968Y-73700357D01*
X152480644Y-73793256D01*
X152436077Y-73825636D01*
X152436077Y-73825637D01*
X153115554Y-74505113D01*
X153109339Y-74505113D01*
X153007606Y-74532372D01*
X152916394Y-74585033D01*
X152841920Y-74659507D01*
X152789259Y-74750719D01*
X152762000Y-74852452D01*
X152762000Y-74858666D01*
X152082524Y-74179190D01*
X152082523Y-74179190D01*
X152050143Y-74223757D01*
X151957244Y-74406081D01*
X151894009Y-74600695D01*
X151862000Y-74802795D01*
X151862000Y-75007430D01*
X151894009Y-75209530D01*
X151957244Y-75404144D01*
X152050141Y-75586463D01*
X152050147Y-75586472D01*
X152082523Y-75631034D01*
X152082524Y-75631035D01*
X152762000Y-74951559D01*
X152762000Y-74957774D01*
X152789259Y-75059507D01*
X152841920Y-75150719D01*
X152916394Y-75225193D01*
X153007606Y-75277854D01*
X153109339Y-75305113D01*
X153115553Y-75305113D01*
X152436076Y-75984587D01*
X152480650Y-76016972D01*
X152662968Y-76109868D01*
X152808294Y-76157088D01*
X152831430Y-76172908D01*
X152856239Y-76185943D01*
X152859878Y-76192361D01*
X152865969Y-76196526D01*
X152876879Y-76222343D01*
X152890703Y-76246722D01*
X152890294Y-76254088D01*
X152893167Y-76260885D01*
X152888386Y-76288504D01*
X152886836Y-76316485D01*
X152882510Y-76322460D01*
X152881252Y-76329731D01*
X152862299Y-76350381D01*
X152845867Y-76373082D01*
X152836688Y-76378286D01*
X152834008Y-76381207D01*
X152815165Y-76390491D01*
X152800871Y-76396085D01*
X152755681Y-76404613D01*
X152342247Y-76404613D01*
X152283770Y-76416244D01*
X152283769Y-76416245D01*
X152217450Y-76460558D01*
X152217447Y-76460561D01*
X152191705Y-76499086D01*
X152171731Y-76522203D01*
X151512793Y-77117511D01*
X151449852Y-77147846D01*
X151429667Y-77149500D01*
X147975900Y-77149500D01*
X147920829Y-77136600D01*
X146848919Y-76605261D01*
X146844201Y-76603386D01*
X146844443Y-76602775D01*
X146818424Y-76590435D01*
X146777924Y-76563374D01*
X146777917Y-76563370D01*
X146777914Y-76563368D01*
X146777910Y-76563366D01*
X146777906Y-76563364D01*
X146595839Y-76487950D01*
X146595830Y-76487947D01*
X146526886Y-76474233D01*
X146464976Y-76441847D01*
X146430402Y-76381131D01*
X146434143Y-76311361D01*
X146475010Y-76254690D01*
X146531682Y-76230142D01*
X146608423Y-76217988D01*
X146803031Y-76154755D01*
X146985349Y-76061859D01*
X147029921Y-76029474D01*
X146350447Y-75350000D01*
X146356661Y-75350000D01*
X146458394Y-75322741D01*
X146549606Y-75270080D01*
X146624080Y-75195606D01*
X146676741Y-75104394D01*
X146704000Y-75002661D01*
X146704000Y-74996447D01*
X147383474Y-75675921D01*
X147415859Y-75631349D01*
X147508755Y-75449031D01*
X147571990Y-75254417D01*
X147604000Y-75052317D01*
X147604000Y-74847682D01*
X147599192Y-74817327D01*
X147571990Y-74645582D01*
X147508755Y-74450968D01*
X147415859Y-74268650D01*
X147383474Y-74224077D01*
X147383474Y-74224076D01*
X146704000Y-74903551D01*
X146704000Y-74897339D01*
X146676741Y-74795606D01*
X146624080Y-74704394D01*
X146549606Y-74629920D01*
X146458394Y-74577259D01*
X146356661Y-74550000D01*
X146350446Y-74550000D01*
X147029921Y-73870525D01*
X147029921Y-73870522D01*
X146985359Y-73838147D01*
X146985350Y-73838141D01*
X146803031Y-73745244D01*
X146608417Y-73682009D01*
X146406317Y-73650000D01*
X146201683Y-73650000D01*
X145999582Y-73682009D01*
X145804968Y-73745244D01*
X145622644Y-73838143D01*
X145578077Y-73870523D01*
X145578077Y-73870524D01*
X146257554Y-74550000D01*
X146251339Y-74550000D01*
X146149606Y-74577259D01*
X146058394Y-74629920D01*
X145983920Y-74704394D01*
X145931259Y-74795606D01*
X145904000Y-74897339D01*
X145904000Y-74903553D01*
X145224524Y-74224077D01*
X145224523Y-74224077D01*
X145192143Y-74268644D01*
X145099244Y-74450968D01*
X145036009Y-74645582D01*
X145004000Y-74847682D01*
X145004000Y-75052317D01*
X145036009Y-75254417D01*
X145099244Y-75449031D01*
X145192141Y-75631350D01*
X145192147Y-75631359D01*
X145224523Y-75675921D01*
X145224524Y-75675922D01*
X145904000Y-74996446D01*
X145904000Y-75002661D01*
X145931259Y-75104394D01*
X145983920Y-75195606D01*
X146058394Y-75270080D01*
X146149606Y-75322741D01*
X146251339Y-75350000D01*
X146257553Y-75350000D01*
X145578076Y-76029474D01*
X145622650Y-76061859D01*
X145804968Y-76154755D01*
X145999576Y-76217988D01*
X146076317Y-76230142D01*
X146139452Y-76260071D01*
X146176384Y-76319383D01*
X146175386Y-76389245D01*
X146136777Y-76447478D01*
X146081113Y-76474233D01*
X146012169Y-76487947D01*
X146012160Y-76487950D01*
X145830093Y-76563364D01*
X145830077Y-76563373D01*
X145776387Y-76599247D01*
X145750151Y-76612577D01*
X145742995Y-76615198D01*
X144683193Y-77261373D01*
X144618641Y-77279500D01*
X142375500Y-77279500D01*
X142308461Y-77259815D01*
X142262706Y-77207011D01*
X142251500Y-77155500D01*
X142251500Y-76936911D01*
X142251500Y-76936906D01*
X142241506Y-76868312D01*
X142189779Y-76762502D01*
X142189777Y-76762500D01*
X142189777Y-76762499D01*
X142106500Y-76679222D01*
X142000688Y-76627494D01*
X141932094Y-76617500D01*
X139737906Y-76617500D01*
X139680744Y-76625828D01*
X139669311Y-76627494D01*
X139563499Y-76679222D01*
X139472957Y-76769765D01*
X139472118Y-76768926D01*
X139451521Y-76788892D01*
X139386444Y-76832376D01*
X139252376Y-76966443D01*
X139147042Y-77124087D01*
X139074488Y-77299248D01*
X139074486Y-77299256D01*
X139037500Y-77485197D01*
X139037500Y-77674802D01*
X139074486Y-77860743D01*
X139074488Y-77860751D01*
X139147042Y-78035912D01*
X139252377Y-78193558D01*
X139386438Y-78327619D01*
X139386442Y-78327622D01*
X139451515Y-78371103D01*
X139451520Y-78371106D01*
X139472117Y-78391074D01*
X139472958Y-78390234D01*
X139480220Y-78397496D01*
X139480221Y-78397498D01*
X139563502Y-78480779D01*
X139669312Y-78532506D01*
X139737906Y-78542500D01*
X139737911Y-78542500D01*
X141932089Y-78542500D01*
X141932094Y-78542500D01*
X142000688Y-78532506D01*
X142106498Y-78480779D01*
X142189779Y-78397498D01*
X142241506Y-78291688D01*
X142251500Y-78223094D01*
X142251500Y-78004500D01*
X142271185Y-77937461D01*
X142323989Y-77891706D01*
X142375500Y-77880500D01*
X144644774Y-77880500D01*
X144689652Y-77888906D01*
X145068297Y-78035912D01*
X145799673Y-78319864D01*
X145823686Y-78332355D01*
X145830086Y-78336632D01*
X145830088Y-78336633D01*
X145830090Y-78336634D01*
X145908650Y-78369174D01*
X146012165Y-78412051D01*
X146064299Y-78422421D01*
X146077436Y-78426877D01*
X146079374Y-78427442D01*
X146085313Y-78429077D01*
X146099910Y-78429504D01*
X146182168Y-78445867D01*
X146205458Y-78450500D01*
X146205459Y-78450500D01*
X146402543Y-78450500D01*
X146551670Y-78420836D01*
X146595835Y-78412051D01*
X146777914Y-78336632D01*
X146818061Y-78309805D01*
X146843728Y-78298224D01*
X146843225Y-78296894D01*
X146848921Y-78294736D01*
X146848920Y-78294736D01*
X146848925Y-78294735D01*
X147907139Y-77770185D01*
X147920827Y-77763400D01*
X147975898Y-77750500D01*
X151438197Y-77750500D01*
X151505236Y-77770185D01*
X151516759Y-77778563D01*
X152223603Y-78357393D01*
X152223608Y-78357396D01*
X152223609Y-78357397D01*
X152223611Y-78357398D01*
X152258860Y-78377336D01*
X152283769Y-78393980D01*
X152342252Y-78405613D01*
X152346565Y-78405613D01*
X152349574Y-78406223D01*
X152353177Y-78405613D01*
X152353531Y-78405613D01*
X152355552Y-78406288D01*
X152363598Y-78405613D01*
X153981750Y-78405613D01*
X153981751Y-78405612D01*
X153996568Y-78402665D01*
X154040229Y-78393981D01*
X154040229Y-78393980D01*
X154040231Y-78393980D01*
X154106552Y-78349665D01*
X154150867Y-78283344D01*
X154150867Y-78283342D01*
X154150868Y-78283342D01*
X154162499Y-78224865D01*
X154162500Y-78224863D01*
X154162500Y-77811428D01*
X154171026Y-77766243D01*
X154429177Y-77106522D01*
X154769194Y-76237590D01*
X154796984Y-76195098D01*
X156164017Y-74828067D01*
X156203327Y-74759979D01*
X156203333Y-74759982D01*
X156203369Y-74759904D01*
X156203578Y-74759545D01*
X156224057Y-74683118D01*
X156224057Y-71733938D01*
X156203579Y-71657512D01*
X156164017Y-71588989D01*
X151314568Y-66739540D01*
X151314566Y-66739539D01*
X151314561Y-66739535D01*
X151246052Y-66699982D01*
X151246047Y-66699979D01*
X151220570Y-66693152D01*
X151169619Y-66679500D01*
X107580438Y-66679500D01*
X107542224Y-66689739D01*
X107504009Y-66699979D01*
X107504004Y-66699982D01*
X107435495Y-66739535D01*
X107435487Y-66739541D01*
X102299541Y-71875487D01*
X102299535Y-71875495D01*
X102259982Y-71944004D01*
X102259979Y-71944009D01*
X102246326Y-71994962D01*
X102239500Y-72020438D01*
X101000000Y-72020438D01*
X101000000Y-63876872D01*
X101999500Y-63876872D01*
X101999500Y-64139127D01*
X102026123Y-64341339D01*
X102033730Y-64399116D01*
X102099461Y-64644428D01*
X102101602Y-64652418D01*
X102101605Y-64652428D01*
X102201953Y-64894690D01*
X102201958Y-64894700D01*
X102333075Y-65121803D01*
X102492718Y-65329851D01*
X102492726Y-65329860D01*
X102678140Y-65515274D01*
X102678148Y-65515281D01*
X102886196Y-65674924D01*
X103113299Y-65806041D01*
X103113309Y-65806046D01*
X103336267Y-65898398D01*
X103355581Y-65906398D01*
X103608884Y-65974270D01*
X103868880Y-66008500D01*
X103868887Y-66008500D01*
X104131113Y-66008500D01*
X104131120Y-66008500D01*
X104391116Y-65974270D01*
X104644419Y-65906398D01*
X104886697Y-65806043D01*
X105113803Y-65674924D01*
X105321851Y-65515282D01*
X105321855Y-65515277D01*
X105321860Y-65515274D01*
X105507274Y-65329860D01*
X105507277Y-65329855D01*
X105507282Y-65329851D01*
X105666924Y-65121803D01*
X105798043Y-64894697D01*
X105801356Y-64886700D01*
X105898394Y-64652428D01*
X105898398Y-64652419D01*
X105966270Y-64399116D01*
X106000500Y-64139120D01*
X106000500Y-63876880D01*
X105999446Y-63868872D01*
X153999500Y-63868872D01*
X153999500Y-64131127D01*
X154026123Y-64333339D01*
X154033730Y-64391116D01*
X154035874Y-64399116D01*
X154101602Y-64644418D01*
X154101605Y-64644428D01*
X154201953Y-64886690D01*
X154201958Y-64886700D01*
X154333075Y-65113803D01*
X154492718Y-65321851D01*
X154492726Y-65321860D01*
X154678140Y-65507274D01*
X154678148Y-65507281D01*
X154678149Y-65507282D01*
X154688575Y-65515282D01*
X154886196Y-65666924D01*
X155113299Y-65798041D01*
X155113309Y-65798046D01*
X155355571Y-65898394D01*
X155355581Y-65898398D01*
X155608884Y-65966270D01*
X155868880Y-66000500D01*
X155868887Y-66000500D01*
X156131113Y-66000500D01*
X156131120Y-66000500D01*
X156391116Y-65966270D01*
X156644419Y-65898398D01*
X156886697Y-65798043D01*
X157113803Y-65666924D01*
X157321851Y-65507282D01*
X157321855Y-65507277D01*
X157321860Y-65507274D01*
X157507274Y-65321860D01*
X157507277Y-65321855D01*
X157507282Y-65321851D01*
X157666924Y-65113803D01*
X157798043Y-64886697D01*
X157898398Y-64644419D01*
X157966270Y-64391116D01*
X158000500Y-64131120D01*
X158000500Y-63868880D01*
X157966270Y-63608884D01*
X157898398Y-63355581D01*
X157898394Y-63355571D01*
X157798046Y-63113309D01*
X157798041Y-63113299D01*
X157666924Y-62886196D01*
X157544424Y-62726554D01*
X157507282Y-62678149D01*
X157507281Y-62678148D01*
X157507274Y-62678140D01*
X157321860Y-62492726D01*
X157321851Y-62492718D01*
X157113803Y-62333075D01*
X156886700Y-62201958D01*
X156886690Y-62201953D01*
X156644428Y-62101605D01*
X156644421Y-62101603D01*
X156644419Y-62101602D01*
X156391116Y-62033730D01*
X156333339Y-62026123D01*
X156131127Y-61999500D01*
X156131120Y-61999500D01*
X155868880Y-61999500D01*
X155868872Y-61999500D01*
X155637772Y-62029926D01*
X155608884Y-62033730D01*
X155355581Y-62101602D01*
X155355571Y-62101605D01*
X155113309Y-62201953D01*
X155113299Y-62201958D01*
X154886196Y-62333075D01*
X154678148Y-62492718D01*
X154492718Y-62678148D01*
X154333075Y-62886196D01*
X154201958Y-63113299D01*
X154201953Y-63113309D01*
X154101605Y-63355571D01*
X154101602Y-63355581D01*
X154033730Y-63608885D01*
X153999500Y-63868872D01*
X105999446Y-63868872D01*
X105966270Y-63616884D01*
X105898398Y-63363581D01*
X105895080Y-63355571D01*
X105798046Y-63121309D01*
X105798041Y-63121299D01*
X105666924Y-62894196D01*
X105507281Y-62686148D01*
X105507274Y-62686140D01*
X105321860Y-62500726D01*
X105321851Y-62500718D01*
X105113803Y-62341075D01*
X104886700Y-62209958D01*
X104886690Y-62209953D01*
X104644428Y-62109605D01*
X104644421Y-62109603D01*
X104644419Y-62109602D01*
X104391116Y-62041730D01*
X104330352Y-62033730D01*
X104131127Y-62007500D01*
X104131120Y-62007500D01*
X103868880Y-62007500D01*
X103868872Y-62007500D01*
X103637772Y-62037926D01*
X103608884Y-62041730D01*
X103385438Y-62101602D01*
X103355581Y-62109602D01*
X103355571Y-62109605D01*
X103113309Y-62209953D01*
X103113299Y-62209958D01*
X102886196Y-62341075D01*
X102678148Y-62500718D01*
X102492718Y-62686148D01*
X102333075Y-62894196D01*
X102201958Y-63121299D01*
X102201953Y-63121309D01*
X102101605Y-63363571D01*
X102101602Y-63363581D01*
X102035874Y-63608885D01*
X102033730Y-63616885D01*
X101999500Y-63876872D01*
X101000000Y-63876872D01*
X101000000Y-61124000D01*
X101019685Y-61056961D01*
X101072489Y-61011206D01*
X101124000Y-61000000D01*
X158876000Y-61000000D01*
X158943039Y-61019685D01*
G37*
G04 #@! TD.AperFunction*
G04 #@! TD*
G04 #@! TA.AperFunction,Conductor*
G04 #@! TO.N,+3V3*
G36*
X154458802Y-75971682D02*
G01*
X154462385Y-75974128D01*
X154592984Y-76104727D01*
X154596411Y-76113000D01*
X154595607Y-76117263D01*
X153966343Y-77725381D01*
X153960137Y-77731837D01*
X153951184Y-77732014D01*
X153950981Y-77731932D01*
X153165785Y-77407675D01*
X153159447Y-77401351D01*
X152835180Y-76616130D01*
X152835189Y-76607176D01*
X152841528Y-76600851D01*
X152841731Y-76600769D01*
X154095563Y-76110139D01*
X154449849Y-75971505D01*
X154458802Y-75971682D01*
G37*
G04 #@! TD.AperFunction*
G04 #@! TD*
G04 #@! TA.AperFunction,Conductor*
G04 #@! TO.N,+3V3*
G36*
X103887033Y-76121037D02*
G01*
X104146245Y-76207244D01*
X105156040Y-76543078D01*
X105162808Y-76548939D01*
X105163824Y-76556450D01*
X105002227Y-77373021D01*
X104997260Y-77380472D01*
X104993021Y-77382227D01*
X104176450Y-77543824D01*
X104167669Y-77542069D01*
X104163078Y-77536040D01*
X103741037Y-76267033D01*
X103741678Y-76258101D01*
X103743863Y-76255071D01*
X103875069Y-76123865D01*
X103883341Y-76120439D01*
X103887033Y-76121037D01*
G37*
G04 #@! TD.AperFunction*
G04 #@! TD*
G04 #@! TA.AperFunction,Conductor*
G04 #@! TO.N,Net-(J1-Pin_3)*
G36*
X108671118Y-79352811D02*
G01*
X109106865Y-80003490D01*
X109108622Y-80012271D01*
X109106865Y-80016510D01*
X108671847Y-80666099D01*
X108664397Y-80671067D01*
X108656297Y-80669733D01*
X107531468Y-80023373D01*
X107526002Y-80016280D01*
X107525597Y-80013229D01*
X107525597Y-79827799D01*
X107529024Y-79819526D01*
X107532793Y-79817001D01*
X108656898Y-79348520D01*
X108665851Y-79348502D01*
X108671118Y-79352811D01*
G37*
G04 #@! TD.AperFunction*
G04 #@! TD*
G04 #@! TA.AperFunction,Conductor*
G04 #@! TO.N,Net-(J1-Pin_3)*
G36*
X105481457Y-79217869D02*
G01*
X106677207Y-79816764D01*
X106683069Y-79823533D01*
X106683667Y-79827225D01*
X106683667Y-80012774D01*
X106680240Y-80021047D01*
X106677207Y-80023235D01*
X105481458Y-80622129D01*
X105472526Y-80622770D01*
X105466496Y-80618178D01*
X105003359Y-79926510D01*
X105001604Y-79917729D01*
X105003359Y-79913490D01*
X105466497Y-79221820D01*
X105473947Y-79216854D01*
X105481457Y-79217869D01*
G37*
G04 #@! TD.AperFunction*
G04 #@! TD*
G04 #@! TA.AperFunction,Conductor*
G04 #@! TO.N,Net-(J1-Pin_5)*
G36*
X105481457Y-84297869D02*
G01*
X106677207Y-84896764D01*
X106683069Y-84903533D01*
X106683667Y-84907225D01*
X106683667Y-85092774D01*
X106680240Y-85101047D01*
X106677207Y-85103235D01*
X105481458Y-85702129D01*
X105472526Y-85702770D01*
X105466496Y-85698178D01*
X105003359Y-85006510D01*
X105001604Y-84997729D01*
X105003359Y-84993490D01*
X105466497Y-84301820D01*
X105473947Y-84296854D01*
X105481457Y-84297869D01*
G37*
G04 #@! TD.AperFunction*
G04 #@! TD*
G04 #@! TA.AperFunction,Conductor*
G04 #@! TO.N,Net-(J1-Pin_7)*
G36*
X108671484Y-91545358D02*
G01*
X109106865Y-92195490D01*
X109108622Y-92204271D01*
X109106865Y-92208510D01*
X108671484Y-92858641D01*
X108664034Y-92863609D01*
X108656567Y-92862614D01*
X107532101Y-92305223D01*
X107526210Y-92298478D01*
X107525597Y-92294740D01*
X107525597Y-92109259D01*
X107529024Y-92100986D01*
X107532101Y-92098776D01*
X108656567Y-91541384D01*
X108665501Y-91540781D01*
X108671484Y-91545358D01*
G37*
G04 #@! TD.AperFunction*
G04 #@! TD*
G04 #@! TA.AperFunction,Conductor*
G04 #@! TO.N,Net-(J1-Pin_7)*
G36*
X105832330Y-89917930D02*
G01*
X105836922Y-89923960D01*
X106258962Y-91192966D01*
X106258321Y-91201898D01*
X106256133Y-91204931D01*
X106124931Y-91336133D01*
X106116658Y-91339560D01*
X106112966Y-91338962D01*
X104843960Y-90916922D01*
X104837191Y-90911060D01*
X104836175Y-90903549D01*
X104997772Y-90086978D01*
X105002739Y-90079527D01*
X105006977Y-90077772D01*
X105823549Y-89916175D01*
X105832330Y-89917930D01*
G37*
G04 #@! TD.AperFunction*
G04 #@! TD*
G04 #@! TA.AperFunction,Conductor*
G04 #@! TO.N,Net-(J1-Pin_6)*
G36*
X105481457Y-86837869D02*
G01*
X106677207Y-87436764D01*
X106683069Y-87443533D01*
X106683667Y-87447225D01*
X106683667Y-87632774D01*
X106680240Y-87641047D01*
X106677207Y-87643235D01*
X105481458Y-88242129D01*
X105472526Y-88242770D01*
X105466496Y-88238178D01*
X105003359Y-87546510D01*
X105001604Y-87537729D01*
X105003359Y-87533490D01*
X105466497Y-86841820D01*
X105473947Y-86836854D01*
X105481457Y-86837869D01*
G37*
G04 #@! TD.AperFunction*
G04 #@! TD*
G04 #@! TA.AperFunction,Conductor*
G04 #@! TO.N,Net-(J1-Pin_6)*
G36*
X108526893Y-86972811D02*
G01*
X108962640Y-87623490D01*
X108964397Y-87632271D01*
X108962640Y-87636510D01*
X108527622Y-88286099D01*
X108520172Y-88291067D01*
X108512072Y-88289733D01*
X107387243Y-87643373D01*
X107381777Y-87636280D01*
X107381372Y-87633229D01*
X107381372Y-87447799D01*
X107384799Y-87439526D01*
X107388568Y-87437001D01*
X108512673Y-86968520D01*
X108521626Y-86968502D01*
X108526893Y-86972811D01*
G37*
G04 #@! TD.AperFunction*
G04 #@! TD*
G04 #@! TA.AperFunction,Conductor*
G04 #@! TO.N,Net-(U1-PA11_A3_D3)*
G36*
X119227014Y-86048799D02*
G01*
X119229224Y-86051876D01*
X119786614Y-87176342D01*
X119787218Y-87185276D01*
X119782641Y-87191259D01*
X119132510Y-87626640D01*
X119123729Y-87628397D01*
X119119490Y-87626640D01*
X118469358Y-87191259D01*
X118464390Y-87183809D01*
X118465385Y-87176342D01*
X119022776Y-86051876D01*
X119029521Y-86045985D01*
X119033259Y-86045372D01*
X119218741Y-86045372D01*
X119227014Y-86048799D01*
G37*
G04 #@! TD.AperFunction*
G04 #@! TD*
G04 #@! TA.AperFunction,Conductor*
G04 #@! TO.N,Net-(U1-PA8_A4_D4_SDA)*
G36*
X119723882Y-91541385D02*
G01*
X120848349Y-92098776D01*
X120854240Y-92105521D01*
X120854853Y-92109259D01*
X120854853Y-92294740D01*
X120851426Y-92303013D01*
X120848349Y-92305223D01*
X119723882Y-92862614D01*
X119714948Y-92863218D01*
X119708965Y-92858641D01*
X119273583Y-92208508D01*
X119271827Y-92199729D01*
X119273582Y-92195492D01*
X119708966Y-91545356D01*
X119716415Y-91540390D01*
X119723882Y-91541385D01*
G37*
G04 #@! TD.AperFunction*
G04 #@! TD*
G04 #@! TA.AperFunction,Conductor*
G04 #@! TO.N,+3V3*
G36*
X152369861Y-76634889D02*
G01*
X153106247Y-77350000D01*
X153154477Y-77396836D01*
X153158025Y-77405059D01*
X153154720Y-77413381D01*
X153154594Y-77413508D01*
X152369490Y-78197631D01*
X152361215Y-78201053D01*
X152353809Y-78198405D01*
X151566287Y-77553510D01*
X151562058Y-77545617D01*
X151562000Y-77544458D01*
X151562000Y-77355197D01*
X151565427Y-77346924D01*
X151565847Y-77346524D01*
X152353869Y-76634599D01*
X152362303Y-76631598D01*
X152369861Y-76634889D01*
G37*
G04 #@! TD.AperFunction*
G04 #@! TD*
G04 #@! TA.AperFunction,Conductor*
G04 #@! TO.N,+3V3*
G36*
X146757657Y-76789385D02*
G01*
X147882124Y-77346776D01*
X147888015Y-77353521D01*
X147888628Y-77357259D01*
X147888628Y-77542740D01*
X147885201Y-77551013D01*
X147882124Y-77553223D01*
X146757657Y-78110614D01*
X146748723Y-78111218D01*
X146742740Y-78106641D01*
X146307358Y-77456508D01*
X146305602Y-77447729D01*
X146307357Y-77443492D01*
X146742741Y-76793356D01*
X146750190Y-76788390D01*
X146757657Y-76789385D01*
G37*
G04 #@! TD.AperFunction*
G04 #@! TD*
G04 #@! TA.AperFunction,Conductor*
G04 #@! TO.N,+3V3*
G36*
X145865783Y-76794140D02*
G01*
X146302294Y-77445960D01*
X146304051Y-77454741D01*
X146304045Y-77454767D01*
X146150660Y-78220980D01*
X146145676Y-78228419D01*
X146136891Y-78230155D01*
X146134953Y-78229590D01*
X144726837Y-77682898D01*
X144720365Y-77676709D01*
X144719372Y-77671991D01*
X144719372Y-77486570D01*
X144722799Y-77478297D01*
X144724981Y-77476580D01*
X144760800Y-77454741D01*
X145849972Y-76790659D01*
X145858819Y-76789279D01*
X145865783Y-76794140D01*
G37*
G04 #@! TD.AperFunction*
G04 #@! TD*
M02*
